<?xml version="1.0" encoding="utf-8" standalone="no"?>
<!DOCTYPE svg PUBLIC "-//W3C//DTD SVG 1.1//EN"
  "http://www.w3.org/Graphics/SVG/1.1/DTD/svg11.dtd">
<!-- Created with matplotlib (https://matplotlib.org/) -->
<svg height="432pt" version="1.1" viewBox="0 0 504 432" width="504pt" xmlns="http://www.w3.org/2000/svg" xmlns:xlink="http://www.w3.org/1999/xlink">
 <defs>
  <style type="text/css">
*{stroke-linecap:butt;stroke-linejoin:round;}
  </style>
 </defs>
 <g id="figure_1">
  <g id="patch_1">
   <path d="M 0 432 
L 504 432 
L 504 0 
L 0 0 
z
" style="fill:#ffffff;"/>
  </g>
  <g id="axes_1">
   <g id="patch_2">
    <path d="M 64.830082 376.432 
L 486.36 376.432 
L 486.36 17.64 
L 64.830082 17.64 
z
" style="fill:#ffffff;"/>
   </g>
   <g id="matplotlib.axis_1">
    <g id="xtick_1">
     <g id="line2d_1">
      <defs>
       <path d="M 0 0 
L 0 3.5 
" id="m51636eefc8" style="stroke:#000000;stroke-width:0.8;"/>
      </defs>
      <g>
       <use style="stroke:#000000;stroke-width:0.8;" x="100.439299" xlink:href="#m51636eefc8" y="376.432"/>
      </g>
     </g>
     <g id="text_1">
      <!-- $\mathdefault{10^{2}}$ -->
      <defs>
       <path d="M 12.40625 8.296875 
L 28.515625 8.296875 
L 28.515625 63.921875 
L 10.984375 60.40625 
L 10.984375 69.390625 
L 28.421875 72.90625 
L 38.28125 72.90625 
L 38.28125 8.296875 
L 54.390625 8.296875 
L 54.390625 0 
L 12.40625 0 
z
" id="DejaVuSans-49"/>
       <path d="M 31.78125 66.40625 
Q 24.171875 66.40625 20.328125 58.90625 
Q 16.5 51.421875 16.5 36.375 
Q 16.5 21.390625 20.328125 13.890625 
Q 24.171875 6.390625 31.78125 6.390625 
Q 39.453125 6.390625 43.28125 13.890625 
Q 47.125 21.390625 47.125 36.375 
Q 47.125 51.421875 43.28125 58.90625 
Q 39.453125 66.40625 31.78125 66.40625 
z
M 31.78125 74.21875 
Q 44.046875 74.21875 50.515625 64.515625 
Q 56.984375 54.828125 56.984375 36.375 
Q 56.984375 17.96875 50.515625 8.265625 
Q 44.046875 -1.421875 31.78125 -1.421875 
Q 19.53125 -1.421875 13.0625 8.265625 
Q 6.59375 17.96875 6.59375 36.375 
Q 6.59375 54.828125 13.0625 64.515625 
Q 19.53125 74.21875 31.78125 74.21875 
z
" id="DejaVuSans-48"/>
       <path d="M 19.1875 8.296875 
L 53.609375 8.296875 
L 53.609375 0 
L 7.328125 0 
L 7.328125 8.296875 
Q 12.9375 14.109375 22.625 23.890625 
Q 32.328125 33.6875 34.8125 36.53125 
Q 39.546875 41.84375 41.421875 45.53125 
Q 43.3125 49.21875 43.3125 52.78125 
Q 43.3125 58.59375 39.234375 62.25 
Q 35.15625 65.921875 28.609375 65.921875 
Q 23.96875 65.921875 18.8125 64.3125 
Q 13.671875 62.703125 7.8125 59.421875 
L 7.8125 69.390625 
Q 13.765625 71.78125 18.9375 73 
Q 24.125 74.21875 28.421875 74.21875 
Q 39.75 74.21875 46.484375 68.546875 
Q 53.21875 62.890625 53.21875 53.421875 
Q 53.21875 48.921875 51.53125 44.890625 
Q 49.859375 40.875 45.40625 35.40625 
Q 44.1875 33.984375 37.640625 27.21875 
Q 31.109375 20.453125 19.1875 8.296875 
z
" id="DejaVuSans-50"/>
      </defs>
      <g transform="translate(88.119299 394.069813)scale(0.14 -0.14)">
       <use transform="translate(0 0.765625)" xlink:href="#DejaVuSans-49"/>
       <use transform="translate(63.623047 0.765625)" xlink:href="#DejaVuSans-48"/>
       <use transform="translate(128.203125 39.046875)scale(0.7)" xlink:href="#DejaVuSans-50"/>
      </g>
     </g>
    </g>
    <g id="xtick_2">
     <g id="line2d_2">
      <g>
       <use style="stroke:#000000;stroke-width:0.8;" x="185.305486" xlink:href="#m51636eefc8" y="376.432"/>
      </g>
     </g>
     <g id="text_2">
      <!-- $\mathdefault{10^{3}}$ -->
      <defs>
       <path d="M 40.578125 39.3125 
Q 47.65625 37.796875 51.625 33 
Q 55.609375 28.21875 55.609375 21.1875 
Q 55.609375 10.40625 48.1875 4.484375 
Q 40.765625 -1.421875 27.09375 -1.421875 
Q 22.515625 -1.421875 17.65625 -0.515625 
Q 12.796875 0.390625 7.625 2.203125 
L 7.625 11.71875 
Q 11.71875 9.328125 16.59375 8.109375 
Q 21.484375 6.890625 26.8125 6.890625 
Q 36.078125 6.890625 40.9375 10.546875 
Q 45.796875 14.203125 45.796875 21.1875 
Q 45.796875 27.640625 41.28125 31.265625 
Q 36.765625 34.90625 28.71875 34.90625 
L 20.21875 34.90625 
L 20.21875 43.015625 
L 29.109375 43.015625 
Q 36.375 43.015625 40.234375 45.921875 
Q 44.09375 48.828125 44.09375 54.296875 
Q 44.09375 59.90625 40.109375 62.90625 
Q 36.140625 65.921875 28.71875 65.921875 
Q 24.65625 65.921875 20.015625 65.03125 
Q 15.375 64.15625 9.8125 62.3125 
L 9.8125 71.09375 
Q 15.4375 72.65625 20.34375 73.4375 
Q 25.25 74.21875 29.59375 74.21875 
Q 40.828125 74.21875 47.359375 69.109375 
Q 53.90625 64.015625 53.90625 55.328125 
Q 53.90625 49.265625 50.4375 45.09375 
Q 46.96875 40.921875 40.578125 39.3125 
z
" id="DejaVuSans-51"/>
      </defs>
      <g transform="translate(172.985486 394.069813)scale(0.14 -0.14)">
       <use transform="translate(0 0.765625)" xlink:href="#DejaVuSans-49"/>
       <use transform="translate(63.623047 0.765625)" xlink:href="#DejaVuSans-48"/>
       <use transform="translate(128.203125 39.046875)scale(0.7)" xlink:href="#DejaVuSans-51"/>
      </g>
     </g>
    </g>
    <g id="xtick_3">
     <g id="line2d_3">
      <g>
       <use style="stroke:#000000;stroke-width:0.8;" x="270.171672" xlink:href="#m51636eefc8" y="376.432"/>
      </g>
     </g>
     <g id="text_3">
      <!-- $\mathdefault{10^{4}}$ -->
      <defs>
       <path d="M 37.796875 64.3125 
L 12.890625 25.390625 
L 37.796875 25.390625 
z
M 35.203125 72.90625 
L 47.609375 72.90625 
L 47.609375 25.390625 
L 58.015625 25.390625 
L 58.015625 17.1875 
L 47.609375 17.1875 
L 47.609375 0 
L 37.796875 0 
L 37.796875 17.1875 
L 4.890625 17.1875 
L 4.890625 26.703125 
z
" id="DejaVuSans-52"/>
      </defs>
      <g transform="translate(257.851672 394.069813)scale(0.14 -0.14)">
       <use transform="translate(0 0.684375)" xlink:href="#DejaVuSans-49"/>
       <use transform="translate(63.623047 0.684375)" xlink:href="#DejaVuSans-48"/>
       <use transform="translate(128.203125 38.965625)scale(0.7)" xlink:href="#DejaVuSans-52"/>
      </g>
     </g>
    </g>
    <g id="xtick_4">
     <g id="line2d_4">
      <g>
       <use style="stroke:#000000;stroke-width:0.8;" x="355.037859" xlink:href="#m51636eefc8" y="376.432"/>
      </g>
     </g>
     <g id="text_4">
      <!-- $\mathdefault{10^{5}}$ -->
      <defs>
       <path d="M 10.796875 72.90625 
L 49.515625 72.90625 
L 49.515625 64.59375 
L 19.828125 64.59375 
L 19.828125 46.734375 
Q 21.96875 47.46875 24.109375 47.828125 
Q 26.265625 48.1875 28.421875 48.1875 
Q 40.625 48.1875 47.75 41.5 
Q 54.890625 34.8125 54.890625 23.390625 
Q 54.890625 11.625 47.5625 5.09375 
Q 40.234375 -1.421875 26.90625 -1.421875 
Q 22.3125 -1.421875 17.546875 -0.640625 
Q 12.796875 0.140625 7.71875 1.703125 
L 7.71875 11.625 
Q 12.109375 9.234375 16.796875 8.0625 
Q 21.484375 6.890625 26.703125 6.890625 
Q 35.15625 6.890625 40.078125 11.328125 
Q 45.015625 15.765625 45.015625 23.390625 
Q 45.015625 31 40.078125 35.4375 
Q 35.15625 39.890625 26.703125 39.890625 
Q 22.75 39.890625 18.8125 39.015625 
Q 14.890625 38.140625 10.796875 36.28125 
z
" id="DejaVuSans-53"/>
      </defs>
      <g transform="translate(342.717859 394.069813)scale(0.14 -0.14)">
       <use transform="translate(0 0.684375)" xlink:href="#DejaVuSans-49"/>
       <use transform="translate(63.623047 0.684375)" xlink:href="#DejaVuSans-48"/>
       <use transform="translate(128.203125 38.965625)scale(0.7)" xlink:href="#DejaVuSans-53"/>
      </g>
     </g>
    </g>
    <g id="xtick_5">
     <g id="line2d_5">
      <g>
       <use style="stroke:#000000;stroke-width:0.8;" x="439.904045" xlink:href="#m51636eefc8" y="376.432"/>
      </g>
     </g>
     <g id="text_5">
      <!-- $\mathdefault{10^{6}}$ -->
      <defs>
       <path d="M 33.015625 40.375 
Q 26.375 40.375 22.484375 35.828125 
Q 18.609375 31.296875 18.609375 23.390625 
Q 18.609375 15.53125 22.484375 10.953125 
Q 26.375 6.390625 33.015625 6.390625 
Q 39.65625 6.390625 43.53125 10.953125 
Q 47.40625 15.53125 47.40625 23.390625 
Q 47.40625 31.296875 43.53125 35.828125 
Q 39.65625 40.375 33.015625 40.375 
z
M 52.59375 71.296875 
L 52.59375 62.3125 
Q 48.875 64.0625 45.09375 64.984375 
Q 41.3125 65.921875 37.59375 65.921875 
Q 27.828125 65.921875 22.671875 59.328125 
Q 17.53125 52.734375 16.796875 39.40625 
Q 19.671875 43.65625 24.015625 45.921875 
Q 28.375 48.1875 33.59375 48.1875 
Q 44.578125 48.1875 50.953125 41.515625 
Q 57.328125 34.859375 57.328125 23.390625 
Q 57.328125 12.15625 50.6875 5.359375 
Q 44.046875 -1.421875 33.015625 -1.421875 
Q 20.359375 -1.421875 13.671875 8.265625 
Q 6.984375 17.96875 6.984375 36.375 
Q 6.984375 53.65625 15.1875 63.9375 
Q 23.390625 74.21875 37.203125 74.21875 
Q 40.921875 74.21875 44.703125 73.484375 
Q 48.484375 72.75 52.59375 71.296875 
z
" id="DejaVuSans-54"/>
      </defs>
      <g transform="translate(427.584045 394.069813)scale(0.14 -0.14)">
       <use transform="translate(0 0.765625)" xlink:href="#DejaVuSans-49"/>
       <use transform="translate(63.623047 0.765625)" xlink:href="#DejaVuSans-48"/>
       <use transform="translate(128.203125 39.046875)scale(0.7)" xlink:href="#DejaVuSans-54"/>
      </g>
     </g>
    </g>
    <g id="xtick_6">
     <g id="line2d_6">
      <defs>
       <path d="M 0 0 
L 0 2 
" id="m153daa8c13" style="stroke:#000000;stroke-width:0.6;"/>
      </defs>
      <g>
       <use style="stroke:#000000;stroke-width:0.6;" x="66.667648" xlink:href="#m153daa8c13" y="376.432"/>
      </g>
     </g>
    </g>
    <g id="xtick_7">
     <g id="line2d_7">
      <g>
       <use style="stroke:#000000;stroke-width:0.6;" x="74.892031" xlink:href="#m153daa8c13" y="376.432"/>
      </g>
     </g>
    </g>
    <g id="xtick_8">
     <g id="line2d_8">
      <g>
       <use style="stroke:#000000;stroke-width:0.6;" x="81.611842" xlink:href="#m153daa8c13" y="376.432"/>
      </g>
     </g>
    </g>
    <g id="xtick_9">
     <g id="line2d_9">
      <g>
       <use style="stroke:#000000;stroke-width:0.6;" x="87.293361" xlink:href="#m153daa8c13" y="376.432"/>
      </g>
     </g>
    </g>
    <g id="xtick_10">
     <g id="line2d_10">
      <g>
       <use style="stroke:#000000;stroke-width:0.6;" x="92.214916" xlink:href="#m153daa8c13" y="376.432"/>
      </g>
     </g>
    </g>
    <g id="xtick_11">
     <g id="line2d_11">
      <g>
       <use style="stroke:#000000;stroke-width:0.6;" x="96.556036" xlink:href="#m153daa8c13" y="376.432"/>
      </g>
     </g>
    </g>
    <g id="xtick_12">
     <g id="line2d_12">
      <g>
       <use style="stroke:#000000;stroke-width:0.6;" x="125.986567" xlink:href="#m153daa8c13" y="376.432"/>
      </g>
     </g>
    </g>
    <g id="xtick_13">
     <g id="line2d_13">
      <g>
       <use style="stroke:#000000;stroke-width:0.6;" x="140.930761" xlink:href="#m153daa8c13" y="376.432"/>
      </g>
     </g>
    </g>
    <g id="xtick_14">
     <g id="line2d_14">
      <g>
       <use style="stroke:#000000;stroke-width:0.6;" x="151.533835" xlink:href="#m153daa8c13" y="376.432"/>
      </g>
     </g>
    </g>
    <g id="xtick_15">
     <g id="line2d_15">
      <g>
       <use style="stroke:#000000;stroke-width:0.6;" x="159.758218" xlink:href="#m153daa8c13" y="376.432"/>
      </g>
     </g>
    </g>
    <g id="xtick_16">
     <g id="line2d_16">
      <g>
       <use style="stroke:#000000;stroke-width:0.6;" x="166.478028" xlink:href="#m153daa8c13" y="376.432"/>
      </g>
     </g>
    </g>
    <g id="xtick_17">
     <g id="line2d_17">
      <g>
       <use style="stroke:#000000;stroke-width:0.6;" x="172.159547" xlink:href="#m153daa8c13" y="376.432"/>
      </g>
     </g>
    </g>
    <g id="xtick_18">
     <g id="line2d_18">
      <g>
       <use style="stroke:#000000;stroke-width:0.6;" x="177.081103" xlink:href="#m153daa8c13" y="376.432"/>
      </g>
     </g>
    </g>
    <g id="xtick_19">
     <g id="line2d_19">
      <g>
       <use style="stroke:#000000;stroke-width:0.6;" x="181.422222" xlink:href="#m153daa8c13" y="376.432"/>
      </g>
     </g>
    </g>
    <g id="xtick_20">
     <g id="line2d_20">
      <g>
       <use style="stroke:#000000;stroke-width:0.6;" x="210.852754" xlink:href="#m153daa8c13" y="376.432"/>
      </g>
     </g>
    </g>
    <g id="xtick_21">
     <g id="line2d_21">
      <g>
       <use style="stroke:#000000;stroke-width:0.6;" x="225.796947" xlink:href="#m153daa8c13" y="376.432"/>
      </g>
     </g>
    </g>
    <g id="xtick_22">
     <g id="line2d_22">
      <g>
       <use style="stroke:#000000;stroke-width:0.6;" x="236.400021" xlink:href="#m153daa8c13" y="376.432"/>
      </g>
     </g>
    </g>
    <g id="xtick_23">
     <g id="line2d_23">
      <g>
       <use style="stroke:#000000;stroke-width:0.6;" x="244.624405" xlink:href="#m153daa8c13" y="376.432"/>
      </g>
     </g>
    </g>
    <g id="xtick_24">
     <g id="line2d_24">
      <g>
       <use style="stroke:#000000;stroke-width:0.6;" x="251.344215" xlink:href="#m153daa8c13" y="376.432"/>
      </g>
     </g>
    </g>
    <g id="xtick_25">
     <g id="line2d_25">
      <g>
       <use style="stroke:#000000;stroke-width:0.6;" x="257.025734" xlink:href="#m153daa8c13" y="376.432"/>
      </g>
     </g>
    </g>
    <g id="xtick_26">
     <g id="line2d_26">
      <g>
       <use style="stroke:#000000;stroke-width:0.6;" x="261.947289" xlink:href="#m153daa8c13" y="376.432"/>
      </g>
     </g>
    </g>
    <g id="xtick_27">
     <g id="line2d_27">
      <g>
       <use style="stroke:#000000;stroke-width:0.6;" x="266.288409" xlink:href="#m153daa8c13" y="376.432"/>
      </g>
     </g>
    </g>
    <g id="xtick_28">
     <g id="line2d_28">
      <g>
       <use style="stroke:#000000;stroke-width:0.6;" x="295.71894" xlink:href="#m153daa8c13" y="376.432"/>
      </g>
     </g>
    </g>
    <g id="xtick_29">
     <g id="line2d_29">
      <g>
       <use style="stroke:#000000;stroke-width:0.6;" x="310.663134" xlink:href="#m153daa8c13" y="376.432"/>
      </g>
     </g>
    </g>
    <g id="xtick_30">
     <g id="line2d_30">
      <g>
       <use style="stroke:#000000;stroke-width:0.6;" x="321.266208" xlink:href="#m153daa8c13" y="376.432"/>
      </g>
     </g>
    </g>
    <g id="xtick_31">
     <g id="line2d_31">
      <g>
       <use style="stroke:#000000;stroke-width:0.6;" x="329.490591" xlink:href="#m153daa8c13" y="376.432"/>
      </g>
     </g>
    </g>
    <g id="xtick_32">
     <g id="line2d_32">
      <g>
       <use style="stroke:#000000;stroke-width:0.6;" x="336.210401" xlink:href="#m153daa8c13" y="376.432"/>
      </g>
     </g>
    </g>
    <g id="xtick_33">
     <g id="line2d_33">
      <g>
       <use style="stroke:#000000;stroke-width:0.6;" x="341.89192" xlink:href="#m153daa8c13" y="376.432"/>
      </g>
     </g>
    </g>
    <g id="xtick_34">
     <g id="line2d_34">
      <g>
       <use style="stroke:#000000;stroke-width:0.6;" x="346.813476" xlink:href="#m153daa8c13" y="376.432"/>
      </g>
     </g>
    </g>
    <g id="xtick_35">
     <g id="line2d_35">
      <g>
       <use style="stroke:#000000;stroke-width:0.6;" x="351.154595" xlink:href="#m153daa8c13" y="376.432"/>
      </g>
     </g>
    </g>
    <g id="xtick_36">
     <g id="line2d_36">
      <g>
       <use style="stroke:#000000;stroke-width:0.6;" x="380.585127" xlink:href="#m153daa8c13" y="376.432"/>
      </g>
     </g>
    </g>
    <g id="xtick_37">
     <g id="line2d_37">
      <g>
       <use style="stroke:#000000;stroke-width:0.6;" x="395.52932" xlink:href="#m153daa8c13" y="376.432"/>
      </g>
     </g>
    </g>
    <g id="xtick_38">
     <g id="line2d_38">
      <g>
       <use style="stroke:#000000;stroke-width:0.6;" x="406.132394" xlink:href="#m153daa8c13" y="376.432"/>
      </g>
     </g>
    </g>
    <g id="xtick_39">
     <g id="line2d_39">
      <g>
       <use style="stroke:#000000;stroke-width:0.6;" x="414.356778" xlink:href="#m153daa8c13" y="376.432"/>
      </g>
     </g>
    </g>
    <g id="xtick_40">
     <g id="line2d_40">
      <g>
       <use style="stroke:#000000;stroke-width:0.6;" x="421.076588" xlink:href="#m153daa8c13" y="376.432"/>
      </g>
     </g>
    </g>
    <g id="xtick_41">
     <g id="line2d_41">
      <g>
       <use style="stroke:#000000;stroke-width:0.6;" x="426.758107" xlink:href="#m153daa8c13" y="376.432"/>
      </g>
     </g>
    </g>
    <g id="xtick_42">
     <g id="line2d_42">
      <g>
       <use style="stroke:#000000;stroke-width:0.6;" x="431.679662" xlink:href="#m153daa8c13" y="376.432"/>
      </g>
     </g>
    </g>
    <g id="xtick_43">
     <g id="line2d_43">
      <g>
       <use style="stroke:#000000;stroke-width:0.6;" x="436.020782" xlink:href="#m153daa8c13" y="376.432"/>
      </g>
     </g>
    </g>
    <g id="xtick_44">
     <g id="line2d_44">
      <g>
       <use style="stroke:#000000;stroke-width:0.6;" x="465.451313" xlink:href="#m153daa8c13" y="376.432"/>
      </g>
     </g>
    </g>
    <g id="xtick_45">
     <g id="line2d_45">
      <g>
       <use style="stroke:#000000;stroke-width:0.6;" x="480.395507" xlink:href="#m153daa8c13" y="376.432"/>
      </g>
     </g>
    </g>
    <g id="text_6">
     <!-- number of bins in 3D histogram -->
     <defs>
      <path d="M 54.890625 33.015625 
L 54.890625 0 
L 45.90625 0 
L 45.90625 32.71875 
Q 45.90625 40.484375 42.875 44.328125 
Q 39.84375 48.1875 33.796875 48.1875 
Q 26.515625 48.1875 22.3125 43.546875 
Q 18.109375 38.921875 18.109375 30.90625 
L 18.109375 0 
L 9.078125 0 
L 9.078125 54.6875 
L 18.109375 54.6875 
L 18.109375 46.1875 
Q 21.34375 51.125 25.703125 53.5625 
Q 30.078125 56 35.796875 56 
Q 45.21875 56 50.046875 50.171875 
Q 54.890625 44.34375 54.890625 33.015625 
z
" id="DejaVuSans-110"/>
      <path d="M 8.5 21.578125 
L 8.5 54.6875 
L 17.484375 54.6875 
L 17.484375 21.921875 
Q 17.484375 14.15625 20.5 10.265625 
Q 23.53125 6.390625 29.59375 6.390625 
Q 36.859375 6.390625 41.078125 11.03125 
Q 45.3125 15.671875 45.3125 23.6875 
L 45.3125 54.6875 
L 54.296875 54.6875 
L 54.296875 0 
L 45.3125 0 
L 45.3125 8.40625 
Q 42.046875 3.421875 37.71875 1 
Q 33.40625 -1.421875 27.6875 -1.421875 
Q 18.265625 -1.421875 13.375 4.4375 
Q 8.5 10.296875 8.5 21.578125 
z
M 31.109375 56 
z
" id="DejaVuSans-117"/>
      <path d="M 52 44.1875 
Q 55.375 50.25 60.0625 53.125 
Q 64.75 56 71.09375 56 
Q 79.640625 56 84.28125 50.015625 
Q 88.921875 44.046875 88.921875 33.015625 
L 88.921875 0 
L 79.890625 0 
L 79.890625 32.71875 
Q 79.890625 40.578125 77.09375 44.375 
Q 74.3125 48.1875 68.609375 48.1875 
Q 61.625 48.1875 57.5625 43.546875 
Q 53.515625 38.921875 53.515625 30.90625 
L 53.515625 0 
L 44.484375 0 
L 44.484375 32.71875 
Q 44.484375 40.625 41.703125 44.40625 
Q 38.921875 48.1875 33.109375 48.1875 
Q 26.21875 48.1875 22.15625 43.53125 
Q 18.109375 38.875 18.109375 30.90625 
L 18.109375 0 
L 9.078125 0 
L 9.078125 54.6875 
L 18.109375 54.6875 
L 18.109375 46.1875 
Q 21.1875 51.21875 25.484375 53.609375 
Q 29.78125 56 35.6875 56 
Q 41.65625 56 45.828125 52.96875 
Q 50 49.953125 52 44.1875 
z
" id="DejaVuSans-109"/>
      <path d="M 48.6875 27.296875 
Q 48.6875 37.203125 44.609375 42.84375 
Q 40.53125 48.484375 33.40625 48.484375 
Q 26.265625 48.484375 22.1875 42.84375 
Q 18.109375 37.203125 18.109375 27.296875 
Q 18.109375 17.390625 22.1875 11.75 
Q 26.265625 6.109375 33.40625 6.109375 
Q 40.53125 6.109375 44.609375 11.75 
Q 48.6875 17.390625 48.6875 27.296875 
z
M 18.109375 46.390625 
Q 20.953125 51.265625 25.265625 53.625 
Q 29.59375 56 35.59375 56 
Q 45.5625 56 51.78125 48.09375 
Q 58.015625 40.1875 58.015625 27.296875 
Q 58.015625 14.40625 51.78125 6.484375 
Q 45.5625 -1.421875 35.59375 -1.421875 
Q 29.59375 -1.421875 25.265625 0.953125 
Q 20.953125 3.328125 18.109375 8.203125 
L 18.109375 0 
L 9.078125 0 
L 9.078125 75.984375 
L 18.109375 75.984375 
z
" id="DejaVuSans-98"/>
      <path d="M 56.203125 29.59375 
L 56.203125 25.203125 
L 14.890625 25.203125 
Q 15.484375 15.921875 20.484375 11.0625 
Q 25.484375 6.203125 34.421875 6.203125 
Q 39.59375 6.203125 44.453125 7.46875 
Q 49.3125 8.734375 54.109375 11.28125 
L 54.109375 2.78125 
Q 49.265625 0.734375 44.1875 -0.34375 
Q 39.109375 -1.421875 33.890625 -1.421875 
Q 20.796875 -1.421875 13.15625 6.1875 
Q 5.515625 13.8125 5.515625 26.8125 
Q 5.515625 40.234375 12.765625 48.109375 
Q 20.015625 56 32.328125 56 
Q 43.359375 56 49.78125 48.890625 
Q 56.203125 41.796875 56.203125 29.59375 
z
M 47.21875 32.234375 
Q 47.125 39.59375 43.09375 43.984375 
Q 39.0625 48.390625 32.421875 48.390625 
Q 24.90625 48.390625 20.390625 44.140625 
Q 15.875 39.890625 15.1875 32.171875 
z
" id="DejaVuSans-101"/>
      <path d="M 41.109375 46.296875 
Q 39.59375 47.171875 37.8125 47.578125 
Q 36.03125 48 33.890625 48 
Q 26.265625 48 22.1875 43.046875 
Q 18.109375 38.09375 18.109375 28.8125 
L 18.109375 0 
L 9.078125 0 
L 9.078125 54.6875 
L 18.109375 54.6875 
L 18.109375 46.1875 
Q 20.953125 51.171875 25.484375 53.578125 
Q 30.03125 56 36.53125 56 
Q 37.453125 56 38.578125 55.875 
Q 39.703125 55.765625 41.0625 55.515625 
z
" id="DejaVuSans-114"/>
      <path id="DejaVuSans-32"/>
      <path d="M 30.609375 48.390625 
Q 23.390625 48.390625 19.1875 42.75 
Q 14.984375 37.109375 14.984375 27.296875 
Q 14.984375 17.484375 19.15625 11.84375 
Q 23.34375 6.203125 30.609375 6.203125 
Q 37.796875 6.203125 41.984375 11.859375 
Q 46.1875 17.53125 46.1875 27.296875 
Q 46.1875 37.015625 41.984375 42.703125 
Q 37.796875 48.390625 30.609375 48.390625 
z
M 30.609375 56 
Q 42.328125 56 49.015625 48.375 
Q 55.71875 40.765625 55.71875 27.296875 
Q 55.71875 13.875 49.015625 6.21875 
Q 42.328125 -1.421875 30.609375 -1.421875 
Q 18.84375 -1.421875 12.171875 6.21875 
Q 5.515625 13.875 5.515625 27.296875 
Q 5.515625 40.765625 12.171875 48.375 
Q 18.84375 56 30.609375 56 
z
" id="DejaVuSans-111"/>
      <path d="M 37.109375 75.984375 
L 37.109375 68.5 
L 28.515625 68.5 
Q 23.6875 68.5 21.796875 66.546875 
Q 19.921875 64.59375 19.921875 59.515625 
L 19.921875 54.6875 
L 34.71875 54.6875 
L 34.71875 47.703125 
L 19.921875 47.703125 
L 19.921875 0 
L 10.890625 0 
L 10.890625 47.703125 
L 2.296875 47.703125 
L 2.296875 54.6875 
L 10.890625 54.6875 
L 10.890625 58.5 
Q 10.890625 67.625 15.140625 71.796875 
Q 19.390625 75.984375 28.609375 75.984375 
z
" id="DejaVuSans-102"/>
      <path d="M 9.421875 54.6875 
L 18.40625 54.6875 
L 18.40625 0 
L 9.421875 0 
z
M 9.421875 75.984375 
L 18.40625 75.984375 
L 18.40625 64.59375 
L 9.421875 64.59375 
z
" id="DejaVuSans-105"/>
      <path d="M 44.28125 53.078125 
L 44.28125 44.578125 
Q 40.484375 46.53125 36.375 47.5 
Q 32.28125 48.484375 27.875 48.484375 
Q 21.1875 48.484375 17.84375 46.4375 
Q 14.5 44.390625 14.5 40.28125 
Q 14.5 37.15625 16.890625 35.375 
Q 19.28125 33.59375 26.515625 31.984375 
L 29.59375 31.296875 
Q 39.15625 29.25 43.1875 25.515625 
Q 47.21875 21.78125 47.21875 15.09375 
Q 47.21875 7.46875 41.1875 3.015625 
Q 35.15625 -1.421875 24.609375 -1.421875 
Q 20.21875 -1.421875 15.453125 -0.5625 
Q 10.6875 0.296875 5.421875 2 
L 5.421875 11.28125 
Q 10.40625 8.6875 15.234375 7.390625 
Q 20.0625 6.109375 24.8125 6.109375 
Q 31.15625 6.109375 34.5625 8.28125 
Q 37.984375 10.453125 37.984375 14.40625 
Q 37.984375 18.0625 35.515625 20.015625 
Q 33.0625 21.96875 24.703125 23.78125 
L 21.578125 24.515625 
Q 13.234375 26.265625 9.515625 29.90625 
Q 5.8125 33.546875 5.8125 39.890625 
Q 5.8125 47.609375 11.28125 51.796875 
Q 16.75 56 26.8125 56 
Q 31.78125 56 36.171875 55.265625 
Q 40.578125 54.546875 44.28125 53.078125 
z
" id="DejaVuSans-115"/>
      <path d="M 19.671875 64.796875 
L 19.671875 8.109375 
L 31.59375 8.109375 
Q 46.6875 8.109375 53.6875 14.9375 
Q 60.6875 21.78125 60.6875 36.53125 
Q 60.6875 51.171875 53.6875 57.984375 
Q 46.6875 64.796875 31.59375 64.796875 
z
M 9.8125 72.90625 
L 30.078125 72.90625 
Q 51.265625 72.90625 61.171875 64.09375 
Q 71.09375 55.28125 71.09375 36.53125 
Q 71.09375 17.671875 61.125 8.828125 
Q 51.171875 0 30.078125 0 
L 9.8125 0 
z
" id="DejaVuSans-68"/>
      <path d="M 54.890625 33.015625 
L 54.890625 0 
L 45.90625 0 
L 45.90625 32.71875 
Q 45.90625 40.484375 42.875 44.328125 
Q 39.84375 48.1875 33.796875 48.1875 
Q 26.515625 48.1875 22.3125 43.546875 
Q 18.109375 38.921875 18.109375 30.90625 
L 18.109375 0 
L 9.078125 0 
L 9.078125 75.984375 
L 18.109375 75.984375 
L 18.109375 46.1875 
Q 21.34375 51.125 25.703125 53.5625 
Q 30.078125 56 35.796875 56 
Q 45.21875 56 50.046875 50.171875 
Q 54.890625 44.34375 54.890625 33.015625 
z
" id="DejaVuSans-104"/>
      <path d="M 18.3125 70.21875 
L 18.3125 54.6875 
L 36.8125 54.6875 
L 36.8125 47.703125 
L 18.3125 47.703125 
L 18.3125 18.015625 
Q 18.3125 11.328125 20.140625 9.421875 
Q 21.96875 7.515625 27.59375 7.515625 
L 36.8125 7.515625 
L 36.8125 0 
L 27.59375 0 
Q 17.1875 0 13.234375 3.875 
Q 9.28125 7.765625 9.28125 18.015625 
L 9.28125 47.703125 
L 2.6875 47.703125 
L 2.6875 54.6875 
L 9.28125 54.6875 
L 9.28125 70.21875 
z
" id="DejaVuSans-116"/>
      <path d="M 45.40625 27.984375 
Q 45.40625 37.75 41.375 43.109375 
Q 37.359375 48.484375 30.078125 48.484375 
Q 22.859375 48.484375 18.828125 43.109375 
Q 14.796875 37.75 14.796875 27.984375 
Q 14.796875 18.265625 18.828125 12.890625 
Q 22.859375 7.515625 30.078125 7.515625 
Q 37.359375 7.515625 41.375 12.890625 
Q 45.40625 18.265625 45.40625 27.984375 
z
M 54.390625 6.78125 
Q 54.390625 -7.171875 48.1875 -13.984375 
Q 42 -20.796875 29.203125 -20.796875 
Q 24.46875 -20.796875 20.265625 -20.09375 
Q 16.0625 -19.390625 12.109375 -17.921875 
L 12.109375 -9.1875 
Q 16.0625 -11.328125 19.921875 -12.34375 
Q 23.78125 -13.375 27.78125 -13.375 
Q 36.625 -13.375 41.015625 -8.765625 
Q 45.40625 -4.15625 45.40625 5.171875 
L 45.40625 9.625 
Q 42.625 4.78125 38.28125 2.390625 
Q 33.9375 0 27.875 0 
Q 17.828125 0 11.671875 7.65625 
Q 5.515625 15.328125 5.515625 27.984375 
Q 5.515625 40.671875 11.671875 48.328125 
Q 17.828125 56 27.875 56 
Q 33.9375 56 38.28125 53.609375 
Q 42.625 51.21875 45.40625 46.390625 
L 45.40625 54.6875 
L 54.390625 54.6875 
z
" id="DejaVuSans-103"/>
      <path d="M 34.28125 27.484375 
Q 23.390625 27.484375 19.1875 25 
Q 14.984375 22.515625 14.984375 16.5 
Q 14.984375 11.71875 18.140625 8.90625 
Q 21.296875 6.109375 26.703125 6.109375 
Q 34.1875 6.109375 38.703125 11.40625 
Q 43.21875 16.703125 43.21875 25.484375 
L 43.21875 27.484375 
z
M 52.203125 31.203125 
L 52.203125 0 
L 43.21875 0 
L 43.21875 8.296875 
Q 40.140625 3.328125 35.546875 0.953125 
Q 30.953125 -1.421875 24.3125 -1.421875 
Q 15.921875 -1.421875 10.953125 3.296875 
Q 6 8.015625 6 15.921875 
Q 6 25.140625 12.171875 29.828125 
Q 18.359375 34.515625 30.609375 34.515625 
L 43.21875 34.515625 
L 43.21875 35.40625 
Q 43.21875 41.609375 39.140625 45 
Q 35.0625 48.390625 27.6875 48.390625 
Q 23 48.390625 18.546875 47.265625 
Q 14.109375 46.140625 10.015625 43.890625 
L 10.015625 52.203125 
Q 14.9375 54.109375 19.578125 55.046875 
Q 24.21875 56 28.609375 56 
Q 40.484375 56 46.34375 49.84375 
Q 52.203125 43.703125 52.203125 31.203125 
z
" id="DejaVuSans-97"/>
     </defs>
     <g transform="translate(164.223947 411.619188)scale(0.14 -0.14)">
      <use xlink:href="#DejaVuSans-110"/>
      <use x="63.378906" xlink:href="#DejaVuSans-117"/>
      <use x="126.757812" xlink:href="#DejaVuSans-109"/>
      <use x="224.169922" xlink:href="#DejaVuSans-98"/>
      <use x="287.646484" xlink:href="#DejaVuSans-101"/>
      <use x="349.169922" xlink:href="#DejaVuSans-114"/>
      <use x="390.283203" xlink:href="#DejaVuSans-32"/>
      <use x="422.070312" xlink:href="#DejaVuSans-111"/>
      <use x="483.251953" xlink:href="#DejaVuSans-102"/>
      <use x="518.457031" xlink:href="#DejaVuSans-32"/>
      <use x="550.244141" xlink:href="#DejaVuSans-98"/>
      <use x="613.720703" xlink:href="#DejaVuSans-105"/>
      <use x="641.503906" xlink:href="#DejaVuSans-110"/>
      <use x="704.882812" xlink:href="#DejaVuSans-115"/>
      <use x="756.982422" xlink:href="#DejaVuSans-32"/>
      <use x="788.769531" xlink:href="#DejaVuSans-105"/>
      <use x="816.552734" xlink:href="#DejaVuSans-110"/>
      <use x="879.931641" xlink:href="#DejaVuSans-32"/>
      <use x="911.71875" xlink:href="#DejaVuSans-51"/>
      <use x="975.341797" xlink:href="#DejaVuSans-68"/>
      <use x="1052.34375" xlink:href="#DejaVuSans-32"/>
      <use x="1084.130859" xlink:href="#DejaVuSans-104"/>
      <use x="1147.509766" xlink:href="#DejaVuSans-105"/>
      <use x="1175.292969" xlink:href="#DejaVuSans-115"/>
      <use x="1227.392578" xlink:href="#DejaVuSans-116"/>
      <use x="1266.601562" xlink:href="#DejaVuSans-111"/>
      <use x="1327.783203" xlink:href="#DejaVuSans-103"/>
      <use x="1391.259766" xlink:href="#DejaVuSans-114"/>
      <use x="1432.373047" xlink:href="#DejaVuSans-97"/>
      <use x="1493.652344" xlink:href="#DejaVuSans-109"/>
     </g>
    </g>
   </g>
   <g id="matplotlib.axis_2">
    <g id="ytick_1">
     <g id="line2d_46">
      <defs>
       <path d="M 0 0 
L -3.5 0 
" id="m1f532ddc4a" style="stroke:#000000;stroke-width:0.8;"/>
      </defs>
      <g>
       <use style="stroke:#000000;stroke-width:0.8;" x="64.830082" xlink:href="#m1f532ddc4a" y="322.894363"/>
      </g>
     </g>
     <g id="text_7">
      <!-- $\mathdefault{10^{3}}$ -->
      <g transform="translate(33.190082 328.213269)scale(0.14 -0.14)">
       <use transform="translate(0 0.765625)" xlink:href="#DejaVuSans-49"/>
       <use transform="translate(63.623047 0.765625)" xlink:href="#DejaVuSans-48"/>
       <use transform="translate(128.203125 39.046875)scale(0.7)" xlink:href="#DejaVuSans-51"/>
      </g>
     </g>
    </g>
    <g id="ytick_2">
     <g id="line2d_47">
      <g>
       <use style="stroke:#000000;stroke-width:0.8;" x="64.830082" xlink:href="#m1f532ddc4a" y="258.381502"/>
      </g>
     </g>
     <g id="text_8">
      <!-- $\mathdefault{10^{4}}$ -->
      <g transform="translate(33.190082 263.700408)scale(0.14 -0.14)">
       <use transform="translate(0 0.684375)" xlink:href="#DejaVuSans-49"/>
       <use transform="translate(63.623047 0.684375)" xlink:href="#DejaVuSans-48"/>
       <use transform="translate(128.203125 38.965625)scale(0.7)" xlink:href="#DejaVuSans-52"/>
      </g>
     </g>
    </g>
    <g id="ytick_3">
     <g id="line2d_48">
      <g>
       <use style="stroke:#000000;stroke-width:0.8;" x="64.830082" xlink:href="#m1f532ddc4a" y="193.86864"/>
      </g>
     </g>
     <g id="text_9">
      <!-- $\mathdefault{10^{5}}$ -->
      <g transform="translate(33.190082 199.187547)scale(0.14 -0.14)">
       <use transform="translate(0 0.684375)" xlink:href="#DejaVuSans-49"/>
       <use transform="translate(63.623047 0.684375)" xlink:href="#DejaVuSans-48"/>
       <use transform="translate(128.203125 38.965625)scale(0.7)" xlink:href="#DejaVuSans-53"/>
      </g>
     </g>
    </g>
    <g id="ytick_4">
     <g id="line2d_49">
      <g>
       <use style="stroke:#000000;stroke-width:0.8;" x="64.830082" xlink:href="#m1f532ddc4a" y="129.355779"/>
      </g>
     </g>
     <g id="text_10">
      <!-- $\mathdefault{10^{6}}$ -->
      <g transform="translate(33.190082 134.674685)scale(0.14 -0.14)">
       <use transform="translate(0 0.765625)" xlink:href="#DejaVuSans-49"/>
       <use transform="translate(63.623047 0.765625)" xlink:href="#DejaVuSans-48"/>
       <use transform="translate(128.203125 39.046875)scale(0.7)" xlink:href="#DejaVuSans-54"/>
      </g>
     </g>
    </g>
    <g id="ytick_5">
     <g id="line2d_50">
      <g>
       <use style="stroke:#000000;stroke-width:0.8;" x="64.830082" xlink:href="#m1f532ddc4a" y="64.842918"/>
      </g>
     </g>
     <g id="text_11">
      <!-- $\mathdefault{10^{7}}$ -->
      <defs>
       <path d="M 8.203125 72.90625 
L 55.078125 72.90625 
L 55.078125 68.703125 
L 28.609375 0 
L 18.3125 0 
L 43.21875 64.59375 
L 8.203125 64.59375 
z
" id="DejaVuSans-55"/>
      </defs>
      <g transform="translate(33.190082 70.161824)scale(0.14 -0.14)">
       <use transform="translate(0 0.684375)" xlink:href="#DejaVuSans-49"/>
       <use transform="translate(63.623047 0.684375)" xlink:href="#DejaVuSans-48"/>
       <use transform="translate(128.203125 38.965625)scale(0.7)" xlink:href="#DejaVuSans-55"/>
      </g>
     </g>
    </g>
    <g id="ytick_6">
     <g id="line2d_51">
      <defs>
       <path d="M 0 0 
L -2 0 
" id="me26c76fade" style="stroke:#000000;stroke-width:0.6;"/>
      </defs>
      <g>
       <use style="stroke:#000000;stroke-width:0.6;" x="64.830082" xlink:href="#me26c76fade" y="367.986918"/>
      </g>
     </g>
    </g>
    <g id="ytick_7">
     <g id="line2d_52">
      <g>
       <use style="stroke:#000000;stroke-width:0.6;" x="64.830082" xlink:href="#me26c76fade" y="356.626767"/>
      </g>
     </g>
    </g>
    <g id="ytick_8">
     <g id="line2d_53">
      <g>
       <use style="stroke:#000000;stroke-width:0.6;" x="64.830082" xlink:href="#me26c76fade" y="348.566612"/>
      </g>
     </g>
    </g>
    <g id="ytick_9">
     <g id="line2d_54">
      <g>
       <use style="stroke:#000000;stroke-width:0.6;" x="64.830082" xlink:href="#me26c76fade" y="342.314669"/>
      </g>
     </g>
    </g>
    <g id="ytick_10">
     <g id="line2d_55">
      <g>
       <use style="stroke:#000000;stroke-width:0.6;" x="64.830082" xlink:href="#me26c76fade" y="337.206461"/>
      </g>
     </g>
    </g>
    <g id="ytick_11">
     <g id="line2d_56">
      <g>
       <use style="stroke:#000000;stroke-width:0.6;" x="64.830082" xlink:href="#me26c76fade" y="332.887532"/>
      </g>
     </g>
    </g>
    <g id="ytick_12">
     <g id="line2d_57">
      <g>
       <use style="stroke:#000000;stroke-width:0.6;" x="64.830082" xlink:href="#me26c76fade" y="329.146305"/>
      </g>
     </g>
    </g>
    <g id="ytick_13">
     <g id="line2d_58">
      <g>
       <use style="stroke:#000000;stroke-width:0.6;" x="64.830082" xlink:href="#me26c76fade" y="325.84631"/>
      </g>
     </g>
    </g>
    <g id="ytick_14">
     <g id="line2d_59">
      <g>
       <use style="stroke:#000000;stroke-width:0.6;" x="64.830082" xlink:href="#me26c76fade" y="303.474057"/>
      </g>
     </g>
    </g>
    <g id="ytick_15">
     <g id="line2d_60">
      <g>
       <use style="stroke:#000000;stroke-width:0.6;" x="64.830082" xlink:href="#me26c76fade" y="292.113906"/>
      </g>
     </g>
    </g>
    <g id="ytick_16">
     <g id="line2d_61">
      <g>
       <use style="stroke:#000000;stroke-width:0.6;" x="64.830082" xlink:href="#me26c76fade" y="284.05375"/>
      </g>
     </g>
    </g>
    <g id="ytick_17">
     <g id="line2d_62">
      <g>
       <use style="stroke:#000000;stroke-width:0.6;" x="64.830082" xlink:href="#me26c76fade" y="277.801808"/>
      </g>
     </g>
    </g>
    <g id="ytick_18">
     <g id="line2d_63">
      <g>
       <use style="stroke:#000000;stroke-width:0.6;" x="64.830082" xlink:href="#me26c76fade" y="272.693599"/>
      </g>
     </g>
    </g>
    <g id="ytick_19">
     <g id="line2d_64">
      <g>
       <use style="stroke:#000000;stroke-width:0.6;" x="64.830082" xlink:href="#me26c76fade" y="268.37467"/>
      </g>
     </g>
    </g>
    <g id="ytick_20">
     <g id="line2d_65">
      <g>
       <use style="stroke:#000000;stroke-width:0.6;" x="64.830082" xlink:href="#me26c76fade" y="264.633444"/>
      </g>
     </g>
    </g>
    <g id="ytick_21">
     <g id="line2d_66">
      <g>
       <use style="stroke:#000000;stroke-width:0.6;" x="64.830082" xlink:href="#me26c76fade" y="261.333448"/>
      </g>
     </g>
    </g>
    <g id="ytick_22">
     <g id="line2d_67">
      <g>
       <use style="stroke:#000000;stroke-width:0.6;" x="64.830082" xlink:href="#me26c76fade" y="238.961195"/>
      </g>
     </g>
    </g>
    <g id="ytick_23">
     <g id="line2d_68">
      <g>
       <use style="stroke:#000000;stroke-width:0.6;" x="64.830082" xlink:href="#me26c76fade" y="227.601044"/>
      </g>
     </g>
    </g>
    <g id="ytick_24">
     <g id="line2d_69">
      <g>
       <use style="stroke:#000000;stroke-width:0.6;" x="64.830082" xlink:href="#me26c76fade" y="219.540889"/>
      </g>
     </g>
    </g>
    <g id="ytick_25">
     <g id="line2d_70">
      <g>
       <use style="stroke:#000000;stroke-width:0.6;" x="64.830082" xlink:href="#me26c76fade" y="213.288947"/>
      </g>
     </g>
    </g>
    <g id="ytick_26">
     <g id="line2d_71">
      <g>
       <use style="stroke:#000000;stroke-width:0.6;" x="64.830082" xlink:href="#me26c76fade" y="208.180738"/>
      </g>
     </g>
    </g>
    <g id="ytick_27">
     <g id="line2d_72">
      <g>
       <use style="stroke:#000000;stroke-width:0.6;" x="64.830082" xlink:href="#me26c76fade" y="203.861809"/>
      </g>
     </g>
    </g>
    <g id="ytick_28">
     <g id="line2d_73">
      <g>
       <use style="stroke:#000000;stroke-width:0.6;" x="64.830082" xlink:href="#me26c76fade" y="200.120583"/>
      </g>
     </g>
    </g>
    <g id="ytick_29">
     <g id="line2d_74">
      <g>
       <use style="stroke:#000000;stroke-width:0.6;" x="64.830082" xlink:href="#me26c76fade" y="196.820587"/>
      </g>
     </g>
    </g>
    <g id="ytick_30">
     <g id="line2d_75">
      <g>
       <use style="stroke:#000000;stroke-width:0.6;" x="64.830082" xlink:href="#me26c76fade" y="174.448334"/>
      </g>
     </g>
    </g>
    <g id="ytick_31">
     <g id="line2d_76">
      <g>
       <use style="stroke:#000000;stroke-width:0.6;" x="64.830082" xlink:href="#me26c76fade" y="163.088183"/>
      </g>
     </g>
    </g>
    <g id="ytick_32">
     <g id="line2d_77">
      <g>
       <use style="stroke:#000000;stroke-width:0.6;" x="64.830082" xlink:href="#me26c76fade" y="155.028028"/>
      </g>
     </g>
    </g>
    <g id="ytick_33">
     <g id="line2d_78">
      <g>
       <use style="stroke:#000000;stroke-width:0.6;" x="64.830082" xlink:href="#me26c76fade" y="148.776086"/>
      </g>
     </g>
    </g>
    <g id="ytick_34">
     <g id="line2d_79">
      <g>
       <use style="stroke:#000000;stroke-width:0.6;" x="64.830082" xlink:href="#me26c76fade" y="143.667877"/>
      </g>
     </g>
    </g>
    <g id="ytick_35">
     <g id="line2d_80">
      <g>
       <use style="stroke:#000000;stroke-width:0.6;" x="64.830082" xlink:href="#me26c76fade" y="139.348948"/>
      </g>
     </g>
    </g>
    <g id="ytick_36">
     <g id="line2d_81">
      <g>
       <use style="stroke:#000000;stroke-width:0.6;" x="64.830082" xlink:href="#me26c76fade" y="135.607721"/>
      </g>
     </g>
    </g>
    <g id="ytick_37">
     <g id="line2d_82">
      <g>
       <use style="stroke:#000000;stroke-width:0.6;" x="64.830082" xlink:href="#me26c76fade" y="132.307726"/>
      </g>
     </g>
    </g>
    <g id="ytick_38">
     <g id="line2d_83">
      <g>
       <use style="stroke:#000000;stroke-width:0.6;" x="64.830082" xlink:href="#me26c76fade" y="109.935473"/>
      </g>
     </g>
    </g>
    <g id="ytick_39">
     <g id="line2d_84">
      <g>
       <use style="stroke:#000000;stroke-width:0.6;" x="64.830082" xlink:href="#me26c76fade" y="98.575322"/>
      </g>
     </g>
    </g>
    <g id="ytick_40">
     <g id="line2d_85">
      <g>
       <use style="stroke:#000000;stroke-width:0.6;" x="64.830082" xlink:href="#me26c76fade" y="90.515166"/>
      </g>
     </g>
    </g>
    <g id="ytick_41">
     <g id="line2d_86">
      <g>
       <use style="stroke:#000000;stroke-width:0.6;" x="64.830082" xlink:href="#me26c76fade" y="84.263224"/>
      </g>
     </g>
    </g>
    <g id="ytick_42">
     <g id="line2d_87">
      <g>
       <use style="stroke:#000000;stroke-width:0.6;" x="64.830082" xlink:href="#me26c76fade" y="79.155015"/>
      </g>
     </g>
    </g>
    <g id="ytick_43">
     <g id="line2d_88">
      <g>
       <use style="stroke:#000000;stroke-width:0.6;" x="64.830082" xlink:href="#me26c76fade" y="74.836087"/>
      </g>
     </g>
    </g>
    <g id="ytick_44">
     <g id="line2d_89">
      <g>
       <use style="stroke:#000000;stroke-width:0.6;" x="64.830082" xlink:href="#me26c76fade" y="71.09486"/>
      </g>
     </g>
    </g>
    <g id="ytick_45">
     <g id="line2d_90">
      <g>
       <use style="stroke:#000000;stroke-width:0.6;" x="64.830082" xlink:href="#me26c76fade" y="67.794865"/>
      </g>
     </g>
    </g>
    <g id="ytick_46">
     <g id="line2d_91">
      <g>
       <use style="stroke:#000000;stroke-width:0.6;" x="64.830082" xlink:href="#me26c76fade" y="45.422612"/>
      </g>
     </g>
    </g>
    <g id="ytick_47">
     <g id="line2d_92">
      <g>
       <use style="stroke:#000000;stroke-width:0.6;" x="64.830082" xlink:href="#me26c76fade" y="34.062461"/>
      </g>
     </g>
    </g>
    <g id="ytick_48">
     <g id="line2d_93">
      <g>
       <use style="stroke:#000000;stroke-width:0.6;" x="64.830082" xlink:href="#me26c76fade" y="26.002305"/>
      </g>
     </g>
    </g>
    <g id="ytick_49">
     <g id="line2d_94">
      <g>
       <use style="stroke:#000000;stroke-width:0.6;" x="64.830082" xlink:href="#me26c76fade" y="19.750363"/>
      </g>
     </g>
    </g>
    <g id="text_12">
     <!-- CPU time (less is better) -->
     <defs>
      <path d="M 64.40625 67.28125 
L 64.40625 56.890625 
Q 59.421875 61.53125 53.78125 63.8125 
Q 48.140625 66.109375 41.796875 66.109375 
Q 29.296875 66.109375 22.65625 58.46875 
Q 16.015625 50.828125 16.015625 36.375 
Q 16.015625 21.96875 22.65625 14.328125 
Q 29.296875 6.6875 41.796875 6.6875 
Q 48.140625 6.6875 53.78125 8.984375 
Q 59.421875 11.28125 64.40625 15.921875 
L 64.40625 5.609375 
Q 59.234375 2.09375 53.4375 0.328125 
Q 47.65625 -1.421875 41.21875 -1.421875 
Q 24.65625 -1.421875 15.125 8.703125 
Q 5.609375 18.84375 5.609375 36.375 
Q 5.609375 53.953125 15.125 64.078125 
Q 24.65625 74.21875 41.21875 74.21875 
Q 47.75 74.21875 53.53125 72.484375 
Q 59.328125 70.75 64.40625 67.28125 
z
" id="DejaVuSans-67"/>
      <path d="M 19.671875 64.796875 
L 19.671875 37.40625 
L 32.078125 37.40625 
Q 38.96875 37.40625 42.71875 40.96875 
Q 46.484375 44.53125 46.484375 51.125 
Q 46.484375 57.671875 42.71875 61.234375 
Q 38.96875 64.796875 32.078125 64.796875 
z
M 9.8125 72.90625 
L 32.078125 72.90625 
Q 44.34375 72.90625 50.609375 67.359375 
Q 56.890625 61.8125 56.890625 51.125 
Q 56.890625 40.328125 50.609375 34.8125 
Q 44.34375 29.296875 32.078125 29.296875 
L 19.671875 29.296875 
L 19.671875 0 
L 9.8125 0 
z
" id="DejaVuSans-80"/>
      <path d="M 8.6875 72.90625 
L 18.609375 72.90625 
L 18.609375 28.609375 
Q 18.609375 16.890625 22.84375 11.734375 
Q 27.09375 6.59375 36.625 6.59375 
Q 46.09375 6.59375 50.34375 11.734375 
Q 54.59375 16.890625 54.59375 28.609375 
L 54.59375 72.90625 
L 64.5 72.90625 
L 64.5 27.390625 
Q 64.5 13.140625 57.4375 5.859375 
Q 50.390625 -1.421875 36.625 -1.421875 
Q 22.796875 -1.421875 15.734375 5.859375 
Q 8.6875 13.140625 8.6875 27.390625 
z
" id="DejaVuSans-85"/>
      <path d="M 31 75.875 
Q 24.46875 64.65625 21.28125 53.65625 
Q 18.109375 42.671875 18.109375 31.390625 
Q 18.109375 20.125 21.3125 9.0625 
Q 24.515625 -2 31 -13.1875 
L 23.1875 -13.1875 
Q 15.875 -1.703125 12.234375 9.375 
Q 8.59375 20.453125 8.59375 31.390625 
Q 8.59375 42.28125 12.203125 53.3125 
Q 15.828125 64.359375 23.1875 75.875 
z
" id="DejaVuSans-40"/>
      <path d="M 9.421875 75.984375 
L 18.40625 75.984375 
L 18.40625 0 
L 9.421875 0 
z
" id="DejaVuSans-108"/>
      <path d="M 8.015625 75.875 
L 15.828125 75.875 
Q 23.140625 64.359375 26.78125 53.3125 
Q 30.421875 42.28125 30.421875 31.390625 
Q 30.421875 20.453125 26.78125 9.375 
Q 23.140625 -1.703125 15.828125 -13.1875 
L 8.015625 -13.1875 
Q 14.5 -2 17.703125 9.0625 
Q 20.90625 20.125 20.90625 31.390625 
Q 20.90625 42.671875 17.703125 53.65625 
Q 14.5 64.65625 8.015625 75.875 
z
" id="DejaVuSans-41"/>
     </defs>
     <g transform="translate(26.278519 282.003969)rotate(-90)scale(0.14 -0.14)">
      <use xlink:href="#DejaVuSans-67"/>
      <use x="69.824219" xlink:href="#DejaVuSans-80"/>
      <use x="130.126953" xlink:href="#DejaVuSans-85"/>
      <use x="203.320312" xlink:href="#DejaVuSans-32"/>
      <use x="235.107422" xlink:href="#DejaVuSans-116"/>
      <use x="274.316406" xlink:href="#DejaVuSans-105"/>
      <use x="302.099609" xlink:href="#DejaVuSans-109"/>
      <use x="399.511719" xlink:href="#DejaVuSans-101"/>
      <use x="461.035156" xlink:href="#DejaVuSans-32"/>
      <use x="492.822266" xlink:href="#DejaVuSans-40"/>
      <use x="531.835938" xlink:href="#DejaVuSans-108"/>
      <use x="559.619141" xlink:href="#DejaVuSans-101"/>
      <use x="621.142578" xlink:href="#DejaVuSans-115"/>
      <use x="673.242188" xlink:href="#DejaVuSans-115"/>
      <use x="725.341797" xlink:href="#DejaVuSans-32"/>
      <use x="757.128906" xlink:href="#DejaVuSans-105"/>
      <use x="784.912109" xlink:href="#DejaVuSans-115"/>
      <use x="837.011719" xlink:href="#DejaVuSans-32"/>
      <use x="868.798828" xlink:href="#DejaVuSans-98"/>
      <use x="932.275391" xlink:href="#DejaVuSans-101"/>
      <use x="993.798828" xlink:href="#DejaVuSans-116"/>
      <use x="1033.007812" xlink:href="#DejaVuSans-116"/>
      <use x="1072.216797" xlink:href="#DejaVuSans-101"/>
      <use x="1133.740234" xlink:href="#DejaVuSans-114"/>
      <use x="1174.853516" xlink:href="#DejaVuSans-41"/>
     </g>
    </g>
   </g>
   <g id="line2d_95">
    <path clip-path="url(#p5b540a08c2)" d="M 83.990533 332.289875 
L 160.632336 290.453756 
L 237.274139 241.397496 
L 313.915943 186.82738 
L 390.557746 131.734675 
L 467.199549 75.271639 
" style="fill:none;stroke:#ff0000;stroke-linecap:square;stroke-width:1.5;"/>
   </g>
   <g id="line2d_96">
    <path clip-path="url(#p5b540a08c2)" d="M 83.990533 335.802337 
L 160.632336 293.011182 
L 237.274139 244.807046 
L 313.915943 190.094095 
L 390.557746 135.259706 
L 467.199549 78.656096 
" style="fill:none;stroke:#1f77b4;stroke-linecap:square;stroke-width:1.5;"/>
   </g>
   <g id="line2d_97">
    <path clip-path="url(#p5b540a08c2)" d="M 83.990533 356.454678 
L 160.632336 317.291163 
L 237.274139 267.070639 
L 313.915943 210.262419 
L 390.557746 142.555425 
L 467.199549 86.642904 
" style="fill:none;stroke:#000000;stroke-linecap:square;stroke-width:3;"/>
   </g>
   <g id="line2d_98">
    <path clip-path="url(#p5b540a08c2)" d="M 83.990533 324.151657 
L 160.632336 281.93349 
L 237.274139 233.534821 
L 313.915943 179.004536 
L 390.557746 125.327965 
L 467.199549 69.301372 
" style="fill:none;stroke:#ff0000;stroke-dasharray:5.55,2.4;stroke-dashoffset:0;stroke-width:1.5;"/>
   </g>
   <g id="line2d_99">
    <path clip-path="url(#p5b540a08c2)" d="M 83.990533 329.978088 
L 160.632336 287.32114 
L 237.274139 238.839411 
L 313.915943 184.285552 
L 390.557746 129.030798 
L 467.199549 72.543208 
" style="fill:none;stroke:#1f77b4;stroke-dasharray:5.55,2.4;stroke-dashoffset:0;stroke-width:1.5;"/>
   </g>
   <g id="line2d_100">
    <path clip-path="url(#p5b540a08c2)" d="M 83.990533 360.123273 
L 160.632336 319.357652 
L 237.274139 266.957449 
L 313.915943 210.193013 
L 390.557746 142.070633 
L 467.199549 86.267059 
" style="fill:none;stroke:#000000;stroke-dasharray:11.1,4.8;stroke-dashoffset:0;stroke-width:3;"/>
   </g>
   <g id="line2d_101">
    <path clip-path="url(#p5b540a08c2)" d="M 83.990533 291.296226 
L 160.632336 249.613196 
L 237.274139 199.182676 
L 313.915943 146.532039 
L 390.557746 91.110633 
L 467.199549 33.948727 
" style="fill:none;stroke:#ff0000;stroke-dasharray:1.5,2.475;stroke-dashoffset:0;stroke-width:1.5;"/>
   </g>
   <g id="line2d_102">
    <path clip-path="url(#p5b540a08c2)" d="M 83.990533 292.683235 
L 160.632336 250.48291 
L 237.274139 200.45848 
L 313.915943 147.55918 
L 390.557746 92.379039 
L 467.199549 35.474335 
" style="fill:none;stroke:#1f77b4;stroke-dasharray:1.5,2.475;stroke-dashoffset:0;stroke-width:1.5;"/>
   </g>
   <g id="line2d_103">
    <path clip-path="url(#p5b540a08c2)" d="M 83.990533 360.060952 
L 160.632336 319.417745 
L 237.274139 267.130168 
L 313.915943 210.355823 
L 390.557746 142.590491 
L 467.199549 86.627519 
" style="fill:none;stroke:#000000;stroke-dasharray:3,4.95;stroke-dashoffset:0;stroke-width:3;"/>
   </g>
   <g id="patch_3">
    <path d="M 64.830082 376.432 
L 64.830082 17.64 
" style="fill:none;stroke:#000000;stroke-linecap:square;stroke-linejoin:miter;stroke-width:0.8;"/>
   </g>
   <g id="patch_4">
    <path d="M 486.36 376.432 
L 486.36 17.64 
" style="fill:none;stroke:#000000;stroke-linecap:square;stroke-linejoin:miter;stroke-width:0.8;"/>
   </g>
   <g id="patch_5">
    <path d="M 64.830082 376.432 
L 486.36 376.432 
" style="fill:none;stroke:#000000;stroke-linecap:square;stroke-linejoin:miter;stroke-width:0.8;"/>
   </g>
   <g id="patch_6">
    <path d="M 64.830082 17.64 
L 486.36 17.64 
" style="fill:none;stroke:#000000;stroke-linecap:square;stroke-linejoin:miter;stroke-width:0.8;"/>
   </g>
   <g id="legend_1">
    <g id="line2d_104">
     <path d="M 72.125482 28.25886 
L 88.337482 28.25886 
" style="fill:none;stroke:#000000;stroke-linecap:square;stroke-width:3;"/>
    </g>
    <g id="line2d_105"/>
    <g id="text_13">
     <!-- indexed: ${\mathit{axes}}$ = tuple -->
     <defs>
      <path d="M 45.40625 46.390625 
L 45.40625 75.984375 
L 54.390625 75.984375 
L 54.390625 0 
L 45.40625 0 
L 45.40625 8.203125 
Q 42.578125 3.328125 38.25 0.953125 
Q 33.9375 -1.421875 27.875 -1.421875 
Q 17.96875 -1.421875 11.734375 6.484375 
Q 5.515625 14.40625 5.515625 27.296875 
Q 5.515625 40.1875 11.734375 48.09375 
Q 17.96875 56 27.875 56 
Q 33.9375 56 38.25 53.625 
Q 42.578125 51.265625 45.40625 46.390625 
z
M 14.796875 27.296875 
Q 14.796875 17.390625 18.875 11.75 
Q 22.953125 6.109375 30.078125 6.109375 
Q 37.203125 6.109375 41.296875 11.75 
Q 45.40625 17.390625 45.40625 27.296875 
Q 45.40625 37.203125 41.296875 42.84375 
Q 37.203125 48.484375 30.078125 48.484375 
Q 22.953125 48.484375 18.875 42.84375 
Q 14.796875 37.203125 14.796875 27.296875 
z
" id="DejaVuSans-100"/>
      <path d="M 54.890625 54.6875 
L 35.109375 28.078125 
L 55.90625 0 
L 45.3125 0 
L 29.390625 21.484375 
L 13.484375 0 
L 2.875 0 
L 24.125 28.609375 
L 4.6875 54.6875 
L 15.28125 54.6875 
L 29.78125 35.203125 
L 44.28125 54.6875 
z
" id="DejaVuSans-120"/>
      <path d="M 11.71875 12.40625 
L 22.015625 12.40625 
L 22.015625 0 
L 11.71875 0 
z
M 11.71875 51.703125 
L 22.015625 51.703125 
L 22.015625 39.3125 
L 11.71875 39.3125 
z
" id="DejaVuSans-58"/>
      <path d="M 53.71875 31.203125 
L 47.609375 0 
L 38.625 0 
L 40.28125 8.296875 
Q 36.328125 3.421875 31.265625 1 
Q 26.21875 -1.421875 20.015625 -1.421875 
Q 13.03125 -1.421875 8.5625 2.84375 
Q 4.109375 7.125 4.109375 13.8125 
Q 4.109375 23.390625 11.75 28.953125 
Q 19.390625 34.515625 32.8125 34.515625 
L 45.3125 34.515625 
L 45.796875 36.921875 
Q 45.90625 37.3125 45.953125 37.765625 
Q 46 38.234375 46 39.203125 
Q 46 43.5625 42.453125 45.96875 
Q 38.921875 48.390625 32.515625 48.390625 
Q 28.125 48.390625 23.5 47.265625 
Q 18.890625 46.140625 14.015625 43.890625 
L 15.578125 52.203125 
Q 20.65625 54.109375 25.515625 55.046875 
Q 30.375 56 34.90625 56 
Q 44.578125 56 49.625 51.796875 
Q 54.6875 47.609375 54.6875 39.59375 
Q 54.6875 37.984375 54.4375 35.8125 
Q 54.203125 33.640625 53.71875 31.203125 
z
M 44 27.484375 
L 35.015625 27.484375 
Q 23.96875 27.484375 18.671875 24.53125 
Q 13.375 21.578125 13.375 15.375 
Q 13.375 11.078125 16.078125 8.640625 
Q 18.796875 6.203125 23.578125 6.203125 
Q 30.90625 6.203125 36.375 11.453125 
Q 41.84375 16.703125 43.609375 25.484375 
z
" id="DejaVuSans-Oblique-97"/>
      <path d="M 60.015625 54.6875 
L 34.90625 27.875 
L 50.296875 0 
L 39.984375 0 
L 28.421875 21.6875 
L 8.296875 0 
L -2.59375 0 
L 24.3125 28.8125 
L 10.015625 54.6875 
L 20.3125 54.6875 
L 30.8125 34.90625 
L 49.125 54.6875 
z
" id="DejaVuSans-Oblique-120"/>
      <path d="M 48.09375 32.234375 
Q 48.25 33.015625 48.3125 33.84375 
Q 48.390625 34.671875 48.390625 35.5 
Q 48.390625 41.453125 44.890625 44.921875 
Q 41.40625 48.390625 35.40625 48.390625 
Q 28.71875 48.390625 23.578125 44.15625 
Q 18.453125 39.9375 15.828125 32.171875 
z
M 55.90625 25.203125 
L 14.109375 25.203125 
Q 13.8125 23.34375 13.71875 22.265625 
Q 13.625 21.1875 13.625 20.40625 
Q 13.625 13.625 17.796875 9.90625 
Q 21.96875 6.203125 29.59375 6.203125 
Q 35.453125 6.203125 40.671875 7.515625 
Q 45.90625 8.84375 50.390625 11.375 
L 48.6875 2.484375 
Q 43.84375 0.53125 38.6875 -0.4375 
Q 33.546875 -1.421875 28.21875 -1.421875 
Q 16.84375 -1.421875 10.71875 4.015625 
Q 4.59375 9.46875 4.59375 19.484375 
Q 4.59375 28.03125 7.640625 35.375 
Q 10.6875 42.71875 16.609375 48.484375 
Q 20.40625 52.09375 25.65625 54.046875 
Q 30.90625 56 36.8125 56 
Q 46.09375 56 51.578125 50.4375 
Q 57.078125 44.875 57.078125 35.5 
Q 57.078125 33.25 56.78125 30.6875 
Q 56.5 28.125 55.90625 25.203125 
z
" id="DejaVuSans-Oblique-101"/>
      <path d="M 50 53.078125 
L 48.296875 44.578125 
Q 44.734375 46.53125 40.765625 47.5 
Q 36.8125 48.484375 32.625 48.484375 
Q 25.53125 48.484375 21.453125 46.0625 
Q 17.390625 43.65625 17.390625 39.5 
Q 17.390625 34.671875 26.859375 32.078125 
Q 27.59375 31.890625 27.9375 31.78125 
L 30.8125 30.90625 
Q 39.796875 28.421875 42.796875 25.6875 
Q 45.796875 22.953125 45.796875 18.21875 
Q 45.796875 9.515625 38.890625 4.046875 
Q 31.984375 -1.421875 20.796875 -1.421875 
Q 16.453125 -1.421875 11.671875 -0.578125 
Q 6.890625 0.25 1.125 2 
L 2.875 11.28125 
Q 7.8125 8.734375 12.59375 7.421875 
Q 17.390625 6.109375 21.78125 6.109375 
Q 28.375 6.109375 32.5 8.9375 
Q 36.625 11.765625 36.625 16.109375 
Q 36.625 20.796875 25.78125 23.6875 
L 24.859375 23.921875 
L 21.78125 24.703125 
Q 14.9375 26.515625 11.765625 29.46875 
Q 8.59375 32.421875 8.59375 37.015625 
Q 8.59375 45.75 15.15625 50.875 
Q 21.734375 56 33.015625 56 
Q 37.453125 56 41.671875 55.265625 
Q 45.90625 54.546875 50 53.078125 
z
" id="DejaVuSans-Oblique-115"/>
      <path d="M 10.59375 45.40625 
L 73.1875 45.40625 
L 73.1875 37.203125 
L 10.59375 37.203125 
z
M 10.59375 25.484375 
L 73.1875 25.484375 
L 73.1875 17.1875 
L 10.59375 17.1875 
z
" id="DejaVuSans-61"/>
      <path d="M 18.109375 8.203125 
L 18.109375 -20.796875 
L 9.078125 -20.796875 
L 9.078125 54.6875 
L 18.109375 54.6875 
L 18.109375 46.390625 
Q 20.953125 51.265625 25.265625 53.625 
Q 29.59375 56 35.59375 56 
Q 45.5625 56 51.78125 48.09375 
Q 58.015625 40.1875 58.015625 27.296875 
Q 58.015625 14.40625 51.78125 6.484375 
Q 45.5625 -1.421875 35.59375 -1.421875 
Q 29.59375 -1.421875 25.265625 0.953125 
Q 20.953125 3.328125 18.109375 8.203125 
z
M 48.6875 27.296875 
Q 48.6875 37.203125 44.609375 42.84375 
Q 40.53125 48.484375 33.40625 48.484375 
Q 26.265625 48.484375 22.1875 42.84375 
Q 18.109375 37.203125 18.109375 27.296875 
Q 18.109375 17.390625 22.1875 11.75 
Q 26.265625 6.109375 33.40625 6.109375 
Q 40.53125 6.109375 44.609375 11.75 
Q 48.6875 17.390625 48.6875 27.296875 
z
" id="DejaVuSans-112"/>
     </defs>
     <g transform="translate(94.822282 31.09596)scale(0.08106 -0.08106)">
      <use transform="translate(0 0.015625)" xlink:href="#DejaVuSans-105"/>
      <use transform="translate(27.783203 0.015625)" xlink:href="#DejaVuSans-110"/>
      <use transform="translate(91.162109 0.015625)" xlink:href="#DejaVuSans-100"/>
      <use transform="translate(154.638672 0.015625)" xlink:href="#DejaVuSans-101"/>
      <use transform="translate(216.162109 0.015625)" xlink:href="#DejaVuSans-120"/>
      <use transform="translate(275.341797 0.015625)" xlink:href="#DejaVuSans-101"/>
      <use transform="translate(336.865234 0.015625)" xlink:href="#DejaVuSans-100"/>
      <use transform="translate(400.341797 0.015625)" xlink:href="#DejaVuSans-58"/>
      <use transform="translate(434.033203 0.015625)" xlink:href="#DejaVuSans-32"/>
      <use transform="translate(465.820312 0.015625)" xlink:href="#DejaVuSans-Oblique-97"/>
      <use transform="translate(527.099609 0.015625)" xlink:href="#DejaVuSans-Oblique-120"/>
      <use transform="translate(586.279297 0.015625)" xlink:href="#DejaVuSans-Oblique-101"/>
      <use transform="translate(647.802734 0.015625)" xlink:href="#DejaVuSans-Oblique-115"/>
      <use transform="translate(699.902344 0.015625)" xlink:href="#DejaVuSans-32"/>
      <use transform="translate(731.689453 0.015625)" xlink:href="#DejaVuSans-61"/>
      <use transform="translate(815.478516 0.015625)" xlink:href="#DejaVuSans-32"/>
      <use transform="translate(847.265625 0.015625)" xlink:href="#DejaVuSans-116"/>
      <use transform="translate(886.474609 0.015625)" xlink:href="#DejaVuSans-117"/>
      <use transform="translate(949.853516 0.015625)" xlink:href="#DejaVuSans-112"/>
      <use transform="translate(1013.330078 0.015625)" xlink:href="#DejaVuSans-108"/>
      <use transform="translate(1041.113281 0.015625)" xlink:href="#DejaVuSans-101"/>
     </g>
    </g>
    <g id="line2d_106">
     <path d="M 72.125482 40.173413 
L 88.337482 40.173413 
" style="fill:none;stroke:#000000;stroke-dasharray:11.1,4.8;stroke-dashoffset:0;stroke-width:3;"/>
    </g>
    <g id="line2d_107"/>
    <g id="text_14">
     <!-- indexed: ${\mathit{axes}}$ = vector -->
     <defs>
      <path d="M 2.984375 54.6875 
L 12.5 54.6875 
L 29.59375 8.796875 
L 46.6875 54.6875 
L 56.203125 54.6875 
L 35.6875 0 
L 23.484375 0 
z
" id="DejaVuSans-118"/>
      <path d="M 48.78125 52.59375 
L 48.78125 44.1875 
Q 44.96875 46.296875 41.140625 47.34375 
Q 37.3125 48.390625 33.40625 48.390625 
Q 24.65625 48.390625 19.8125 42.84375 
Q 14.984375 37.3125 14.984375 27.296875 
Q 14.984375 17.28125 19.8125 11.734375 
Q 24.65625 6.203125 33.40625 6.203125 
Q 37.3125 6.203125 41.140625 7.25 
Q 44.96875 8.296875 48.78125 10.40625 
L 48.78125 2.09375 
Q 45.015625 0.34375 40.984375 -0.53125 
Q 36.96875 -1.421875 32.421875 -1.421875 
Q 20.0625 -1.421875 12.78125 6.34375 
Q 5.515625 14.109375 5.515625 27.296875 
Q 5.515625 40.671875 12.859375 48.328125 
Q 20.21875 56 33.015625 56 
Q 37.15625 56 41.109375 55.140625 
Q 45.0625 54.296875 48.78125 52.59375 
z
" id="DejaVuSans-99"/>
     </defs>
     <g transform="translate(94.822282 43.010513)scale(0.08106 -0.08106)">
      <use transform="translate(0 0.015625)" xlink:href="#DejaVuSans-105"/>
      <use transform="translate(27.783203 0.015625)" xlink:href="#DejaVuSans-110"/>
      <use transform="translate(91.162109 0.015625)" xlink:href="#DejaVuSans-100"/>
      <use transform="translate(154.638672 0.015625)" xlink:href="#DejaVuSans-101"/>
      <use transform="translate(216.162109 0.015625)" xlink:href="#DejaVuSans-120"/>
      <use transform="translate(275.341797 0.015625)" xlink:href="#DejaVuSans-101"/>
      <use transform="translate(336.865234 0.015625)" xlink:href="#DejaVuSans-100"/>
      <use transform="translate(400.341797 0.015625)" xlink:href="#DejaVuSans-58"/>
      <use transform="translate(434.033203 0.015625)" xlink:href="#DejaVuSans-32"/>
      <use transform="translate(465.820312 0.015625)" xlink:href="#DejaVuSans-Oblique-97"/>
      <use transform="translate(527.099609 0.015625)" xlink:href="#DejaVuSans-Oblique-120"/>
      <use transform="translate(586.279297 0.015625)" xlink:href="#DejaVuSans-Oblique-101"/>
      <use transform="translate(647.802734 0.015625)" xlink:href="#DejaVuSans-Oblique-115"/>
      <use transform="translate(699.902344 0.015625)" xlink:href="#DejaVuSans-32"/>
      <use transform="translate(731.689453 0.015625)" xlink:href="#DejaVuSans-61"/>
      <use transform="translate(815.478516 0.015625)" xlink:href="#DejaVuSans-32"/>
      <use transform="translate(847.265625 0.015625)" xlink:href="#DejaVuSans-118"/>
      <use transform="translate(906.445312 0.015625)" xlink:href="#DejaVuSans-101"/>
      <use transform="translate(967.96875 0.015625)" xlink:href="#DejaVuSans-99"/>
      <use transform="translate(1022.949219 0.015625)" xlink:href="#DejaVuSans-116"/>
      <use transform="translate(1062.158203 0.015625)" xlink:href="#DejaVuSans-111"/>
      <use transform="translate(1123.339844 0.015625)" xlink:href="#DejaVuSans-114"/>
     </g>
    </g>
    <g id="line2d_108">
     <path d="M 72.125482 52.071502 
L 88.337482 52.071502 
" style="fill:none;stroke:#000000;stroke-dasharray:3,4.95;stroke-dashoffset:0;stroke-width:3;"/>
    </g>
    <g id="line2d_109"/>
    <g id="text_15">
     <!-- indexed: ${\mathit{axes}}$ = vector of variant -->
     <g transform="translate(94.822282 54.908602)scale(0.08106 -0.08106)">
      <use transform="translate(0 0.015625)" xlink:href="#DejaVuSans-105"/>
      <use transform="translate(27.783203 0.015625)" xlink:href="#DejaVuSans-110"/>
      <use transform="translate(91.162109 0.015625)" xlink:href="#DejaVuSans-100"/>
      <use transform="translate(154.638672 0.015625)" xlink:href="#DejaVuSans-101"/>
      <use transform="translate(216.162109 0.015625)" xlink:href="#DejaVuSans-120"/>
      <use transform="translate(275.341797 0.015625)" xlink:href="#DejaVuSans-101"/>
      <use transform="translate(336.865234 0.015625)" xlink:href="#DejaVuSans-100"/>
      <use transform="translate(400.341797 0.015625)" xlink:href="#DejaVuSans-58"/>
      <use transform="translate(434.033203 0.015625)" xlink:href="#DejaVuSans-32"/>
      <use transform="translate(465.820312 0.015625)" xlink:href="#DejaVuSans-Oblique-97"/>
      <use transform="translate(527.099609 0.015625)" xlink:href="#DejaVuSans-Oblique-120"/>
      <use transform="translate(586.279297 0.015625)" xlink:href="#DejaVuSans-Oblique-101"/>
      <use transform="translate(647.802734 0.015625)" xlink:href="#DejaVuSans-Oblique-115"/>
      <use transform="translate(699.902344 0.015625)" xlink:href="#DejaVuSans-32"/>
      <use transform="translate(731.689453 0.015625)" xlink:href="#DejaVuSans-61"/>
      <use transform="translate(815.478516 0.015625)" xlink:href="#DejaVuSans-32"/>
      <use transform="translate(847.265625 0.015625)" xlink:href="#DejaVuSans-118"/>
      <use transform="translate(906.445312 0.015625)" xlink:href="#DejaVuSans-101"/>
      <use transform="translate(967.96875 0.015625)" xlink:href="#DejaVuSans-99"/>
      <use transform="translate(1022.949219 0.015625)" xlink:href="#DejaVuSans-116"/>
      <use transform="translate(1062.158203 0.015625)" xlink:href="#DejaVuSans-111"/>
      <use transform="translate(1123.339844 0.015625)" xlink:href="#DejaVuSans-114"/>
      <use transform="translate(1164.453125 0.015625)" xlink:href="#DejaVuSans-32"/>
      <use transform="translate(1196.240234 0.015625)" xlink:href="#DejaVuSans-111"/>
      <use transform="translate(1257.421875 0.015625)" xlink:href="#DejaVuSans-102"/>
      <use transform="translate(1292.626953 0.015625)" xlink:href="#DejaVuSans-32"/>
      <use transform="translate(1324.414062 0.015625)" xlink:href="#DejaVuSans-118"/>
      <use transform="translate(1383.59375 0.015625)" xlink:href="#DejaVuSans-97"/>
      <use transform="translate(1444.873047 0.015625)" xlink:href="#DejaVuSans-114"/>
      <use transform="translate(1485.986328 0.015625)" xlink:href="#DejaVuSans-105"/>
      <use transform="translate(1513.769531 0.015625)" xlink:href="#DejaVuSans-97"/>
      <use transform="translate(1575.048828 0.015625)" xlink:href="#DejaVuSans-110"/>
      <use transform="translate(1638.427734 0.015625)" xlink:href="#DejaVuSans-116"/>
     </g>
    </g>
    <g id="line2d_110">
     <path d="M 72.125482 63.970856 
L 88.337482 63.970856 
" style="fill:none;stroke:#ff0000;stroke-linecap:square;stroke-width:1.5;"/>
    </g>
    <g id="line2d_111"/>
    <g id="text_16">
     <!-- nested for (naive): ${\mathit{axes}}$ = tuple -->
     <g transform="translate(94.822282 66.807956)scale(0.08106 -0.08106)">
      <use transform="translate(0 0.015625)" xlink:href="#DejaVuSans-110"/>
      <use transform="translate(63.378906 0.015625)" xlink:href="#DejaVuSans-101"/>
      <use transform="translate(124.902344 0.015625)" xlink:href="#DejaVuSans-115"/>
      <use transform="translate(177.001953 0.015625)" xlink:href="#DejaVuSans-116"/>
      <use transform="translate(216.210938 0.015625)" xlink:href="#DejaVuSans-101"/>
      <use transform="translate(277.734375 0.015625)" xlink:href="#DejaVuSans-100"/>
      <use transform="translate(341.210938 0.015625)" xlink:href="#DejaVuSans-32"/>
      <use transform="translate(372.998047 0.015625)" xlink:href="#DejaVuSans-102"/>
      <use transform="translate(408.203125 0.015625)" xlink:href="#DejaVuSans-111"/>
      <use transform="translate(469.384766 0.015625)" xlink:href="#DejaVuSans-114"/>
      <use transform="translate(510.498047 0.015625)" xlink:href="#DejaVuSans-32"/>
      <use transform="translate(542.285156 0.015625)" xlink:href="#DejaVuSans-40"/>
      <use transform="translate(581.298828 0.015625)" xlink:href="#DejaVuSans-110"/>
      <use transform="translate(644.677734 0.015625)" xlink:href="#DejaVuSans-97"/>
      <use transform="translate(705.957031 0.015625)" xlink:href="#DejaVuSans-105"/>
      <use transform="translate(733.740234 0.015625)" xlink:href="#DejaVuSans-118"/>
      <use transform="translate(792.919922 0.015625)" xlink:href="#DejaVuSans-101"/>
      <use transform="translate(854.443359 0.015625)" xlink:href="#DejaVuSans-41"/>
      <use transform="translate(893.457031 0.015625)" xlink:href="#DejaVuSans-58"/>
      <use transform="translate(927.148438 0.015625)" xlink:href="#DejaVuSans-32"/>
      <use transform="translate(958.935547 0.015625)" xlink:href="#DejaVuSans-Oblique-97"/>
      <use transform="translate(1020.214844 0.015625)" xlink:href="#DejaVuSans-Oblique-120"/>
      <use transform="translate(1079.394531 0.015625)" xlink:href="#DejaVuSans-Oblique-101"/>
      <use transform="translate(1140.917969 0.015625)" xlink:href="#DejaVuSans-Oblique-115"/>
      <use transform="translate(1193.017578 0.015625)" xlink:href="#DejaVuSans-32"/>
      <use transform="translate(1224.804688 0.015625)" xlink:href="#DejaVuSans-61"/>
      <use transform="translate(1308.59375 0.015625)" xlink:href="#DejaVuSans-32"/>
      <use transform="translate(1340.380859 0.015625)" xlink:href="#DejaVuSans-116"/>
      <use transform="translate(1379.589844 0.015625)" xlink:href="#DejaVuSans-117"/>
      <use transform="translate(1442.96875 0.015625)" xlink:href="#DejaVuSans-112"/>
      <use transform="translate(1506.445312 0.015625)" xlink:href="#DejaVuSans-108"/>
      <use transform="translate(1534.228516 0.015625)" xlink:href="#DejaVuSans-101"/>
     </g>
    </g>
    <g id="line2d_112">
     <path d="M 72.125482 75.88541 
L 88.337482 75.88541 
" style="fill:none;stroke:#ff0000;stroke-dasharray:5.55,2.4;stroke-dashoffset:0;stroke-width:1.5;"/>
    </g>
    <g id="line2d_113"/>
    <g id="text_17">
     <!-- nested for (naive): ${\mathit{axes}}$ = vector -->
     <g transform="translate(94.822282 78.72251)scale(0.08106 -0.08106)">
      <use transform="translate(0 0.015625)" xlink:href="#DejaVuSans-110"/>
      <use transform="translate(63.378906 0.015625)" xlink:href="#DejaVuSans-101"/>
      <use transform="translate(124.902344 0.015625)" xlink:href="#DejaVuSans-115"/>
      <use transform="translate(177.001953 0.015625)" xlink:href="#DejaVuSans-116"/>
      <use transform="translate(216.210938 0.015625)" xlink:href="#DejaVuSans-101"/>
      <use transform="translate(277.734375 0.015625)" xlink:href="#DejaVuSans-100"/>
      <use transform="translate(341.210938 0.015625)" xlink:href="#DejaVuSans-32"/>
      <use transform="translate(372.998047 0.015625)" xlink:href="#DejaVuSans-102"/>
      <use transform="translate(408.203125 0.015625)" xlink:href="#DejaVuSans-111"/>
      <use transform="translate(469.384766 0.015625)" xlink:href="#DejaVuSans-114"/>
      <use transform="translate(510.498047 0.015625)" xlink:href="#DejaVuSans-32"/>
      <use transform="translate(542.285156 0.015625)" xlink:href="#DejaVuSans-40"/>
      <use transform="translate(581.298828 0.015625)" xlink:href="#DejaVuSans-110"/>
      <use transform="translate(644.677734 0.015625)" xlink:href="#DejaVuSans-97"/>
      <use transform="translate(705.957031 0.015625)" xlink:href="#DejaVuSans-105"/>
      <use transform="translate(733.740234 0.015625)" xlink:href="#DejaVuSans-118"/>
      <use transform="translate(792.919922 0.015625)" xlink:href="#DejaVuSans-101"/>
      <use transform="translate(854.443359 0.015625)" xlink:href="#DejaVuSans-41"/>
      <use transform="translate(893.457031 0.015625)" xlink:href="#DejaVuSans-58"/>
      <use transform="translate(927.148438 0.015625)" xlink:href="#DejaVuSans-32"/>
      <use transform="translate(958.935547 0.015625)" xlink:href="#DejaVuSans-Oblique-97"/>
      <use transform="translate(1020.214844 0.015625)" xlink:href="#DejaVuSans-Oblique-120"/>
      <use transform="translate(1079.394531 0.015625)" xlink:href="#DejaVuSans-Oblique-101"/>
      <use transform="translate(1140.917969 0.015625)" xlink:href="#DejaVuSans-Oblique-115"/>
      <use transform="translate(1193.017578 0.015625)" xlink:href="#DejaVuSans-32"/>
      <use transform="translate(1224.804688 0.015625)" xlink:href="#DejaVuSans-61"/>
      <use transform="translate(1308.59375 0.015625)" xlink:href="#DejaVuSans-32"/>
      <use transform="translate(1340.380859 0.015625)" xlink:href="#DejaVuSans-118"/>
      <use transform="translate(1399.560547 0.015625)" xlink:href="#DejaVuSans-101"/>
      <use transform="translate(1461.083984 0.015625)" xlink:href="#DejaVuSans-99"/>
      <use transform="translate(1516.064453 0.015625)" xlink:href="#DejaVuSans-116"/>
      <use transform="translate(1555.273438 0.015625)" xlink:href="#DejaVuSans-111"/>
      <use transform="translate(1616.455078 0.015625)" xlink:href="#DejaVuSans-114"/>
     </g>
    </g>
    <g id="line2d_114">
     <path d="M 72.125482 87.783498 
L 88.337482 87.783498 
" style="fill:none;stroke:#ff0000;stroke-dasharray:1.5,2.475;stroke-dashoffset:0;stroke-width:1.5;"/>
    </g>
    <g id="line2d_115"/>
    <g id="text_18">
     <!-- nested for (naive): ${\mathit{axes}}$ = vector of variant -->
     <g transform="translate(94.822282 90.620598)scale(0.08106 -0.08106)">
      <use transform="translate(0 0.015625)" xlink:href="#DejaVuSans-110"/>
      <use transform="translate(63.378906 0.015625)" xlink:href="#DejaVuSans-101"/>
      <use transform="translate(124.902344 0.015625)" xlink:href="#DejaVuSans-115"/>
      <use transform="translate(177.001953 0.015625)" xlink:href="#DejaVuSans-116"/>
      <use transform="translate(216.210938 0.015625)" xlink:href="#DejaVuSans-101"/>
      <use transform="translate(277.734375 0.015625)" xlink:href="#DejaVuSans-100"/>
      <use transform="translate(341.210938 0.015625)" xlink:href="#DejaVuSans-32"/>
      <use transform="translate(372.998047 0.015625)" xlink:href="#DejaVuSans-102"/>
      <use transform="translate(408.203125 0.015625)" xlink:href="#DejaVuSans-111"/>
      <use transform="translate(469.384766 0.015625)" xlink:href="#DejaVuSans-114"/>
      <use transform="translate(510.498047 0.015625)" xlink:href="#DejaVuSans-32"/>
      <use transform="translate(542.285156 0.015625)" xlink:href="#DejaVuSans-40"/>
      <use transform="translate(581.298828 0.015625)" xlink:href="#DejaVuSans-110"/>
      <use transform="translate(644.677734 0.015625)" xlink:href="#DejaVuSans-97"/>
      <use transform="translate(705.957031 0.015625)" xlink:href="#DejaVuSans-105"/>
      <use transform="translate(733.740234 0.015625)" xlink:href="#DejaVuSans-118"/>
      <use transform="translate(792.919922 0.015625)" xlink:href="#DejaVuSans-101"/>
      <use transform="translate(854.443359 0.015625)" xlink:href="#DejaVuSans-41"/>
      <use transform="translate(893.457031 0.015625)" xlink:href="#DejaVuSans-58"/>
      <use transform="translate(927.148438 0.015625)" xlink:href="#DejaVuSans-32"/>
      <use transform="translate(958.935547 0.015625)" xlink:href="#DejaVuSans-Oblique-97"/>
      <use transform="translate(1020.214844 0.015625)" xlink:href="#DejaVuSans-Oblique-120"/>
      <use transform="translate(1079.394531 0.015625)" xlink:href="#DejaVuSans-Oblique-101"/>
      <use transform="translate(1140.917969 0.015625)" xlink:href="#DejaVuSans-Oblique-115"/>
      <use transform="translate(1193.017578 0.015625)" xlink:href="#DejaVuSans-32"/>
      <use transform="translate(1224.804688 0.015625)" xlink:href="#DejaVuSans-61"/>
      <use transform="translate(1308.59375 0.015625)" xlink:href="#DejaVuSans-32"/>
      <use transform="translate(1340.380859 0.015625)" xlink:href="#DejaVuSans-118"/>
      <use transform="translate(1399.560547 0.015625)" xlink:href="#DejaVuSans-101"/>
      <use transform="translate(1461.083984 0.015625)" xlink:href="#DejaVuSans-99"/>
      <use transform="translate(1516.064453 0.015625)" xlink:href="#DejaVuSans-116"/>
      <use transform="translate(1555.273438 0.015625)" xlink:href="#DejaVuSans-111"/>
      <use transform="translate(1616.455078 0.015625)" xlink:href="#DejaVuSans-114"/>
      <use transform="translate(1657.568359 0.015625)" xlink:href="#DejaVuSans-32"/>
      <use transform="translate(1689.355469 0.015625)" xlink:href="#DejaVuSans-111"/>
      <use transform="translate(1750.537109 0.015625)" xlink:href="#DejaVuSans-102"/>
      <use transform="translate(1785.742188 0.015625)" xlink:href="#DejaVuSans-32"/>
      <use transform="translate(1817.529297 0.015625)" xlink:href="#DejaVuSans-118"/>
      <use transform="translate(1876.708984 0.015625)" xlink:href="#DejaVuSans-97"/>
      <use transform="translate(1937.988281 0.015625)" xlink:href="#DejaVuSans-114"/>
      <use transform="translate(1979.101562 0.015625)" xlink:href="#DejaVuSans-105"/>
      <use transform="translate(2006.884766 0.015625)" xlink:href="#DejaVuSans-97"/>
      <use transform="translate(2068.164062 0.015625)" xlink:href="#DejaVuSans-110"/>
      <use transform="translate(2131.542969 0.015625)" xlink:href="#DejaVuSans-116"/>
     </g>
    </g>
    <g id="line2d_116">
     <path d="M 72.125482 99.682853 
L 88.337482 99.682853 
" style="fill:none;stroke:#1f77b4;stroke-linecap:square;stroke-width:1.5;"/>
    </g>
    <g id="line2d_117"/>
    <g id="text_19">
     <!-- nested for (opt.): ${\mathit{axes}}$ = tuple -->
     <defs>
      <path d="M 10.6875 12.40625 
L 21 12.40625 
L 21 0 
L 10.6875 0 
z
" id="DejaVuSans-46"/>
     </defs>
     <g transform="translate(94.822282 102.519953)scale(0.08106 -0.08106)">
      <use transform="translate(0 0.015625)" xlink:href="#DejaVuSans-110"/>
      <use transform="translate(63.378906 0.015625)" xlink:href="#DejaVuSans-101"/>
      <use transform="translate(124.902344 0.015625)" xlink:href="#DejaVuSans-115"/>
      <use transform="translate(177.001953 0.015625)" xlink:href="#DejaVuSans-116"/>
      <use transform="translate(216.210938 0.015625)" xlink:href="#DejaVuSans-101"/>
      <use transform="translate(277.734375 0.015625)" xlink:href="#DejaVuSans-100"/>
      <use transform="translate(341.210938 0.015625)" xlink:href="#DejaVuSans-32"/>
      <use transform="translate(372.998047 0.015625)" xlink:href="#DejaVuSans-102"/>
      <use transform="translate(408.203125 0.015625)" xlink:href="#DejaVuSans-111"/>
      <use transform="translate(469.384766 0.015625)" xlink:href="#DejaVuSans-114"/>
      <use transform="translate(510.498047 0.015625)" xlink:href="#DejaVuSans-32"/>
      <use transform="translate(542.285156 0.015625)" xlink:href="#DejaVuSans-40"/>
      <use transform="translate(581.298828 0.015625)" xlink:href="#DejaVuSans-111"/>
      <use transform="translate(642.480469 0.015625)" xlink:href="#DejaVuSans-112"/>
      <use transform="translate(705.957031 0.015625)" xlink:href="#DejaVuSans-116"/>
      <use transform="translate(745.166016 0.015625)" xlink:href="#DejaVuSans-46"/>
      <use transform="translate(776.953125 0.015625)" xlink:href="#DejaVuSans-41"/>
      <use transform="translate(815.966797 0.015625)" xlink:href="#DejaVuSans-58"/>
      <use transform="translate(849.658203 0.015625)" xlink:href="#DejaVuSans-32"/>
      <use transform="translate(881.445312 0.015625)" xlink:href="#DejaVuSans-Oblique-97"/>
      <use transform="translate(942.724609 0.015625)" xlink:href="#DejaVuSans-Oblique-120"/>
      <use transform="translate(1001.904297 0.015625)" xlink:href="#DejaVuSans-Oblique-101"/>
      <use transform="translate(1063.427734 0.015625)" xlink:href="#DejaVuSans-Oblique-115"/>
      <use transform="translate(1115.527344 0.015625)" xlink:href="#DejaVuSans-32"/>
      <use transform="translate(1147.314453 0.015625)" xlink:href="#DejaVuSans-61"/>
      <use transform="translate(1231.103516 0.015625)" xlink:href="#DejaVuSans-32"/>
      <use transform="translate(1262.890625 0.015625)" xlink:href="#DejaVuSans-116"/>
      <use transform="translate(1302.099609 0.015625)" xlink:href="#DejaVuSans-117"/>
      <use transform="translate(1365.478516 0.015625)" xlink:href="#DejaVuSans-112"/>
      <use transform="translate(1428.955078 0.015625)" xlink:href="#DejaVuSans-108"/>
      <use transform="translate(1456.738281 0.015625)" xlink:href="#DejaVuSans-101"/>
     </g>
    </g>
    <g id="line2d_118">
     <path d="M 72.125482 111.598673 
L 88.337482 111.598673 
" style="fill:none;stroke:#1f77b4;stroke-dasharray:5.55,2.4;stroke-dashoffset:0;stroke-width:1.5;"/>
    </g>
    <g id="line2d_119"/>
    <g id="text_20">
     <!-- nested for (opt.): ${\mathit{axes}}$ = vector -->
     <g transform="translate(94.822282 114.435773)scale(0.08106 -0.08106)">
      <use transform="translate(0 0.015625)" xlink:href="#DejaVuSans-110"/>
      <use transform="translate(63.378906 0.015625)" xlink:href="#DejaVuSans-101"/>
      <use transform="translate(124.902344 0.015625)" xlink:href="#DejaVuSans-115"/>
      <use transform="translate(177.001953 0.015625)" xlink:href="#DejaVuSans-116"/>
      <use transform="translate(216.210938 0.015625)" xlink:href="#DejaVuSans-101"/>
      <use transform="translate(277.734375 0.015625)" xlink:href="#DejaVuSans-100"/>
      <use transform="translate(341.210938 0.015625)" xlink:href="#DejaVuSans-32"/>
      <use transform="translate(372.998047 0.015625)" xlink:href="#DejaVuSans-102"/>
      <use transform="translate(408.203125 0.015625)" xlink:href="#DejaVuSans-111"/>
      <use transform="translate(469.384766 0.015625)" xlink:href="#DejaVuSans-114"/>
      <use transform="translate(510.498047 0.015625)" xlink:href="#DejaVuSans-32"/>
      <use transform="translate(542.285156 0.015625)" xlink:href="#DejaVuSans-40"/>
      <use transform="translate(581.298828 0.015625)" xlink:href="#DejaVuSans-111"/>
      <use transform="translate(642.480469 0.015625)" xlink:href="#DejaVuSans-112"/>
      <use transform="translate(705.957031 0.015625)" xlink:href="#DejaVuSans-116"/>
      <use transform="translate(745.166016 0.015625)" xlink:href="#DejaVuSans-46"/>
      <use transform="translate(776.953125 0.015625)" xlink:href="#DejaVuSans-41"/>
      <use transform="translate(815.966797 0.015625)" xlink:href="#DejaVuSans-58"/>
      <use transform="translate(849.658203 0.015625)" xlink:href="#DejaVuSans-32"/>
      <use transform="translate(881.445312 0.015625)" xlink:href="#DejaVuSans-Oblique-97"/>
      <use transform="translate(942.724609 0.015625)" xlink:href="#DejaVuSans-Oblique-120"/>
      <use transform="translate(1001.904297 0.015625)" xlink:href="#DejaVuSans-Oblique-101"/>
      <use transform="translate(1063.427734 0.015625)" xlink:href="#DejaVuSans-Oblique-115"/>
      <use transform="translate(1115.527344 0.015625)" xlink:href="#DejaVuSans-32"/>
      <use transform="translate(1147.314453 0.015625)" xlink:href="#DejaVuSans-61"/>
      <use transform="translate(1231.103516 0.015625)" xlink:href="#DejaVuSans-32"/>
      <use transform="translate(1262.890625 0.015625)" xlink:href="#DejaVuSans-118"/>
      <use transform="translate(1322.070312 0.015625)" xlink:href="#DejaVuSans-101"/>
      <use transform="translate(1383.59375 0.015625)" xlink:href="#DejaVuSans-99"/>
      <use transform="translate(1438.574219 0.015625)" xlink:href="#DejaVuSans-116"/>
      <use transform="translate(1477.783203 0.015625)" xlink:href="#DejaVuSans-111"/>
      <use transform="translate(1538.964844 0.015625)" xlink:href="#DejaVuSans-114"/>
     </g>
    </g>
    <g id="line2d_120">
     <path d="M 72.125482 123.514493 
L 88.337482 123.514493 
" style="fill:none;stroke:#1f77b4;stroke-dasharray:1.5,2.475;stroke-dashoffset:0;stroke-width:1.5;"/>
    </g>
    <g id="line2d_121"/>
    <g id="text_21">
     <!-- nested for (opt.): ${\mathit{axes}}$ = vector of variant -->
     <g transform="translate(94.822282 126.351593)scale(0.08106 -0.08106)">
      <use transform="translate(0 0.015625)" xlink:href="#DejaVuSans-110"/>
      <use transform="translate(63.378906 0.015625)" xlink:href="#DejaVuSans-101"/>
      <use transform="translate(124.902344 0.015625)" xlink:href="#DejaVuSans-115"/>
      <use transform="translate(177.001953 0.015625)" xlink:href="#DejaVuSans-116"/>
      <use transform="translate(216.210938 0.015625)" xlink:href="#DejaVuSans-101"/>
      <use transform="translate(277.734375 0.015625)" xlink:href="#DejaVuSans-100"/>
      <use transform="translate(341.210938 0.015625)" xlink:href="#DejaVuSans-32"/>
      <use transform="translate(372.998047 0.015625)" xlink:href="#DejaVuSans-102"/>
      <use transform="translate(408.203125 0.015625)" xlink:href="#DejaVuSans-111"/>
      <use transform="translate(469.384766 0.015625)" xlink:href="#DejaVuSans-114"/>
      <use transform="translate(510.498047 0.015625)" xlink:href="#DejaVuSans-32"/>
      <use transform="translate(542.285156 0.015625)" xlink:href="#DejaVuSans-40"/>
      <use transform="translate(581.298828 0.015625)" xlink:href="#DejaVuSans-111"/>
      <use transform="translate(642.480469 0.015625)" xlink:href="#DejaVuSans-112"/>
      <use transform="translate(705.957031 0.015625)" xlink:href="#DejaVuSans-116"/>
      <use transform="translate(745.166016 0.015625)" xlink:href="#DejaVuSans-46"/>
      <use transform="translate(776.953125 0.015625)" xlink:href="#DejaVuSans-41"/>
      <use transform="translate(815.966797 0.015625)" xlink:href="#DejaVuSans-58"/>
      <use transform="translate(849.658203 0.015625)" xlink:href="#DejaVuSans-32"/>
      <use transform="translate(881.445312 0.015625)" xlink:href="#DejaVuSans-Oblique-97"/>
      <use transform="translate(942.724609 0.015625)" xlink:href="#DejaVuSans-Oblique-120"/>
      <use transform="translate(1001.904297 0.015625)" xlink:href="#DejaVuSans-Oblique-101"/>
      <use transform="translate(1063.427734 0.015625)" xlink:href="#DejaVuSans-Oblique-115"/>
      <use transform="translate(1115.527344 0.015625)" xlink:href="#DejaVuSans-32"/>
      <use transform="translate(1147.314453 0.015625)" xlink:href="#DejaVuSans-61"/>
      <use transform="translate(1231.103516 0.015625)" xlink:href="#DejaVuSans-32"/>
      <use transform="translate(1262.890625 0.015625)" xlink:href="#DejaVuSans-118"/>
      <use transform="translate(1322.070312 0.015625)" xlink:href="#DejaVuSans-101"/>
      <use transform="translate(1383.59375 0.015625)" xlink:href="#DejaVuSans-99"/>
      <use transform="translate(1438.574219 0.015625)" xlink:href="#DejaVuSans-116"/>
      <use transform="translate(1477.783203 0.015625)" xlink:href="#DejaVuSans-111"/>
      <use transform="translate(1538.964844 0.015625)" xlink:href="#DejaVuSans-114"/>
      <use transform="translate(1580.078125 0.015625)" xlink:href="#DejaVuSans-32"/>
      <use transform="translate(1611.865234 0.015625)" xlink:href="#DejaVuSans-111"/>
      <use transform="translate(1673.046875 0.015625)" xlink:href="#DejaVuSans-102"/>
      <use transform="translate(1708.251953 0.015625)" xlink:href="#DejaVuSans-32"/>
      <use transform="translate(1740.039062 0.015625)" xlink:href="#DejaVuSans-118"/>
      <use transform="translate(1799.21875 0.015625)" xlink:href="#DejaVuSans-97"/>
      <use transform="translate(1860.498047 0.015625)" xlink:href="#DejaVuSans-114"/>
      <use transform="translate(1901.611328 0.015625)" xlink:href="#DejaVuSans-105"/>
      <use transform="translate(1929.394531 0.015625)" xlink:href="#DejaVuSans-97"/>
      <use transform="translate(1990.673828 0.015625)" xlink:href="#DejaVuSans-110"/>
      <use transform="translate(2054.052734 0.015625)" xlink:href="#DejaVuSans-116"/>
     </g>
    </g>
   </g>
  </g>
 </g>
 <defs>
  <clipPath id="p5b540a08c2">
   <rect height="358.792" width="421.529918" x="64.830082" y="17.64"/>
  </clipPath>
 </defs>
</svg>
