<?xml version="1.0" encoding="utf-8" standalone="no"?>
<!DOCTYPE svg PUBLIC "-//W3C//DTD SVG 1.1//EN"
  "http://www.w3.org/Graphics/SVG/1.1/DTD/svg11.dtd">
<!-- Created with matplotlib (https://matplotlib.org/) -->
<svg height="360pt" version="1.1" viewBox="0 0 720 360" width="720pt" xmlns="http://www.w3.org/2000/svg" xmlns:xlink="http://www.w3.org/1999/xlink">
 <defs>
  <style type="text/css">
*{stroke-linecap:butt;stroke-linejoin:round;}
  </style>
 </defs>
 <g id="figure_1">
  <g id="patch_1">
   <path d="M 0 360 
L 720 360 
L 720 0 
L 0 0 
z
" style="fill:#ffffff;"/>
  </g>
  <g id="axes_1">
   <g id="patch_2">
    <path d="M 90 295.2 
L 254.117647 295.2 
L 254.117647 43.2 
L 90 43.2 
z
" style="fill:#ffffff;"/>
   </g>
   <g id="matplotlib.axis_1">
    <g id="xtick_1">
     <g id="line2d_1">
      <defs>
       <path d="M 0 0 
L 0 3.5 
" id="md69f6b2231" style="stroke:#000000;stroke-width:0.8;"/>
      </defs>
      <g>
       <use style="stroke:#000000;stroke-width:0.8;" x="133.925862" xlink:href="#md69f6b2231" y="295.2"/>
      </g>
     </g>
     <g id="text_1">
      <!-- $\mathdefault{10^{2}}$ -->
      <defs>
       <path d="M 12.40625 8.296875 
L 28.515625 8.296875 
L 28.515625 63.921875 
L 10.984375 60.40625 
L 10.984375 69.390625 
L 28.421875 72.90625 
L 38.28125 72.90625 
L 38.28125 8.296875 
L 54.390625 8.296875 
L 54.390625 0 
L 12.40625 0 
z
" id="DejaVuSans-49"/>
       <path d="M 31.78125 66.40625 
Q 24.171875 66.40625 20.328125 58.90625 
Q 16.5 51.421875 16.5 36.375 
Q 16.5 21.390625 20.328125 13.890625 
Q 24.171875 6.390625 31.78125 6.390625 
Q 39.453125 6.390625 43.28125 13.890625 
Q 47.125 21.390625 47.125 36.375 
Q 47.125 51.421875 43.28125 58.90625 
Q 39.453125 66.40625 31.78125 66.40625 
z
M 31.78125 74.21875 
Q 44.046875 74.21875 50.515625 64.515625 
Q 56.984375 54.828125 56.984375 36.375 
Q 56.984375 17.96875 50.515625 8.265625 
Q 44.046875 -1.421875 31.78125 -1.421875 
Q 19.53125 -1.421875 13.0625 8.265625 
Q 6.59375 17.96875 6.59375 36.375 
Q 6.59375 54.828125 13.0625 64.515625 
Q 19.53125 74.21875 31.78125 74.21875 
z
" id="DejaVuSans-48"/>
       <path d="M 19.1875 8.296875 
L 53.609375 8.296875 
L 53.609375 0 
L 7.328125 0 
L 7.328125 8.296875 
Q 12.9375 14.109375 22.625 23.890625 
Q 32.328125 33.6875 34.8125 36.53125 
Q 39.546875 41.84375 41.421875 45.53125 
Q 43.3125 49.21875 43.3125 52.78125 
Q 43.3125 58.59375 39.234375 62.25 
Q 35.15625 65.921875 28.609375 65.921875 
Q 23.96875 65.921875 18.8125 64.3125 
Q 13.671875 62.703125 7.8125 59.421875 
L 7.8125 69.390625 
Q 13.765625 71.78125 18.9375 73 
Q 24.125 74.21875 28.421875 74.21875 
Q 39.75 74.21875 46.484375 68.546875 
Q 53.21875 62.890625 53.21875 53.421875 
Q 53.21875 48.921875 51.53125 44.890625 
Q 49.859375 40.875 45.40625 35.40625 
Q 44.1875 33.984375 37.640625 27.21875 
Q 31.109375 20.453125 19.1875 8.296875 
z
" id="DejaVuSans-50"/>
      </defs>
      <g transform="translate(121.605862 312.837812)scale(0.14 -0.14)">
       <use transform="translate(0 0.765625)" xlink:href="#DejaVuSans-49"/>
       <use transform="translate(63.623047 0.765625)" xlink:href="#DejaVuSans-48"/>
       <use transform="translate(128.203125 39.046875)scale(0.7)" xlink:href="#DejaVuSans-50"/>
      </g>
     </g>
    </g>
    <g id="xtick_2">
     <g id="line2d_2">
      <g>
       <use style="stroke:#000000;stroke-width:0.8;" x="186.096869" xlink:href="#md69f6b2231" y="295.2"/>
      </g>
     </g>
     <g id="text_2">
      <!-- $\mathdefault{10^{4}}$ -->
      <defs>
       <path d="M 37.796875 64.3125 
L 12.890625 25.390625 
L 37.796875 25.390625 
z
M 35.203125 72.90625 
L 47.609375 72.90625 
L 47.609375 25.390625 
L 58.015625 25.390625 
L 58.015625 17.1875 
L 47.609375 17.1875 
L 47.609375 0 
L 37.796875 0 
L 37.796875 17.1875 
L 4.890625 17.1875 
L 4.890625 26.703125 
z
" id="DejaVuSans-52"/>
      </defs>
      <g transform="translate(173.776869 312.837812)scale(0.14 -0.14)">
       <use transform="translate(0 0.684375)" xlink:href="#DejaVuSans-49"/>
       <use transform="translate(63.623047 0.684375)" xlink:href="#DejaVuSans-48"/>
       <use transform="translate(128.203125 38.965625)scale(0.7)" xlink:href="#DejaVuSans-52"/>
      </g>
     </g>
    </g>
    <g id="xtick_3">
     <g id="line2d_3">
      <g>
       <use style="stroke:#000000;stroke-width:0.8;" x="238.267876" xlink:href="#md69f6b2231" y="295.2"/>
      </g>
     </g>
     <g id="text_3">
      <!-- $\mathdefault{10^{6}}$ -->
      <defs>
       <path d="M 33.015625 40.375 
Q 26.375 40.375 22.484375 35.828125 
Q 18.609375 31.296875 18.609375 23.390625 
Q 18.609375 15.53125 22.484375 10.953125 
Q 26.375 6.390625 33.015625 6.390625 
Q 39.65625 6.390625 43.53125 10.953125 
Q 47.40625 15.53125 47.40625 23.390625 
Q 47.40625 31.296875 43.53125 35.828125 
Q 39.65625 40.375 33.015625 40.375 
z
M 52.59375 71.296875 
L 52.59375 62.3125 
Q 48.875 64.0625 45.09375 64.984375 
Q 41.3125 65.921875 37.59375 65.921875 
Q 27.828125 65.921875 22.671875 59.328125 
Q 17.53125 52.734375 16.796875 39.40625 
Q 19.671875 43.65625 24.015625 45.921875 
Q 28.375 48.1875 33.59375 48.1875 
Q 44.578125 48.1875 50.953125 41.515625 
Q 57.328125 34.859375 57.328125 23.390625 
Q 57.328125 12.15625 50.6875 5.359375 
Q 44.046875 -1.421875 33.015625 -1.421875 
Q 20.359375 -1.421875 13.671875 8.265625 
Q 6.984375 17.96875 6.984375 36.375 
Q 6.984375 53.65625 15.1875 63.9375 
Q 23.390625 74.21875 37.203125 74.21875 
Q 40.921875 74.21875 44.703125 73.484375 
Q 48.484375 72.75 52.59375 71.296875 
z
" id="DejaVuSans-54"/>
      </defs>
      <g transform="translate(225.947876 312.837812)scale(0.14 -0.14)">
       <use transform="translate(0 0.765625)" xlink:href="#DejaVuSans-49"/>
       <use transform="translate(63.623047 0.765625)" xlink:href="#DejaVuSans-48"/>
       <use transform="translate(128.203125 39.046875)scale(0.7)" xlink:href="#DejaVuSans-54"/>
      </g>
     </g>
    </g>
   </g>
   <g id="matplotlib.axis_2">
    <g id="ytick_1">
     <g id="line2d_4">
      <defs>
       <path d="M 0 0 
L -3.5 0 
" id="m845dbcff73" style="stroke:#000000;stroke-width:0.8;"/>
      </defs>
      <g>
       <use style="stroke:#000000;stroke-width:0.8;" x="90" xlink:href="#m845dbcff73" y="237.906026"/>
      </g>
     </g>
     <g id="text_4">
      <!-- $\mathdefault{10^{0}}$ -->
      <g transform="translate(58.36 243.224932)scale(0.14 -0.14)">
       <use transform="translate(0 0.765625)" xlink:href="#DejaVuSans-49"/>
       <use transform="translate(63.623047 0.765625)" xlink:href="#DejaVuSans-48"/>
       <use transform="translate(128.203125 39.046875)scale(0.7)" xlink:href="#DejaVuSans-48"/>
      </g>
     </g>
    </g>
    <g id="ytick_2">
     <g id="line2d_5">
      <g>
       <use style="stroke:#000000;stroke-width:0.8;" x="90" xlink:href="#m845dbcff73" y="124.660578"/>
      </g>
     </g>
     <g id="text_5">
      <!-- $\mathdefault{10^{1}}$ -->
      <g transform="translate(58.36 129.979484)scale(0.14 -0.14)">
       <use transform="translate(0 0.684375)" xlink:href="#DejaVuSans-49"/>
       <use transform="translate(63.623047 0.684375)" xlink:href="#DejaVuSans-48"/>
       <use transform="translate(128.203125 38.965625)scale(0.7)" xlink:href="#DejaVuSans-49"/>
      </g>
     </g>
    </g>
    <g id="ytick_3">
     <g id="line2d_6">
      <defs>
       <path d="M 0 0 
L -2 0 
" id="mb75c8b00c5" style="stroke:#000000;stroke-width:0.6;"/>
      </defs>
      <g>
       <use style="stroke:#000000;stroke-width:0.6;" x="90" xlink:href="#mb75c8b00c5" y="282.970921"/>
      </g>
     </g>
    </g>
    <g id="ytick_4">
     <g id="line2d_7">
      <g>
       <use style="stroke:#000000;stroke-width:0.6;" x="90" xlink:href="#mb75c8b00c5" y="271.996303"/>
      </g>
     </g>
    </g>
    <g id="ytick_5">
     <g id="line2d_8">
      <g>
       <use style="stroke:#000000;stroke-width:0.6;" x="90" xlink:href="#mb75c8b00c5" y="263.029387"/>
      </g>
     </g>
    </g>
    <g id="ytick_6">
     <g id="line2d_9">
      <g>
       <use style="stroke:#000000;stroke-width:0.6;" x="90" xlink:href="#mb75c8b00c5" y="255.447968"/>
      </g>
     </g>
    </g>
    <g id="ytick_7">
     <g id="line2d_10">
      <g>
       <use style="stroke:#000000;stroke-width:0.6;" x="90" xlink:href="#mb75c8b00c5" y="248.880644"/>
      </g>
     </g>
    </g>
    <g id="ytick_8">
     <g id="line2d_11">
      <g>
       <use style="stroke:#000000;stroke-width:0.6;" x="90" xlink:href="#mb75c8b00c5" y="243.087854"/>
      </g>
     </g>
    </g>
    <g id="ytick_9">
     <g id="line2d_12">
      <g>
       <use style="stroke:#000000;stroke-width:0.6;" x="90" xlink:href="#mb75c8b00c5" y="203.815749"/>
      </g>
     </g>
    </g>
    <g id="ytick_10">
     <g id="line2d_13">
      <g>
       <use style="stroke:#000000;stroke-width:0.6;" x="90" xlink:href="#mb75c8b00c5" y="183.874216"/>
      </g>
     </g>
    </g>
    <g id="ytick_11">
     <g id="line2d_14">
      <g>
       <use style="stroke:#000000;stroke-width:0.6;" x="90" xlink:href="#mb75c8b00c5" y="169.725472"/>
      </g>
     </g>
    </g>
    <g id="ytick_12">
     <g id="line2d_15">
      <g>
       <use style="stroke:#000000;stroke-width:0.6;" x="90" xlink:href="#mb75c8b00c5" y="158.750855"/>
      </g>
     </g>
    </g>
    <g id="ytick_13">
     <g id="line2d_16">
      <g>
       <use style="stroke:#000000;stroke-width:0.6;" x="90" xlink:href="#mb75c8b00c5" y="149.783939"/>
      </g>
     </g>
    </g>
    <g id="ytick_14">
     <g id="line2d_17">
      <g>
       <use style="stroke:#000000;stroke-width:0.6;" x="90" xlink:href="#mb75c8b00c5" y="142.20252"/>
      </g>
     </g>
    </g>
    <g id="ytick_15">
     <g id="line2d_18">
      <g>
       <use style="stroke:#000000;stroke-width:0.6;" x="90" xlink:href="#mb75c8b00c5" y="135.635196"/>
      </g>
     </g>
    </g>
    <g id="ytick_16">
     <g id="line2d_19">
      <g>
       <use style="stroke:#000000;stroke-width:0.6;" x="90" xlink:href="#mb75c8b00c5" y="129.842405"/>
      </g>
     </g>
    </g>
    <g id="ytick_17">
     <g id="line2d_20">
      <g>
       <use style="stroke:#000000;stroke-width:0.6;" x="90" xlink:href="#mb75c8b00c5" y="90.570301"/>
      </g>
     </g>
    </g>
    <g id="ytick_18">
     <g id="line2d_21">
      <g>
       <use style="stroke:#000000;stroke-width:0.6;" x="90" xlink:href="#mb75c8b00c5" y="70.628767"/>
      </g>
     </g>
    </g>
    <g id="ytick_19">
     <g id="line2d_22">
      <g>
       <use style="stroke:#000000;stroke-width:0.6;" x="90" xlink:href="#mb75c8b00c5" y="56.480024"/>
      </g>
     </g>
    </g>
    <g id="ytick_20">
     <g id="line2d_23">
      <g>
       <use style="stroke:#000000;stroke-width:0.6;" x="90" xlink:href="#mb75c8b00c5" y="45.505406"/>
      </g>
     </g>
    </g>
    <g id="text_6">
     <!-- CPU time in ns per bin -->
     <defs>
      <path d="M 64.40625 67.28125 
L 64.40625 56.890625 
Q 59.421875 61.53125 53.78125 63.8125 
Q 48.140625 66.109375 41.796875 66.109375 
Q 29.296875 66.109375 22.65625 58.46875 
Q 16.015625 50.828125 16.015625 36.375 
Q 16.015625 21.96875 22.65625 14.328125 
Q 29.296875 6.6875 41.796875 6.6875 
Q 48.140625 6.6875 53.78125 8.984375 
Q 59.421875 11.28125 64.40625 15.921875 
L 64.40625 5.609375 
Q 59.234375 2.09375 53.4375 0.328125 
Q 47.65625 -1.421875 41.21875 -1.421875 
Q 24.65625 -1.421875 15.125 8.703125 
Q 5.609375 18.84375 5.609375 36.375 
Q 5.609375 53.953125 15.125 64.078125 
Q 24.65625 74.21875 41.21875 74.21875 
Q 47.75 74.21875 53.53125 72.484375 
Q 59.328125 70.75 64.40625 67.28125 
z
" id="DejaVuSans-67"/>
      <path d="M 19.671875 64.796875 
L 19.671875 37.40625 
L 32.078125 37.40625 
Q 38.96875 37.40625 42.71875 40.96875 
Q 46.484375 44.53125 46.484375 51.125 
Q 46.484375 57.671875 42.71875 61.234375 
Q 38.96875 64.796875 32.078125 64.796875 
z
M 9.8125 72.90625 
L 32.078125 72.90625 
Q 44.34375 72.90625 50.609375 67.359375 
Q 56.890625 61.8125 56.890625 51.125 
Q 56.890625 40.328125 50.609375 34.8125 
Q 44.34375 29.296875 32.078125 29.296875 
L 19.671875 29.296875 
L 19.671875 0 
L 9.8125 0 
z
" id="DejaVuSans-80"/>
      <path d="M 8.6875 72.90625 
L 18.609375 72.90625 
L 18.609375 28.609375 
Q 18.609375 16.890625 22.84375 11.734375 
Q 27.09375 6.59375 36.625 6.59375 
Q 46.09375 6.59375 50.34375 11.734375 
Q 54.59375 16.890625 54.59375 28.609375 
L 54.59375 72.90625 
L 64.5 72.90625 
L 64.5 27.390625 
Q 64.5 13.140625 57.4375 5.859375 
Q 50.390625 -1.421875 36.625 -1.421875 
Q 22.796875 -1.421875 15.734375 5.859375 
Q 8.6875 13.140625 8.6875 27.390625 
z
" id="DejaVuSans-85"/>
      <path id="DejaVuSans-32"/>
      <path d="M 18.3125 70.21875 
L 18.3125 54.6875 
L 36.8125 54.6875 
L 36.8125 47.703125 
L 18.3125 47.703125 
L 18.3125 18.015625 
Q 18.3125 11.328125 20.140625 9.421875 
Q 21.96875 7.515625 27.59375 7.515625 
L 36.8125 7.515625 
L 36.8125 0 
L 27.59375 0 
Q 17.1875 0 13.234375 3.875 
Q 9.28125 7.765625 9.28125 18.015625 
L 9.28125 47.703125 
L 2.6875 47.703125 
L 2.6875 54.6875 
L 9.28125 54.6875 
L 9.28125 70.21875 
z
" id="DejaVuSans-116"/>
      <path d="M 9.421875 54.6875 
L 18.40625 54.6875 
L 18.40625 0 
L 9.421875 0 
z
M 9.421875 75.984375 
L 18.40625 75.984375 
L 18.40625 64.59375 
L 9.421875 64.59375 
z
" id="DejaVuSans-105"/>
      <path d="M 52 44.1875 
Q 55.375 50.25 60.0625 53.125 
Q 64.75 56 71.09375 56 
Q 79.640625 56 84.28125 50.015625 
Q 88.921875 44.046875 88.921875 33.015625 
L 88.921875 0 
L 79.890625 0 
L 79.890625 32.71875 
Q 79.890625 40.578125 77.09375 44.375 
Q 74.3125 48.1875 68.609375 48.1875 
Q 61.625 48.1875 57.5625 43.546875 
Q 53.515625 38.921875 53.515625 30.90625 
L 53.515625 0 
L 44.484375 0 
L 44.484375 32.71875 
Q 44.484375 40.625 41.703125 44.40625 
Q 38.921875 48.1875 33.109375 48.1875 
Q 26.21875 48.1875 22.15625 43.53125 
Q 18.109375 38.875 18.109375 30.90625 
L 18.109375 0 
L 9.078125 0 
L 9.078125 54.6875 
L 18.109375 54.6875 
L 18.109375 46.1875 
Q 21.1875 51.21875 25.484375 53.609375 
Q 29.78125 56 35.6875 56 
Q 41.65625 56 45.828125 52.96875 
Q 50 49.953125 52 44.1875 
z
" id="DejaVuSans-109"/>
      <path d="M 56.203125 29.59375 
L 56.203125 25.203125 
L 14.890625 25.203125 
Q 15.484375 15.921875 20.484375 11.0625 
Q 25.484375 6.203125 34.421875 6.203125 
Q 39.59375 6.203125 44.453125 7.46875 
Q 49.3125 8.734375 54.109375 11.28125 
L 54.109375 2.78125 
Q 49.265625 0.734375 44.1875 -0.34375 
Q 39.109375 -1.421875 33.890625 -1.421875 
Q 20.796875 -1.421875 13.15625 6.1875 
Q 5.515625 13.8125 5.515625 26.8125 
Q 5.515625 40.234375 12.765625 48.109375 
Q 20.015625 56 32.328125 56 
Q 43.359375 56 49.78125 48.890625 
Q 56.203125 41.796875 56.203125 29.59375 
z
M 47.21875 32.234375 
Q 47.125 39.59375 43.09375 43.984375 
Q 39.0625 48.390625 32.421875 48.390625 
Q 24.90625 48.390625 20.390625 44.140625 
Q 15.875 39.890625 15.1875 32.171875 
z
" id="DejaVuSans-101"/>
      <path d="M 54.890625 33.015625 
L 54.890625 0 
L 45.90625 0 
L 45.90625 32.71875 
Q 45.90625 40.484375 42.875 44.328125 
Q 39.84375 48.1875 33.796875 48.1875 
Q 26.515625 48.1875 22.3125 43.546875 
Q 18.109375 38.921875 18.109375 30.90625 
L 18.109375 0 
L 9.078125 0 
L 9.078125 54.6875 
L 18.109375 54.6875 
L 18.109375 46.1875 
Q 21.34375 51.125 25.703125 53.5625 
Q 30.078125 56 35.796875 56 
Q 45.21875 56 50.046875 50.171875 
Q 54.890625 44.34375 54.890625 33.015625 
z
" id="DejaVuSans-110"/>
      <path d="M 44.28125 53.078125 
L 44.28125 44.578125 
Q 40.484375 46.53125 36.375 47.5 
Q 32.28125 48.484375 27.875 48.484375 
Q 21.1875 48.484375 17.84375 46.4375 
Q 14.5 44.390625 14.5 40.28125 
Q 14.5 37.15625 16.890625 35.375 
Q 19.28125 33.59375 26.515625 31.984375 
L 29.59375 31.296875 
Q 39.15625 29.25 43.1875 25.515625 
Q 47.21875 21.78125 47.21875 15.09375 
Q 47.21875 7.46875 41.1875 3.015625 
Q 35.15625 -1.421875 24.609375 -1.421875 
Q 20.21875 -1.421875 15.453125 -0.5625 
Q 10.6875 0.296875 5.421875 2 
L 5.421875 11.28125 
Q 10.40625 8.6875 15.234375 7.390625 
Q 20.0625 6.109375 24.8125 6.109375 
Q 31.15625 6.109375 34.5625 8.28125 
Q 37.984375 10.453125 37.984375 14.40625 
Q 37.984375 18.0625 35.515625 20.015625 
Q 33.0625 21.96875 24.703125 23.78125 
L 21.578125 24.515625 
Q 13.234375 26.265625 9.515625 29.90625 
Q 5.8125 33.546875 5.8125 39.890625 
Q 5.8125 47.609375 11.28125 51.796875 
Q 16.75 56 26.8125 56 
Q 31.78125 56 36.171875 55.265625 
Q 40.578125 54.546875 44.28125 53.078125 
z
" id="DejaVuSans-115"/>
      <path d="M 18.109375 8.203125 
L 18.109375 -20.796875 
L 9.078125 -20.796875 
L 9.078125 54.6875 
L 18.109375 54.6875 
L 18.109375 46.390625 
Q 20.953125 51.265625 25.265625 53.625 
Q 29.59375 56 35.59375 56 
Q 45.5625 56 51.78125 48.09375 
Q 58.015625 40.1875 58.015625 27.296875 
Q 58.015625 14.40625 51.78125 6.484375 
Q 45.5625 -1.421875 35.59375 -1.421875 
Q 29.59375 -1.421875 25.265625 0.953125 
Q 20.953125 3.328125 18.109375 8.203125 
z
M 48.6875 27.296875 
Q 48.6875 37.203125 44.609375 42.84375 
Q 40.53125 48.484375 33.40625 48.484375 
Q 26.265625 48.484375 22.1875 42.84375 
Q 18.109375 37.203125 18.109375 27.296875 
Q 18.109375 17.390625 22.1875 11.75 
Q 26.265625 6.109375 33.40625 6.109375 
Q 40.53125 6.109375 44.609375 11.75 
Q 48.6875 17.390625 48.6875 27.296875 
z
" id="DejaVuSans-112"/>
      <path d="M 41.109375 46.296875 
Q 39.59375 47.171875 37.8125 47.578125 
Q 36.03125 48 33.890625 48 
Q 26.265625 48 22.1875 43.046875 
Q 18.109375 38.09375 18.109375 28.8125 
L 18.109375 0 
L 9.078125 0 
L 9.078125 54.6875 
L 18.109375 54.6875 
L 18.109375 46.1875 
Q 20.953125 51.171875 25.484375 53.578125 
Q 30.03125 56 36.53125 56 
Q 37.453125 56 38.578125 55.875 
Q 39.703125 55.765625 41.0625 55.515625 
z
" id="DejaVuSans-114"/>
      <path d="M 48.6875 27.296875 
Q 48.6875 37.203125 44.609375 42.84375 
Q 40.53125 48.484375 33.40625 48.484375 
Q 26.265625 48.484375 22.1875 42.84375 
Q 18.109375 37.203125 18.109375 27.296875 
Q 18.109375 17.390625 22.1875 11.75 
Q 26.265625 6.109375 33.40625 6.109375 
Q 40.53125 6.109375 44.609375 11.75 
Q 48.6875 17.390625 48.6875 27.296875 
z
M 18.109375 46.390625 
Q 20.953125 51.265625 25.265625 53.625 
Q 29.59375 56 35.59375 56 
Q 45.5625 56 51.78125 48.09375 
Q 58.015625 40.1875 58.015625 27.296875 
Q 58.015625 14.40625 51.78125 6.484375 
Q 45.5625 -1.421875 35.59375 -1.421875 
Q 29.59375 -1.421875 25.265625 0.953125 
Q 20.953125 3.328125 18.109375 8.203125 
L 18.109375 0 
L 9.078125 0 
L 9.078125 75.984375 
L 18.109375 75.984375 
z
" id="DejaVuSans-98"/>
     </defs>
     <g transform="translate(51.448437 247.287188)rotate(-90)scale(0.14 -0.14)">
      <use xlink:href="#DejaVuSans-67"/>
      <use x="69.824219" xlink:href="#DejaVuSans-80"/>
      <use x="130.126953" xlink:href="#DejaVuSans-85"/>
      <use x="203.320312" xlink:href="#DejaVuSans-32"/>
      <use x="235.107422" xlink:href="#DejaVuSans-116"/>
      <use x="274.316406" xlink:href="#DejaVuSans-105"/>
      <use x="302.099609" xlink:href="#DejaVuSans-109"/>
      <use x="399.511719" xlink:href="#DejaVuSans-101"/>
      <use x="461.035156" xlink:href="#DejaVuSans-32"/>
      <use x="492.822266" xlink:href="#DejaVuSans-105"/>
      <use x="520.605469" xlink:href="#DejaVuSans-110"/>
      <use x="583.984375" xlink:href="#DejaVuSans-32"/>
      <use x="615.771484" xlink:href="#DejaVuSans-110"/>
      <use x="679.150391" xlink:href="#DejaVuSans-115"/>
      <use x="731.25" xlink:href="#DejaVuSans-32"/>
      <use x="763.037109" xlink:href="#DejaVuSans-112"/>
      <use x="826.513672" xlink:href="#DejaVuSans-101"/>
      <use x="888.037109" xlink:href="#DejaVuSans-114"/>
      <use x="929.150391" xlink:href="#DejaVuSans-32"/>
      <use x="960.9375" xlink:href="#DejaVuSans-98"/>
      <use x="1024.414062" xlink:href="#DejaVuSans-105"/>
      <use x="1052.197266" xlink:href="#DejaVuSans-110"/>
     </g>
    </g>
   </g>
   <g id="line2d_24">
    <path clip-path="url(#p00d1eafa88)" d="M 97.459893 246.334895 
L 105.312412 242.747493 
L 113.164931 251.241827 
L 121.01745 253.510576 
L 128.869969 246.535973 
L 136.722488 250.690624 
" style="fill:none;stroke:#ff0000;stroke-dasharray:3.7,1.6;stroke-dashoffset:0;"/>
   </g>
   <g id="line2d_25">
    <path clip-path="url(#p00d1eafa88)" d="M 97.459893 274.778539 
L 105.312412 281.457513 
L 113.164931 278.213577 
L 121.01745 283.745455 
L 128.869969 270.334085 
L 136.722488 280.261263 
" style="fill:none;stroke:#0000ff;stroke-dasharray:1,1.65;stroke-dashoffset:0;"/>
   </g>
   <g id="line2d_26">
    <path clip-path="url(#p00d1eafa88)" d="M 113.164931 214.790367 
L 128.869969 214.503033 
L 144.575007 219.924189 
L 160.280045 219.890879 
L 175.985083 217.55793 
L 191.690121 219.619001 
" style="fill:none;stroke:#ff0000;stroke-dasharray:7.4,3.2;stroke-dashoffset:0;stroke-width:2;"/>
   </g>
   <g id="line2d_27">
    <path clip-path="url(#p00d1eafa88)" d="M 113.164931 197.075823 
L 128.869969 214.027842 
L 144.575007 210.935064 
L 160.280045 208.025321 
L 175.985083 188.570155 
L 191.690121 192.794325 
" style="fill:none;stroke:#0000ff;stroke-dasharray:2,3.3;stroke-dashoffset:0;stroke-width:2;"/>
   </g>
   <g id="line2d_28">
    <path clip-path="url(#p00d1eafa88)" d="M 128.869969 135.635196 
L 152.427526 140.942593 
L 175.985083 139.910212 
L 199.54264 141.802975 
L 223.100197 137.506625 
L 246.657754 140.841345 
" style="fill:none;stroke:#ff0000;stroke-dasharray:11.1,4.8;stroke-dashoffset:0;stroke-width:3;"/>
   </g>
   <g id="line2d_29">
    <path clip-path="url(#p00d1eafa88)" d="M 128.869969 205.37721 
L 152.427526 213.149048 
L 175.985083 213.954007 
L 199.54264 196.942256 
L 223.100197 195.265029 
L 246.657754 201.121008 
" style="fill:none;stroke:#0000ff;stroke-dasharray:3,4.95;stroke-dashoffset:0;stroke-width:3;"/>
   </g>
   <g id="patch_3">
    <path d="M 90 295.2 
L 90 43.2 
" style="fill:none;stroke:#000000;stroke-linecap:square;stroke-linejoin:miter;stroke-width:0.8;"/>
   </g>
   <g id="patch_4">
    <path d="M 254.117647 295.2 
L 254.117647 43.2 
" style="fill:none;stroke:#000000;stroke-linecap:square;stroke-linejoin:miter;stroke-width:0.8;"/>
   </g>
   <g id="patch_5">
    <path d="M 90 295.2 
L 254.117647 295.2 
" style="fill:none;stroke:#000000;stroke-linecap:square;stroke-linejoin:miter;stroke-width:0.8;"/>
   </g>
   <g id="patch_6">
    <path d="M 90 43.2 
L 254.117647 43.2 
" style="fill:none;stroke:#000000;stroke-linecap:square;stroke-linejoin:miter;stroke-width:0.8;"/>
   </g>
   <g id="text_7">
    <!-- tuple -->
    <defs>
     <path d="M 8.5 21.578125 
L 8.5 54.6875 
L 17.484375 54.6875 
L 17.484375 21.921875 
Q 17.484375 14.15625 20.5 10.265625 
Q 23.53125 6.390625 29.59375 6.390625 
Q 36.859375 6.390625 41.078125 11.03125 
Q 45.3125 15.671875 45.3125 23.6875 
L 45.3125 54.6875 
L 54.296875 54.6875 
L 54.296875 0 
L 45.3125 0 
L 45.3125 8.40625 
Q 42.046875 3.421875 37.71875 1 
Q 33.40625 -1.421875 27.6875 -1.421875 
Q 18.265625 -1.421875 13.375 4.4375 
Q 8.5 10.296875 8.5 21.578125 
z
M 31.109375 56 
z
" id="DejaVuSans-117"/>
     <path d="M 9.421875 75.984375 
L 18.40625 75.984375 
L 18.40625 0 
L 9.421875 0 
z
" id="DejaVuSans-108"/>
    </defs>
    <g transform="translate(150.607324 32.16)scale(0.168 -0.168)">
     <use xlink:href="#DejaVuSans-116"/>
     <use x="39.208984" xlink:href="#DejaVuSans-117"/>
     <use x="102.587891" xlink:href="#DejaVuSans-112"/>
     <use x="166.064453" xlink:href="#DejaVuSans-108"/>
     <use x="193.847656" xlink:href="#DejaVuSans-101"/>
    </g>
   </g>
   <g id="legend_1">
    <g id="line2d_30">
     <path d="M 156.035047 53.817593 
L 172.247047 53.817593 
" style="fill:none;stroke:#0000ff;stroke-dasharray:1,1.65;stroke-dashoffset:0;"/>
    </g>
    <g id="line2d_31"/>
    <g id="text_8">
     <!-- indexed: $D=1$ -->
     <defs>
      <path d="M 45.40625 46.390625 
L 45.40625 75.984375 
L 54.390625 75.984375 
L 54.390625 0 
L 45.40625 0 
L 45.40625 8.203125 
Q 42.578125 3.328125 38.25 0.953125 
Q 33.9375 -1.421875 27.875 -1.421875 
Q 17.96875 -1.421875 11.734375 6.484375 
Q 5.515625 14.40625 5.515625 27.296875 
Q 5.515625 40.1875 11.734375 48.09375 
Q 17.96875 56 27.875 56 
Q 33.9375 56 38.25 53.625 
Q 42.578125 51.265625 45.40625 46.390625 
z
M 14.796875 27.296875 
Q 14.796875 17.390625 18.875 11.75 
Q 22.953125 6.109375 30.078125 6.109375 
Q 37.203125 6.109375 41.296875 11.75 
Q 45.40625 17.390625 45.40625 27.296875 
Q 45.40625 37.203125 41.296875 42.84375 
Q 37.203125 48.484375 30.078125 48.484375 
Q 22.953125 48.484375 18.875 42.84375 
Q 14.796875 37.203125 14.796875 27.296875 
z
" id="DejaVuSans-100"/>
      <path d="M 54.890625 54.6875 
L 35.109375 28.078125 
L 55.90625 0 
L 45.3125 0 
L 29.390625 21.484375 
L 13.484375 0 
L 2.875 0 
L 24.125 28.609375 
L 4.6875 54.6875 
L 15.28125 54.6875 
L 29.78125 35.203125 
L 44.28125 54.6875 
z
" id="DejaVuSans-120"/>
      <path d="M 11.71875 12.40625 
L 22.015625 12.40625 
L 22.015625 0 
L 11.71875 0 
z
M 11.71875 51.703125 
L 22.015625 51.703125 
L 22.015625 39.3125 
L 11.71875 39.3125 
z
" id="DejaVuSans-58"/>
      <path d="M 16.890625 72.90625 
L 38.09375 72.90625 
Q 54.984375 72.90625 63.59375 65.75 
Q 72.21875 58.59375 72.21875 44.484375 
Q 72.21875 35.15625 68.9375 26.53125 
Q 65.671875 17.921875 59.90625 12.015625 
Q 54.109375 5.953125 45.171875 2.96875 
Q 36.234375 0 24.03125 0 
L 2.6875 0 
z
M 25.203125 64.796875 
L 14.203125 8.109375 
L 27.09375 8.109375 
Q 43.65625 8.109375 52.734375 17.625 
Q 61.8125 27.15625 61.8125 44.484375 
Q 61.8125 54.984375 55.953125 59.890625 
Q 50.09375 64.796875 37.59375 64.796875 
z
" id="DejaVuSans-Oblique-68"/>
      <path d="M 10.59375 45.40625 
L 73.1875 45.40625 
L 73.1875 37.203125 
L 10.59375 37.203125 
z
M 10.59375 25.484375 
L 73.1875 25.484375 
L 73.1875 17.1875 
L 10.59375 17.1875 
z
" id="DejaVuSans-61"/>
     </defs>
     <g transform="translate(178.731847 56.654693)scale(0.08106 -0.08106)">
      <use transform="translate(0 0.015625)" xlink:href="#DejaVuSans-105"/>
      <use transform="translate(27.783203 0.015625)" xlink:href="#DejaVuSans-110"/>
      <use transform="translate(91.162109 0.015625)" xlink:href="#DejaVuSans-100"/>
      <use transform="translate(154.638672 0.015625)" xlink:href="#DejaVuSans-101"/>
      <use transform="translate(216.162109 0.015625)" xlink:href="#DejaVuSans-120"/>
      <use transform="translate(275.341797 0.015625)" xlink:href="#DejaVuSans-101"/>
      <use transform="translate(336.865234 0.015625)" xlink:href="#DejaVuSans-100"/>
      <use transform="translate(400.341797 0.015625)" xlink:href="#DejaVuSans-58"/>
      <use transform="translate(434.033203 0.015625)" xlink:href="#DejaVuSans-32"/>
      <use transform="translate(465.820312 0.015625)" xlink:href="#DejaVuSans-Oblique-68"/>
      <use transform="translate(562.304688 0.015625)" xlink:href="#DejaVuSans-61"/>
      <use transform="translate(665.576172 0.015625)" xlink:href="#DejaVuSans-49"/>
     </g>
    </g>
    <g id="line2d_32">
     <path d="M 156.035047 65.715682 
L 172.247047 65.715682 
" style="fill:none;stroke:#0000ff;stroke-dasharray:2,3.3;stroke-dashoffset:0;stroke-width:2;"/>
    </g>
    <g id="line2d_33"/>
    <g id="text_9">
     <!-- indexed: $D=2$ -->
     <g transform="translate(178.731847 68.552782)scale(0.08106 -0.08106)">
      <use transform="translate(0 0.015625)" xlink:href="#DejaVuSans-105"/>
      <use transform="translate(27.783203 0.015625)" xlink:href="#DejaVuSans-110"/>
      <use transform="translate(91.162109 0.015625)" xlink:href="#DejaVuSans-100"/>
      <use transform="translate(154.638672 0.015625)" xlink:href="#DejaVuSans-101"/>
      <use transform="translate(216.162109 0.015625)" xlink:href="#DejaVuSans-120"/>
      <use transform="translate(275.341797 0.015625)" xlink:href="#DejaVuSans-101"/>
      <use transform="translate(336.865234 0.015625)" xlink:href="#DejaVuSans-100"/>
      <use transform="translate(400.341797 0.015625)" xlink:href="#DejaVuSans-58"/>
      <use transform="translate(434.033203 0.015625)" xlink:href="#DejaVuSans-32"/>
      <use transform="translate(465.820312 0.015625)" xlink:href="#DejaVuSans-Oblique-68"/>
      <use transform="translate(562.304688 0.015625)" xlink:href="#DejaVuSans-61"/>
      <use transform="translate(665.576172 0.015625)" xlink:href="#DejaVuSans-50"/>
     </g>
    </g>
    <g id="line2d_34">
     <path d="M 156.035047 77.61377 
L 172.247047 77.61377 
" style="fill:none;stroke:#0000ff;stroke-dasharray:3,4.95;stroke-dashoffset:0;stroke-width:3;"/>
    </g>
    <g id="line2d_35"/>
    <g id="text_10">
     <!-- indexed: $D=3$ -->
     <defs>
      <path d="M 40.578125 39.3125 
Q 47.65625 37.796875 51.625 33 
Q 55.609375 28.21875 55.609375 21.1875 
Q 55.609375 10.40625 48.1875 4.484375 
Q 40.765625 -1.421875 27.09375 -1.421875 
Q 22.515625 -1.421875 17.65625 -0.515625 
Q 12.796875 0.390625 7.625 2.203125 
L 7.625 11.71875 
Q 11.71875 9.328125 16.59375 8.109375 
Q 21.484375 6.890625 26.8125 6.890625 
Q 36.078125 6.890625 40.9375 10.546875 
Q 45.796875 14.203125 45.796875 21.1875 
Q 45.796875 27.640625 41.28125 31.265625 
Q 36.765625 34.90625 28.71875 34.90625 
L 20.21875 34.90625 
L 20.21875 43.015625 
L 29.109375 43.015625 
Q 36.375 43.015625 40.234375 45.921875 
Q 44.09375 48.828125 44.09375 54.296875 
Q 44.09375 59.90625 40.109375 62.90625 
Q 36.140625 65.921875 28.71875 65.921875 
Q 24.65625 65.921875 20.015625 65.03125 
Q 15.375 64.15625 9.8125 62.3125 
L 9.8125 71.09375 
Q 15.4375 72.65625 20.34375 73.4375 
Q 25.25 74.21875 29.59375 74.21875 
Q 40.828125 74.21875 47.359375 69.109375 
Q 53.90625 64.015625 53.90625 55.328125 
Q 53.90625 49.265625 50.4375 45.09375 
Q 46.96875 40.921875 40.578125 39.3125 
z
" id="DejaVuSans-51"/>
     </defs>
     <g transform="translate(178.731847 80.45087)scale(0.08106 -0.08106)">
      <use transform="translate(0 0.015625)" xlink:href="#DejaVuSans-105"/>
      <use transform="translate(27.783203 0.015625)" xlink:href="#DejaVuSans-110"/>
      <use transform="translate(91.162109 0.015625)" xlink:href="#DejaVuSans-100"/>
      <use transform="translate(154.638672 0.015625)" xlink:href="#DejaVuSans-101"/>
      <use transform="translate(216.162109 0.015625)" xlink:href="#DejaVuSans-120"/>
      <use transform="translate(275.341797 0.015625)" xlink:href="#DejaVuSans-101"/>
      <use transform="translate(336.865234 0.015625)" xlink:href="#DejaVuSans-100"/>
      <use transform="translate(400.341797 0.015625)" xlink:href="#DejaVuSans-58"/>
      <use transform="translate(434.033203 0.015625)" xlink:href="#DejaVuSans-32"/>
      <use transform="translate(465.820312 0.015625)" xlink:href="#DejaVuSans-Oblique-68"/>
      <use transform="translate(562.304688 0.015625)" xlink:href="#DejaVuSans-61"/>
      <use transform="translate(665.576172 0.015625)" xlink:href="#DejaVuSans-51"/>
     </g>
    </g>
    <g id="line2d_36">
     <path d="M 156.035047 89.511858 
L 172.247047 89.511858 
" style="fill:none;stroke:#ff0000;stroke-dasharray:3.7,1.6;stroke-dashoffset:0;"/>
    </g>
    <g id="line2d_37"/>
    <g id="text_11">
     <!-- nested for: $D=1$ -->
     <defs>
      <path d="M 37.109375 75.984375 
L 37.109375 68.5 
L 28.515625 68.5 
Q 23.6875 68.5 21.796875 66.546875 
Q 19.921875 64.59375 19.921875 59.515625 
L 19.921875 54.6875 
L 34.71875 54.6875 
L 34.71875 47.703125 
L 19.921875 47.703125 
L 19.921875 0 
L 10.890625 0 
L 10.890625 47.703125 
L 2.296875 47.703125 
L 2.296875 54.6875 
L 10.890625 54.6875 
L 10.890625 58.5 
Q 10.890625 67.625 15.140625 71.796875 
Q 19.390625 75.984375 28.609375 75.984375 
z
" id="DejaVuSans-102"/>
      <path d="M 30.609375 48.390625 
Q 23.390625 48.390625 19.1875 42.75 
Q 14.984375 37.109375 14.984375 27.296875 
Q 14.984375 17.484375 19.15625 11.84375 
Q 23.34375 6.203125 30.609375 6.203125 
Q 37.796875 6.203125 41.984375 11.859375 
Q 46.1875 17.53125 46.1875 27.296875 
Q 46.1875 37.015625 41.984375 42.703125 
Q 37.796875 48.390625 30.609375 48.390625 
z
M 30.609375 56 
Q 42.328125 56 49.015625 48.375 
Q 55.71875 40.765625 55.71875 27.296875 
Q 55.71875 13.875 49.015625 6.21875 
Q 42.328125 -1.421875 30.609375 -1.421875 
Q 18.84375 -1.421875 12.171875 6.21875 
Q 5.515625 13.875 5.515625 27.296875 
Q 5.515625 40.765625 12.171875 48.375 
Q 18.84375 56 30.609375 56 
z
" id="DejaVuSans-111"/>
     </defs>
     <g transform="translate(178.731847 92.348958)scale(0.08106 -0.08106)">
      <use transform="translate(0 0.015625)" xlink:href="#DejaVuSans-110"/>
      <use transform="translate(63.378906 0.015625)" xlink:href="#DejaVuSans-101"/>
      <use transform="translate(124.902344 0.015625)" xlink:href="#DejaVuSans-115"/>
      <use transform="translate(177.001953 0.015625)" xlink:href="#DejaVuSans-116"/>
      <use transform="translate(216.210938 0.015625)" xlink:href="#DejaVuSans-101"/>
      <use transform="translate(277.734375 0.015625)" xlink:href="#DejaVuSans-100"/>
      <use transform="translate(341.210938 0.015625)" xlink:href="#DejaVuSans-32"/>
      <use transform="translate(372.998047 0.015625)" xlink:href="#DejaVuSans-102"/>
      <use transform="translate(408.203125 0.015625)" xlink:href="#DejaVuSans-111"/>
      <use transform="translate(469.384766 0.015625)" xlink:href="#DejaVuSans-114"/>
      <use transform="translate(510.498047 0.015625)" xlink:href="#DejaVuSans-58"/>
      <use transform="translate(544.189453 0.015625)" xlink:href="#DejaVuSans-32"/>
      <use transform="translate(575.976562 0.015625)" xlink:href="#DejaVuSans-Oblique-68"/>
      <use transform="translate(672.460938 0.015625)" xlink:href="#DejaVuSans-61"/>
      <use transform="translate(775.732422 0.015625)" xlink:href="#DejaVuSans-49"/>
     </g>
    </g>
    <g id="line2d_38">
     <path d="M 156.035047 101.409946 
L 172.247047 101.409946 
" style="fill:none;stroke:#ff0000;stroke-dasharray:7.4,3.2;stroke-dashoffset:0;stroke-width:2;"/>
    </g>
    <g id="line2d_39"/>
    <g id="text_12">
     <!-- nested for: $D=2$ -->
     <g transform="translate(178.731847 104.247046)scale(0.08106 -0.08106)">
      <use transform="translate(0 0.015625)" xlink:href="#DejaVuSans-110"/>
      <use transform="translate(63.378906 0.015625)" xlink:href="#DejaVuSans-101"/>
      <use transform="translate(124.902344 0.015625)" xlink:href="#DejaVuSans-115"/>
      <use transform="translate(177.001953 0.015625)" xlink:href="#DejaVuSans-116"/>
      <use transform="translate(216.210938 0.015625)" xlink:href="#DejaVuSans-101"/>
      <use transform="translate(277.734375 0.015625)" xlink:href="#DejaVuSans-100"/>
      <use transform="translate(341.210938 0.015625)" xlink:href="#DejaVuSans-32"/>
      <use transform="translate(372.998047 0.015625)" xlink:href="#DejaVuSans-102"/>
      <use transform="translate(408.203125 0.015625)" xlink:href="#DejaVuSans-111"/>
      <use transform="translate(469.384766 0.015625)" xlink:href="#DejaVuSans-114"/>
      <use transform="translate(510.498047 0.015625)" xlink:href="#DejaVuSans-58"/>
      <use transform="translate(544.189453 0.015625)" xlink:href="#DejaVuSans-32"/>
      <use transform="translate(575.976562 0.015625)" xlink:href="#DejaVuSans-Oblique-68"/>
      <use transform="translate(672.460938 0.015625)" xlink:href="#DejaVuSans-61"/>
      <use transform="translate(775.732422 0.015625)" xlink:href="#DejaVuSans-50"/>
     </g>
    </g>
    <g id="line2d_40">
     <path d="M 156.035047 113.308034 
L 172.247047 113.308034 
" style="fill:none;stroke:#ff0000;stroke-dasharray:11.1,4.8;stroke-dashoffset:0;stroke-width:3;"/>
    </g>
    <g id="line2d_41"/>
    <g id="text_13">
     <!-- nested for: $D=3$ -->
     <g transform="translate(178.731847 116.145134)scale(0.08106 -0.08106)">
      <use transform="translate(0 0.015625)" xlink:href="#DejaVuSans-110"/>
      <use transform="translate(63.378906 0.015625)" xlink:href="#DejaVuSans-101"/>
      <use transform="translate(124.902344 0.015625)" xlink:href="#DejaVuSans-115"/>
      <use transform="translate(177.001953 0.015625)" xlink:href="#DejaVuSans-116"/>
      <use transform="translate(216.210938 0.015625)" xlink:href="#DejaVuSans-101"/>
      <use transform="translate(277.734375 0.015625)" xlink:href="#DejaVuSans-100"/>
      <use transform="translate(341.210938 0.015625)" xlink:href="#DejaVuSans-32"/>
      <use transform="translate(372.998047 0.015625)" xlink:href="#DejaVuSans-102"/>
      <use transform="translate(408.203125 0.015625)" xlink:href="#DejaVuSans-111"/>
      <use transform="translate(469.384766 0.015625)" xlink:href="#DejaVuSans-114"/>
      <use transform="translate(510.498047 0.015625)" xlink:href="#DejaVuSans-58"/>
      <use transform="translate(544.189453 0.015625)" xlink:href="#DejaVuSans-32"/>
      <use transform="translate(575.976562 0.015625)" xlink:href="#DejaVuSans-Oblique-68"/>
      <use transform="translate(672.460938 0.015625)" xlink:href="#DejaVuSans-61"/>
      <use transform="translate(775.732422 0.015625)" xlink:href="#DejaVuSans-51"/>
     </g>
    </g>
   </g>
  </g>
  <g id="axes_2">
   <g id="patch_7">
    <path d="M 286.941176 295.2 
L 451.058824 295.2 
L 451.058824 43.2 
L 286.941176 43.2 
z
" style="fill:#ffffff;"/>
   </g>
   <g id="matplotlib.axis_3">
    <g id="xtick_4">
     <g id="line2d_42">
      <g>
       <use style="stroke:#000000;stroke-width:0.8;" x="330.867038" xlink:href="#md69f6b2231" y="295.2"/>
      </g>
     </g>
     <g id="text_14">
      <!-- $\mathdefault{10^{2}}$ -->
      <g transform="translate(318.547038 312.837812)scale(0.14 -0.14)">
       <use transform="translate(0 0.765625)" xlink:href="#DejaVuSans-49"/>
       <use transform="translate(63.623047 0.765625)" xlink:href="#DejaVuSans-48"/>
       <use transform="translate(128.203125 39.046875)scale(0.7)" xlink:href="#DejaVuSans-50"/>
      </g>
     </g>
    </g>
    <g id="xtick_5">
     <g id="line2d_43">
      <g>
       <use style="stroke:#000000;stroke-width:0.8;" x="383.038045" xlink:href="#md69f6b2231" y="295.2"/>
      </g>
     </g>
     <g id="text_15">
      <!-- $\mathdefault{10^{4}}$ -->
      <g transform="translate(370.718045 312.837812)scale(0.14 -0.14)">
       <use transform="translate(0 0.684375)" xlink:href="#DejaVuSans-49"/>
       <use transform="translate(63.623047 0.684375)" xlink:href="#DejaVuSans-48"/>
       <use transform="translate(128.203125 38.965625)scale(0.7)" xlink:href="#DejaVuSans-52"/>
      </g>
     </g>
    </g>
    <g id="xtick_6">
     <g id="line2d_44">
      <g>
       <use style="stroke:#000000;stroke-width:0.8;" x="435.209052" xlink:href="#md69f6b2231" y="295.2"/>
      </g>
     </g>
     <g id="text_16">
      <!-- $\mathdefault{10^{6}}$ -->
      <g transform="translate(422.889052 312.837812)scale(0.14 -0.14)">
       <use transform="translate(0 0.765625)" xlink:href="#DejaVuSans-49"/>
       <use transform="translate(63.623047 0.765625)" xlink:href="#DejaVuSans-48"/>
       <use transform="translate(128.203125 39.046875)scale(0.7)" xlink:href="#DejaVuSans-54"/>
      </g>
     </g>
    </g>
   </g>
   <g id="matplotlib.axis_4">
    <g id="ytick_21">
     <g id="line2d_45">
      <g>
       <use style="stroke:#000000;stroke-width:0.8;" x="286.941176" xlink:href="#m845dbcff73" y="237.906026"/>
      </g>
     </g>
    </g>
    <g id="ytick_22">
     <g id="line2d_46">
      <g>
       <use style="stroke:#000000;stroke-width:0.8;" x="286.941176" xlink:href="#m845dbcff73" y="124.660578"/>
      </g>
     </g>
    </g>
    <g id="ytick_23">
     <g id="line2d_47">
      <g>
       <use style="stroke:#000000;stroke-width:0.6;" x="286.941176" xlink:href="#mb75c8b00c5" y="282.970921"/>
      </g>
     </g>
    </g>
    <g id="ytick_24">
     <g id="line2d_48">
      <g>
       <use style="stroke:#000000;stroke-width:0.6;" x="286.941176" xlink:href="#mb75c8b00c5" y="271.996303"/>
      </g>
     </g>
    </g>
    <g id="ytick_25">
     <g id="line2d_49">
      <g>
       <use style="stroke:#000000;stroke-width:0.6;" x="286.941176" xlink:href="#mb75c8b00c5" y="263.029387"/>
      </g>
     </g>
    </g>
    <g id="ytick_26">
     <g id="line2d_50">
      <g>
       <use style="stroke:#000000;stroke-width:0.6;" x="286.941176" xlink:href="#mb75c8b00c5" y="255.447968"/>
      </g>
     </g>
    </g>
    <g id="ytick_27">
     <g id="line2d_51">
      <g>
       <use style="stroke:#000000;stroke-width:0.6;" x="286.941176" xlink:href="#mb75c8b00c5" y="248.880644"/>
      </g>
     </g>
    </g>
    <g id="ytick_28">
     <g id="line2d_52">
      <g>
       <use style="stroke:#000000;stroke-width:0.6;" x="286.941176" xlink:href="#mb75c8b00c5" y="243.087854"/>
      </g>
     </g>
    </g>
    <g id="ytick_29">
     <g id="line2d_53">
      <g>
       <use style="stroke:#000000;stroke-width:0.6;" x="286.941176" xlink:href="#mb75c8b00c5" y="203.815749"/>
      </g>
     </g>
    </g>
    <g id="ytick_30">
     <g id="line2d_54">
      <g>
       <use style="stroke:#000000;stroke-width:0.6;" x="286.941176" xlink:href="#mb75c8b00c5" y="183.874216"/>
      </g>
     </g>
    </g>
    <g id="ytick_31">
     <g id="line2d_55">
      <g>
       <use style="stroke:#000000;stroke-width:0.6;" x="286.941176" xlink:href="#mb75c8b00c5" y="169.725472"/>
      </g>
     </g>
    </g>
    <g id="ytick_32">
     <g id="line2d_56">
      <g>
       <use style="stroke:#000000;stroke-width:0.6;" x="286.941176" xlink:href="#mb75c8b00c5" y="158.750855"/>
      </g>
     </g>
    </g>
    <g id="ytick_33">
     <g id="line2d_57">
      <g>
       <use style="stroke:#000000;stroke-width:0.6;" x="286.941176" xlink:href="#mb75c8b00c5" y="149.783939"/>
      </g>
     </g>
    </g>
    <g id="ytick_34">
     <g id="line2d_58">
      <g>
       <use style="stroke:#000000;stroke-width:0.6;" x="286.941176" xlink:href="#mb75c8b00c5" y="142.20252"/>
      </g>
     </g>
    </g>
    <g id="ytick_35">
     <g id="line2d_59">
      <g>
       <use style="stroke:#000000;stroke-width:0.6;" x="286.941176" xlink:href="#mb75c8b00c5" y="135.635196"/>
      </g>
     </g>
    </g>
    <g id="ytick_36">
     <g id="line2d_60">
      <g>
       <use style="stroke:#000000;stroke-width:0.6;" x="286.941176" xlink:href="#mb75c8b00c5" y="129.842405"/>
      </g>
     </g>
    </g>
    <g id="ytick_37">
     <g id="line2d_61">
      <g>
       <use style="stroke:#000000;stroke-width:0.6;" x="286.941176" xlink:href="#mb75c8b00c5" y="90.570301"/>
      </g>
     </g>
    </g>
    <g id="ytick_38">
     <g id="line2d_62">
      <g>
       <use style="stroke:#000000;stroke-width:0.6;" x="286.941176" xlink:href="#mb75c8b00c5" y="70.628767"/>
      </g>
     </g>
    </g>
    <g id="ytick_39">
     <g id="line2d_63">
      <g>
       <use style="stroke:#000000;stroke-width:0.6;" x="286.941176" xlink:href="#mb75c8b00c5" y="56.480024"/>
      </g>
     </g>
    </g>
    <g id="ytick_40">
     <g id="line2d_64">
      <g>
       <use style="stroke:#000000;stroke-width:0.6;" x="286.941176" xlink:href="#mb75c8b00c5" y="45.505406"/>
      </g>
     </g>
    </g>
    <g id="text_17">
     <!-- CPU time in ns per bin -->
     <g transform="translate(280.029614 247.287188)rotate(-90)scale(0.14 -0.14)">
      <use xlink:href="#DejaVuSans-67"/>
      <use x="69.824219" xlink:href="#DejaVuSans-80"/>
      <use x="130.126953" xlink:href="#DejaVuSans-85"/>
      <use x="203.320312" xlink:href="#DejaVuSans-32"/>
      <use x="235.107422" xlink:href="#DejaVuSans-116"/>
      <use x="274.316406" xlink:href="#DejaVuSans-105"/>
      <use x="302.099609" xlink:href="#DejaVuSans-109"/>
      <use x="399.511719" xlink:href="#DejaVuSans-101"/>
      <use x="461.035156" xlink:href="#DejaVuSans-32"/>
      <use x="492.822266" xlink:href="#DejaVuSans-105"/>
      <use x="520.605469" xlink:href="#DejaVuSans-110"/>
      <use x="583.984375" xlink:href="#DejaVuSans-32"/>
      <use x="615.771484" xlink:href="#DejaVuSans-110"/>
      <use x="679.150391" xlink:href="#DejaVuSans-115"/>
      <use x="731.25" xlink:href="#DejaVuSans-32"/>
      <use x="763.037109" xlink:href="#DejaVuSans-112"/>
      <use x="826.513672" xlink:href="#DejaVuSans-101"/>
      <use x="888.037109" xlink:href="#DejaVuSans-114"/>
      <use x="929.150391" xlink:href="#DejaVuSans-32"/>
      <use x="960.9375" xlink:href="#DejaVuSans-98"/>
      <use x="1024.414062" xlink:href="#DejaVuSans-105"/>
      <use x="1052.197266" xlink:href="#DejaVuSans-110"/>
     </g>
    </g>
   </g>
   <g id="line2d_65">
    <path clip-path="url(#peed67f1aa5)" d="M 294.40107 187.70851 
L 302.253589 187.70851 
L 310.106108 184.079568 
L 317.958627 180.892583 
L 325.811146 184.131041 
L 333.663665 188.293518 
" style="fill:none;stroke:#ff0000;stroke-dasharray:3.7,1.6;stroke-dashoffset:0;"/>
   </g>
   <g id="line2d_66">
    <path clip-path="url(#peed67f1aa5)" d="M 294.40107 191.387374 
L 302.253589 210.033023 
L 310.106108 210.559037 
L 317.958627 194.275834 
L 325.811146 197.008864 
L 333.663665 197.176434 
" style="fill:none;stroke:#0000ff;stroke-dasharray:1,1.65;stroke-dashoffset:0;"/>
   </g>
   <g id="line2d_67">
    <path clip-path="url(#peed67f1aa5)" d="M 310.106108 203.509319 
L 325.811146 205.37721 
L 341.516184 206.887519 
L 357.221222 197.682599 
L 372.926259 200.529933 
L 388.631297 207.370776 
" style="fill:none;stroke:#ff0000;stroke-dasharray:7.4,3.2;stroke-dashoffset:0;stroke-width:2;"/>
   </g>
   <g id="line2d_68">
    <path clip-path="url(#peed67f1aa5)" d="M 310.106108 201.709782 
L 325.811146 200.834117 
L 341.516184 213.557199 
L 357.221222 188.999153 
L 372.926259 191.668892 
L 388.631297 192.740373 
" style="fill:none;stroke:#0000ff;stroke-dasharray:2,3.3;stroke-dashoffset:0;stroke-width:2;"/>
   </g>
   <g id="line2d_69">
    <path clip-path="url(#peed67f1aa5)" d="M 325.811146 137.295913 
L 349.368703 138.286986 
L 372.926259 130.195886 
L 396.483816 132.355171 
L 420.041373 132.51761 
L 443.59893 133.790624 
" style="fill:none;stroke:#ff0000;stroke-dasharray:11.1,4.8;stroke-dashoffset:0;stroke-width:3;"/>
   </g>
   <g id="line2d_70">
    <path clip-path="url(#peed67f1aa5)" d="M 325.811146 200.834117 
L 349.368703 200.518703 
L 372.926259 213.462147 
L 396.483816 191.662444 
L 420.041373 195.392041 
L 443.59893 199.861344 
" style="fill:none;stroke:#0000ff;stroke-dasharray:3,4.95;stroke-dashoffset:0;stroke-width:3;"/>
   </g>
   <g id="patch_8">
    <path d="M 286.941176 295.2 
L 286.941176 43.2 
" style="fill:none;stroke:#000000;stroke-linecap:square;stroke-linejoin:miter;stroke-width:0.8;"/>
   </g>
   <g id="patch_9">
    <path d="M 451.058824 295.2 
L 451.058824 43.2 
" style="fill:none;stroke:#000000;stroke-linecap:square;stroke-linejoin:miter;stroke-width:0.8;"/>
   </g>
   <g id="patch_10">
    <path d="M 286.941176 295.2 
L 451.058824 295.2 
" style="fill:none;stroke:#000000;stroke-linecap:square;stroke-linejoin:miter;stroke-width:0.8;"/>
   </g>
   <g id="patch_11">
    <path d="M 286.941176 43.2 
L 451.058824 43.2 
" style="fill:none;stroke:#000000;stroke-linecap:square;stroke-linejoin:miter;stroke-width:0.8;"/>
   </g>
   <g id="text_18">
    <!-- vector -->
    <defs>
     <path d="M 2.984375 54.6875 
L 12.5 54.6875 
L 29.59375 8.796875 
L 46.6875 54.6875 
L 56.203125 54.6875 
L 35.6875 0 
L 23.484375 0 
z
" id="DejaVuSans-118"/>
     <path d="M 48.78125 52.59375 
L 48.78125 44.1875 
Q 44.96875 46.296875 41.140625 47.34375 
Q 37.3125 48.390625 33.40625 48.390625 
Q 24.65625 48.390625 19.8125 42.84375 
Q 14.984375 37.3125 14.984375 27.296875 
Q 14.984375 17.28125 19.8125 11.734375 
Q 24.65625 6.203125 33.40625 6.203125 
Q 37.3125 6.203125 41.140625 7.25 
Q 44.96875 8.296875 48.78125 10.40625 
L 48.78125 2.09375 
Q 45.015625 0.34375 40.984375 -0.53125 
Q 36.96875 -1.421875 32.421875 -1.421875 
Q 20.0625 -1.421875 12.78125 6.34375 
Q 5.515625 14.109375 5.515625 27.296875 
Q 5.515625 40.671875 12.859375 48.328125 
Q 20.21875 56 33.015625 56 
Q 37.15625 56 41.109375 55.140625 
Q 45.0625 54.296875 48.78125 52.59375 
z
" id="DejaVuSans-99"/>
    </defs>
    <g transform="translate(342.354938 32.16)scale(0.168 -0.168)">
     <use xlink:href="#DejaVuSans-118"/>
     <use x="59.179688" xlink:href="#DejaVuSans-101"/>
     <use x="120.703125" xlink:href="#DejaVuSans-99"/>
     <use x="175.683594" xlink:href="#DejaVuSans-116"/>
     <use x="214.892578" xlink:href="#DejaVuSans-111"/>
     <use x="276.074219" xlink:href="#DejaVuSans-114"/>
    </g>
   </g>
   <g id="legend_2">
    <g id="line2d_71">
     <path d="M 352.976224 53.817593 
L 369.188224 53.817593 
" style="fill:none;stroke:#0000ff;stroke-dasharray:1,1.65;stroke-dashoffset:0;"/>
    </g>
    <g id="line2d_72"/>
    <g id="text_19">
     <!-- indexed: $D=1$ -->
     <g transform="translate(375.673024 56.654693)scale(0.08106 -0.08106)">
      <use transform="translate(0 0.015625)" xlink:href="#DejaVuSans-105"/>
      <use transform="translate(27.783203 0.015625)" xlink:href="#DejaVuSans-110"/>
      <use transform="translate(91.162109 0.015625)" xlink:href="#DejaVuSans-100"/>
      <use transform="translate(154.638672 0.015625)" xlink:href="#DejaVuSans-101"/>
      <use transform="translate(216.162109 0.015625)" xlink:href="#DejaVuSans-120"/>
      <use transform="translate(275.341797 0.015625)" xlink:href="#DejaVuSans-101"/>
      <use transform="translate(336.865234 0.015625)" xlink:href="#DejaVuSans-100"/>
      <use transform="translate(400.341797 0.015625)" xlink:href="#DejaVuSans-58"/>
      <use transform="translate(434.033203 0.015625)" xlink:href="#DejaVuSans-32"/>
      <use transform="translate(465.820312 0.015625)" xlink:href="#DejaVuSans-Oblique-68"/>
      <use transform="translate(562.304688 0.015625)" xlink:href="#DejaVuSans-61"/>
      <use transform="translate(665.576172 0.015625)" xlink:href="#DejaVuSans-49"/>
     </g>
    </g>
    <g id="line2d_73">
     <path d="M 352.976224 65.715682 
L 369.188224 65.715682 
" style="fill:none;stroke:#0000ff;stroke-dasharray:2,3.3;stroke-dashoffset:0;stroke-width:2;"/>
    </g>
    <g id="line2d_74"/>
    <g id="text_20">
     <!-- indexed: $D=2$ -->
     <g transform="translate(375.673024 68.552782)scale(0.08106 -0.08106)">
      <use transform="translate(0 0.015625)" xlink:href="#DejaVuSans-105"/>
      <use transform="translate(27.783203 0.015625)" xlink:href="#DejaVuSans-110"/>
      <use transform="translate(91.162109 0.015625)" xlink:href="#DejaVuSans-100"/>
      <use transform="translate(154.638672 0.015625)" xlink:href="#DejaVuSans-101"/>
      <use transform="translate(216.162109 0.015625)" xlink:href="#DejaVuSans-120"/>
      <use transform="translate(275.341797 0.015625)" xlink:href="#DejaVuSans-101"/>
      <use transform="translate(336.865234 0.015625)" xlink:href="#DejaVuSans-100"/>
      <use transform="translate(400.341797 0.015625)" xlink:href="#DejaVuSans-58"/>
      <use transform="translate(434.033203 0.015625)" xlink:href="#DejaVuSans-32"/>
      <use transform="translate(465.820312 0.015625)" xlink:href="#DejaVuSans-Oblique-68"/>
      <use transform="translate(562.304688 0.015625)" xlink:href="#DejaVuSans-61"/>
      <use transform="translate(665.576172 0.015625)" xlink:href="#DejaVuSans-50"/>
     </g>
    </g>
    <g id="line2d_75">
     <path d="M 352.976224 77.61377 
L 369.188224 77.61377 
" style="fill:none;stroke:#0000ff;stroke-dasharray:3,4.95;stroke-dashoffset:0;stroke-width:3;"/>
    </g>
    <g id="line2d_76"/>
    <g id="text_21">
     <!-- indexed: $D=3$ -->
     <g transform="translate(375.673024 80.45087)scale(0.08106 -0.08106)">
      <use transform="translate(0 0.015625)" xlink:href="#DejaVuSans-105"/>
      <use transform="translate(27.783203 0.015625)" xlink:href="#DejaVuSans-110"/>
      <use transform="translate(91.162109 0.015625)" xlink:href="#DejaVuSans-100"/>
      <use transform="translate(154.638672 0.015625)" xlink:href="#DejaVuSans-101"/>
      <use transform="translate(216.162109 0.015625)" xlink:href="#DejaVuSans-120"/>
      <use transform="translate(275.341797 0.015625)" xlink:href="#DejaVuSans-101"/>
      <use transform="translate(336.865234 0.015625)" xlink:href="#DejaVuSans-100"/>
      <use transform="translate(400.341797 0.015625)" xlink:href="#DejaVuSans-58"/>
      <use transform="translate(434.033203 0.015625)" xlink:href="#DejaVuSans-32"/>
      <use transform="translate(465.820312 0.015625)" xlink:href="#DejaVuSans-Oblique-68"/>
      <use transform="translate(562.304688 0.015625)" xlink:href="#DejaVuSans-61"/>
      <use transform="translate(665.576172 0.015625)" xlink:href="#DejaVuSans-51"/>
     </g>
    </g>
    <g id="line2d_77">
     <path d="M 352.976224 89.511858 
L 369.188224 89.511858 
" style="fill:none;stroke:#ff0000;stroke-dasharray:3.7,1.6;stroke-dashoffset:0;"/>
    </g>
    <g id="line2d_78"/>
    <g id="text_22">
     <!-- nested for: $D=1$ -->
     <g transform="translate(375.673024 92.348958)scale(0.08106 -0.08106)">
      <use transform="translate(0 0.015625)" xlink:href="#DejaVuSans-110"/>
      <use transform="translate(63.378906 0.015625)" xlink:href="#DejaVuSans-101"/>
      <use transform="translate(124.902344 0.015625)" xlink:href="#DejaVuSans-115"/>
      <use transform="translate(177.001953 0.015625)" xlink:href="#DejaVuSans-116"/>
      <use transform="translate(216.210938 0.015625)" xlink:href="#DejaVuSans-101"/>
      <use transform="translate(277.734375 0.015625)" xlink:href="#DejaVuSans-100"/>
      <use transform="translate(341.210938 0.015625)" xlink:href="#DejaVuSans-32"/>
      <use transform="translate(372.998047 0.015625)" xlink:href="#DejaVuSans-102"/>
      <use transform="translate(408.203125 0.015625)" xlink:href="#DejaVuSans-111"/>
      <use transform="translate(469.384766 0.015625)" xlink:href="#DejaVuSans-114"/>
      <use transform="translate(510.498047 0.015625)" xlink:href="#DejaVuSans-58"/>
      <use transform="translate(544.189453 0.015625)" xlink:href="#DejaVuSans-32"/>
      <use transform="translate(575.976562 0.015625)" xlink:href="#DejaVuSans-Oblique-68"/>
      <use transform="translate(672.460938 0.015625)" xlink:href="#DejaVuSans-61"/>
      <use transform="translate(775.732422 0.015625)" xlink:href="#DejaVuSans-49"/>
     </g>
    </g>
    <g id="line2d_79">
     <path d="M 352.976224 101.409946 
L 369.188224 101.409946 
" style="fill:none;stroke:#ff0000;stroke-dasharray:7.4,3.2;stroke-dashoffset:0;stroke-width:2;"/>
    </g>
    <g id="line2d_80"/>
    <g id="text_23">
     <!-- nested for: $D=2$ -->
     <g transform="translate(375.673024 104.247046)scale(0.08106 -0.08106)">
      <use transform="translate(0 0.015625)" xlink:href="#DejaVuSans-110"/>
      <use transform="translate(63.378906 0.015625)" xlink:href="#DejaVuSans-101"/>
      <use transform="translate(124.902344 0.015625)" xlink:href="#DejaVuSans-115"/>
      <use transform="translate(177.001953 0.015625)" xlink:href="#DejaVuSans-116"/>
      <use transform="translate(216.210938 0.015625)" xlink:href="#DejaVuSans-101"/>
      <use transform="translate(277.734375 0.015625)" xlink:href="#DejaVuSans-100"/>
      <use transform="translate(341.210938 0.015625)" xlink:href="#DejaVuSans-32"/>
      <use transform="translate(372.998047 0.015625)" xlink:href="#DejaVuSans-102"/>
      <use transform="translate(408.203125 0.015625)" xlink:href="#DejaVuSans-111"/>
      <use transform="translate(469.384766 0.015625)" xlink:href="#DejaVuSans-114"/>
      <use transform="translate(510.498047 0.015625)" xlink:href="#DejaVuSans-58"/>
      <use transform="translate(544.189453 0.015625)" xlink:href="#DejaVuSans-32"/>
      <use transform="translate(575.976562 0.015625)" xlink:href="#DejaVuSans-Oblique-68"/>
      <use transform="translate(672.460938 0.015625)" xlink:href="#DejaVuSans-61"/>
      <use transform="translate(775.732422 0.015625)" xlink:href="#DejaVuSans-50"/>
     </g>
    </g>
    <g id="line2d_81">
     <path d="M 352.976224 113.308034 
L 369.188224 113.308034 
" style="fill:none;stroke:#ff0000;stroke-dasharray:11.1,4.8;stroke-dashoffset:0;stroke-width:3;"/>
    </g>
    <g id="line2d_82"/>
    <g id="text_24">
     <!-- nested for: $D=3$ -->
     <g transform="translate(375.673024 116.145134)scale(0.08106 -0.08106)">
      <use transform="translate(0 0.015625)" xlink:href="#DejaVuSans-110"/>
      <use transform="translate(63.378906 0.015625)" xlink:href="#DejaVuSans-101"/>
      <use transform="translate(124.902344 0.015625)" xlink:href="#DejaVuSans-115"/>
      <use transform="translate(177.001953 0.015625)" xlink:href="#DejaVuSans-116"/>
      <use transform="translate(216.210938 0.015625)" xlink:href="#DejaVuSans-101"/>
      <use transform="translate(277.734375 0.015625)" xlink:href="#DejaVuSans-100"/>
      <use transform="translate(341.210938 0.015625)" xlink:href="#DejaVuSans-32"/>
      <use transform="translate(372.998047 0.015625)" xlink:href="#DejaVuSans-102"/>
      <use transform="translate(408.203125 0.015625)" xlink:href="#DejaVuSans-111"/>
      <use transform="translate(469.384766 0.015625)" xlink:href="#DejaVuSans-114"/>
      <use transform="translate(510.498047 0.015625)" xlink:href="#DejaVuSans-58"/>
      <use transform="translate(544.189453 0.015625)" xlink:href="#DejaVuSans-32"/>
      <use transform="translate(575.976562 0.015625)" xlink:href="#DejaVuSans-Oblique-68"/>
      <use transform="translate(672.460938 0.015625)" xlink:href="#DejaVuSans-61"/>
      <use transform="translate(775.732422 0.015625)" xlink:href="#DejaVuSans-51"/>
     </g>
    </g>
   </g>
  </g>
  <g id="axes_3">
   <g id="patch_12">
    <path d="M 483.882353 295.2 
L 648 295.2 
L 648 43.2 
L 483.882353 43.2 
z
" style="fill:#ffffff;"/>
   </g>
   <g id="matplotlib.axis_5">
    <g id="xtick_7">
     <g id="line2d_83">
      <g>
       <use style="stroke:#000000;stroke-width:0.8;" x="527.808215" xlink:href="#md69f6b2231" y="295.2"/>
      </g>
     </g>
     <g id="text_25">
      <!-- $\mathdefault{10^{2}}$ -->
      <g transform="translate(515.488215 312.837812)scale(0.14 -0.14)">
       <use transform="translate(0 0.765625)" xlink:href="#DejaVuSans-49"/>
       <use transform="translate(63.623047 0.765625)" xlink:href="#DejaVuSans-48"/>
       <use transform="translate(128.203125 39.046875)scale(0.7)" xlink:href="#DejaVuSans-50"/>
      </g>
     </g>
    </g>
    <g id="xtick_8">
     <g id="line2d_84">
      <g>
       <use style="stroke:#000000;stroke-width:0.8;" x="579.979222" xlink:href="#md69f6b2231" y="295.2"/>
      </g>
     </g>
     <g id="text_26">
      <!-- $\mathdefault{10^{4}}$ -->
      <g transform="translate(567.659222 312.837812)scale(0.14 -0.14)">
       <use transform="translate(0 0.684375)" xlink:href="#DejaVuSans-49"/>
       <use transform="translate(63.623047 0.684375)" xlink:href="#DejaVuSans-48"/>
       <use transform="translate(128.203125 38.965625)scale(0.7)" xlink:href="#DejaVuSans-52"/>
      </g>
     </g>
    </g>
    <g id="xtick_9">
     <g id="line2d_85">
      <g>
       <use style="stroke:#000000;stroke-width:0.8;" x="632.150229" xlink:href="#md69f6b2231" y="295.2"/>
      </g>
     </g>
     <g id="text_27">
      <!-- $\mathdefault{10^{6}}$ -->
      <g transform="translate(619.830229 312.837812)scale(0.14 -0.14)">
       <use transform="translate(0 0.765625)" xlink:href="#DejaVuSans-49"/>
       <use transform="translate(63.623047 0.765625)" xlink:href="#DejaVuSans-48"/>
       <use transform="translate(128.203125 39.046875)scale(0.7)" xlink:href="#DejaVuSans-54"/>
      </g>
     </g>
    </g>
   </g>
   <g id="matplotlib.axis_6">
    <g id="ytick_41">
     <g id="line2d_86">
      <g>
       <use style="stroke:#000000;stroke-width:0.8;" x="483.882353" xlink:href="#m845dbcff73" y="237.906026"/>
      </g>
     </g>
    </g>
    <g id="ytick_42">
     <g id="line2d_87">
      <g>
       <use style="stroke:#000000;stroke-width:0.8;" x="483.882353" xlink:href="#m845dbcff73" y="124.660578"/>
      </g>
     </g>
    </g>
    <g id="ytick_43">
     <g id="line2d_88">
      <g>
       <use style="stroke:#000000;stroke-width:0.6;" x="483.882353" xlink:href="#mb75c8b00c5" y="282.970921"/>
      </g>
     </g>
    </g>
    <g id="ytick_44">
     <g id="line2d_89">
      <g>
       <use style="stroke:#000000;stroke-width:0.6;" x="483.882353" xlink:href="#mb75c8b00c5" y="271.996303"/>
      </g>
     </g>
    </g>
    <g id="ytick_45">
     <g id="line2d_90">
      <g>
       <use style="stroke:#000000;stroke-width:0.6;" x="483.882353" xlink:href="#mb75c8b00c5" y="263.029387"/>
      </g>
     </g>
    </g>
    <g id="ytick_46">
     <g id="line2d_91">
      <g>
       <use style="stroke:#000000;stroke-width:0.6;" x="483.882353" xlink:href="#mb75c8b00c5" y="255.447968"/>
      </g>
     </g>
    </g>
    <g id="ytick_47">
     <g id="line2d_92">
      <g>
       <use style="stroke:#000000;stroke-width:0.6;" x="483.882353" xlink:href="#mb75c8b00c5" y="248.880644"/>
      </g>
     </g>
    </g>
    <g id="ytick_48">
     <g id="line2d_93">
      <g>
       <use style="stroke:#000000;stroke-width:0.6;" x="483.882353" xlink:href="#mb75c8b00c5" y="243.087854"/>
      </g>
     </g>
    </g>
    <g id="ytick_49">
     <g id="line2d_94">
      <g>
       <use style="stroke:#000000;stroke-width:0.6;" x="483.882353" xlink:href="#mb75c8b00c5" y="203.815749"/>
      </g>
     </g>
    </g>
    <g id="ytick_50">
     <g id="line2d_95">
      <g>
       <use style="stroke:#000000;stroke-width:0.6;" x="483.882353" xlink:href="#mb75c8b00c5" y="183.874216"/>
      </g>
     </g>
    </g>
    <g id="ytick_51">
     <g id="line2d_96">
      <g>
       <use style="stroke:#000000;stroke-width:0.6;" x="483.882353" xlink:href="#mb75c8b00c5" y="169.725472"/>
      </g>
     </g>
    </g>
    <g id="ytick_52">
     <g id="line2d_97">
      <g>
       <use style="stroke:#000000;stroke-width:0.6;" x="483.882353" xlink:href="#mb75c8b00c5" y="158.750855"/>
      </g>
     </g>
    </g>
    <g id="ytick_53">
     <g id="line2d_98">
      <g>
       <use style="stroke:#000000;stroke-width:0.6;" x="483.882353" xlink:href="#mb75c8b00c5" y="149.783939"/>
      </g>
     </g>
    </g>
    <g id="ytick_54">
     <g id="line2d_99">
      <g>
       <use style="stroke:#000000;stroke-width:0.6;" x="483.882353" xlink:href="#mb75c8b00c5" y="142.20252"/>
      </g>
     </g>
    </g>
    <g id="ytick_55">
     <g id="line2d_100">
      <g>
       <use style="stroke:#000000;stroke-width:0.6;" x="483.882353" xlink:href="#mb75c8b00c5" y="135.635196"/>
      </g>
     </g>
    </g>
    <g id="ytick_56">
     <g id="line2d_101">
      <g>
       <use style="stroke:#000000;stroke-width:0.6;" x="483.882353" xlink:href="#mb75c8b00c5" y="129.842405"/>
      </g>
     </g>
    </g>
    <g id="ytick_57">
     <g id="line2d_102">
      <g>
       <use style="stroke:#000000;stroke-width:0.6;" x="483.882353" xlink:href="#mb75c8b00c5" y="90.570301"/>
      </g>
     </g>
    </g>
    <g id="ytick_58">
     <g id="line2d_103">
      <g>
       <use style="stroke:#000000;stroke-width:0.6;" x="483.882353" xlink:href="#mb75c8b00c5" y="70.628767"/>
      </g>
     </g>
    </g>
    <g id="ytick_59">
     <g id="line2d_104">
      <g>
       <use style="stroke:#000000;stroke-width:0.6;" x="483.882353" xlink:href="#mb75c8b00c5" y="56.480024"/>
      </g>
     </g>
    </g>
    <g id="ytick_60">
     <g id="line2d_105">
      <g>
       <use style="stroke:#000000;stroke-width:0.6;" x="483.882353" xlink:href="#mb75c8b00c5" y="45.505406"/>
      </g>
     </g>
    </g>
    <g id="text_28">
     <!-- CPU time in ns per bin -->
     <g transform="translate(476.97079 247.287188)rotate(-90)scale(0.14 -0.14)">
      <use xlink:href="#DejaVuSans-67"/>
      <use x="69.824219" xlink:href="#DejaVuSans-80"/>
      <use x="130.126953" xlink:href="#DejaVuSans-85"/>
      <use x="203.320312" xlink:href="#DejaVuSans-32"/>
      <use x="235.107422" xlink:href="#DejaVuSans-116"/>
      <use x="274.316406" xlink:href="#DejaVuSans-105"/>
      <use x="302.099609" xlink:href="#DejaVuSans-109"/>
      <use x="399.511719" xlink:href="#DejaVuSans-101"/>
      <use x="461.035156" xlink:href="#DejaVuSans-32"/>
      <use x="492.822266" xlink:href="#DejaVuSans-105"/>
      <use x="520.605469" xlink:href="#DejaVuSans-110"/>
      <use x="583.984375" xlink:href="#DejaVuSans-32"/>
      <use x="615.771484" xlink:href="#DejaVuSans-110"/>
      <use x="679.150391" xlink:href="#DejaVuSans-115"/>
      <use x="731.25" xlink:href="#DejaVuSans-32"/>
      <use x="763.037109" xlink:href="#DejaVuSans-112"/>
      <use x="826.513672" xlink:href="#DejaVuSans-101"/>
      <use x="888.037109" xlink:href="#DejaVuSans-114"/>
      <use x="929.150391" xlink:href="#DejaVuSans-32"/>
      <use x="960.9375" xlink:href="#DejaVuSans-98"/>
      <use x="1024.414062" xlink:href="#DejaVuSans-105"/>
      <use x="1052.197266" xlink:href="#DejaVuSans-110"/>
     </g>
    </g>
   </g>
   <g id="line2d_106">
    <path clip-path="url(#pd29d26a899)" d="M 491.342246 103.185769 
L 499.194765 107.675068 
L 507.047284 112.471531 
L 514.899803 114.304608 
L 522.752322 109.673703 
L 530.604841 115.597697 
" style="fill:none;stroke:#ff0000;stroke-dasharray:3.7,1.6;stroke-dashoffset:0;"/>
   </g>
   <g id="line2d_107">
    <path clip-path="url(#pd29d26a899)" d="M 491.342246 163.11974 
L 499.194765 187.70851 
L 507.047284 195.623367 
L 514.899803 187.597865 
L 522.752322 194.402592 
L 530.604841 198.365691 
" style="fill:none;stroke:#0000ff;stroke-dasharray:1,1.65;stroke-dashoffset:0;"/>
   </g>
   <g id="line2d_108">
    <path clip-path="url(#pd29d26a899)" d="M 507.047284 74.021966 
L 522.752322 71.092022 
L 538.45736 72.5818 
L 554.162398 77.543123 
L 569.867436 76.451134 
L 585.572474 78.431535 
" style="fill:none;stroke:#ff0000;stroke-dasharray:7.4,3.2;stroke-dashoffset:0;stroke-width:2;"/>
   </g>
   <g id="line2d_109">
    <path clip-path="url(#pd29d26a899)" d="M 507.047284 184.079568 
L 522.752322 196.015257 
L 538.45736 208.130075 
L 554.162398 187.649699 
L 569.867436 190.601898 
L 585.572474 191.952267 
" style="fill:none;stroke:#0000ff;stroke-dasharray:2,3.3;stroke-dashoffset:0;stroke-width:2;"/>
   </g>
   <g id="line2d_110">
    <path clip-path="url(#pd29d26a899)" d="M 522.752322 56.865766 
L 546.309879 60.016661 
L 569.867436 59.814829 
L 593.424993 54.654545 
L 616.98255 55.505874 
L 640.540107 62.729834 
" style="fill:none;stroke:#ff0000;stroke-dasharray:11.1,4.8;stroke-dashoffset:0;stroke-width:3;"/>
   </g>
   <g id="line2d_111">
    <path clip-path="url(#pd29d26a899)" d="M 522.752322 195.688466 
L 546.309879 205.228699 
L 569.867436 213.645102 
L 593.424993 192.175647 
L 616.98255 198.826556 
L 640.540107 200.157043 
" style="fill:none;stroke:#0000ff;stroke-dasharray:3,4.95;stroke-dashoffset:0;stroke-width:3;"/>
   </g>
   <g id="patch_13">
    <path d="M 483.882353 295.2 
L 483.882353 43.2 
" style="fill:none;stroke:#000000;stroke-linecap:square;stroke-linejoin:miter;stroke-width:0.8;"/>
   </g>
   <g id="patch_14">
    <path d="M 648 295.2 
L 648 43.2 
" style="fill:none;stroke:#000000;stroke-linecap:square;stroke-linejoin:miter;stroke-width:0.8;"/>
   </g>
   <g id="patch_15">
    <path d="M 483.882353 295.2 
L 648 295.2 
" style="fill:none;stroke:#000000;stroke-linecap:square;stroke-linejoin:miter;stroke-width:0.8;"/>
   </g>
   <g id="patch_16">
    <path d="M 483.882353 43.2 
L 648 43.2 
" style="fill:none;stroke:#000000;stroke-linecap:square;stroke-linejoin:miter;stroke-width:0.8;"/>
   </g>
   <g id="text_29">
    <!-- vector_of_variant -->
    <defs>
     <path d="M 50.984375 -16.609375 
L 50.984375 -23.578125 
L -0.984375 -23.578125 
L -0.984375 -16.609375 
z
" id="DejaVuSans-95"/>
     <path d="M 34.28125 27.484375 
Q 23.390625 27.484375 19.1875 25 
Q 14.984375 22.515625 14.984375 16.5 
Q 14.984375 11.71875 18.140625 8.90625 
Q 21.296875 6.109375 26.703125 6.109375 
Q 34.1875 6.109375 38.703125 11.40625 
Q 43.21875 16.703125 43.21875 25.484375 
L 43.21875 27.484375 
z
M 52.203125 31.203125 
L 52.203125 0 
L 43.21875 0 
L 43.21875 8.296875 
Q 40.140625 3.328125 35.546875 0.953125 
Q 30.953125 -1.421875 24.3125 -1.421875 
Q 15.921875 -1.421875 10.953125 3.296875 
Q 6 8.015625 6 15.921875 
Q 6 25.140625 12.171875 29.828125 
Q 18.359375 34.515625 30.609375 34.515625 
L 43.21875 34.515625 
L 43.21875 35.40625 
Q 43.21875 41.609375 39.140625 45 
Q 35.0625 48.390625 27.6875 48.390625 
Q 23 48.390625 18.546875 47.265625 
Q 14.109375 46.140625 10.015625 43.890625 
L 10.015625 52.203125 
Q 14.9375 54.109375 19.578125 55.046875 
Q 24.21875 56 28.609375 56 
Q 40.484375 56 46.34375 49.84375 
Q 52.203125 43.703125 52.203125 31.203125 
z
" id="DejaVuSans-97"/>
    </defs>
    <g transform="translate(493.128926 32.16)scale(0.168 -0.168)">
     <use xlink:href="#DejaVuSans-118"/>
     <use x="59.179688" xlink:href="#DejaVuSans-101"/>
     <use x="120.703125" xlink:href="#DejaVuSans-99"/>
     <use x="175.683594" xlink:href="#DejaVuSans-116"/>
     <use x="214.892578" xlink:href="#DejaVuSans-111"/>
     <use x="276.074219" xlink:href="#DejaVuSans-114"/>
     <use x="317.1875" xlink:href="#DejaVuSans-95"/>
     <use x="367.1875" xlink:href="#DejaVuSans-111"/>
     <use x="428.369141" xlink:href="#DejaVuSans-102"/>
     <use x="463.574219" xlink:href="#DejaVuSans-95"/>
     <use x="513.574219" xlink:href="#DejaVuSans-118"/>
     <use x="572.753906" xlink:href="#DejaVuSans-97"/>
     <use x="634.033203" xlink:href="#DejaVuSans-114"/>
     <use x="675.146484" xlink:href="#DejaVuSans-105"/>
     <use x="702.929688" xlink:href="#DejaVuSans-97"/>
     <use x="764.208984" xlink:href="#DejaVuSans-110"/>
     <use x="827.587891" xlink:href="#DejaVuSans-116"/>
    </g>
   </g>
   <g id="legend_3">
    <g id="line2d_112">
     <path d="M 491.177753 223.891265 
L 507.389753 223.891265 
" style="fill:none;stroke:#0000ff;stroke-dasharray:1,1.65;stroke-dashoffset:0;"/>
    </g>
    <g id="line2d_113"/>
    <g id="text_30">
     <!-- indexed: $D=1$ -->
     <g transform="translate(513.874553 226.728365)scale(0.08106 -0.08106)">
      <use transform="translate(0 0.015625)" xlink:href="#DejaVuSans-105"/>
      <use transform="translate(27.783203 0.015625)" xlink:href="#DejaVuSans-110"/>
      <use transform="translate(91.162109 0.015625)" xlink:href="#DejaVuSans-100"/>
      <use transform="translate(154.638672 0.015625)" xlink:href="#DejaVuSans-101"/>
      <use transform="translate(216.162109 0.015625)" xlink:href="#DejaVuSans-120"/>
      <use transform="translate(275.341797 0.015625)" xlink:href="#DejaVuSans-101"/>
      <use transform="translate(336.865234 0.015625)" xlink:href="#DejaVuSans-100"/>
      <use transform="translate(400.341797 0.015625)" xlink:href="#DejaVuSans-58"/>
      <use transform="translate(434.033203 0.015625)" xlink:href="#DejaVuSans-32"/>
      <use transform="translate(465.820312 0.015625)" xlink:href="#DejaVuSans-Oblique-68"/>
      <use transform="translate(562.304688 0.015625)" xlink:href="#DejaVuSans-61"/>
      <use transform="translate(665.576172 0.015625)" xlink:href="#DejaVuSans-49"/>
     </g>
    </g>
    <g id="line2d_114">
     <path d="M 491.177753 235.789353 
L 507.389753 235.789353 
" style="fill:none;stroke:#0000ff;stroke-dasharray:2,3.3;stroke-dashoffset:0;stroke-width:2;"/>
    </g>
    <g id="line2d_115"/>
    <g id="text_31">
     <!-- indexed: $D=2$ -->
     <g transform="translate(513.874553 238.626453)scale(0.08106 -0.08106)">
      <use transform="translate(0 0.015625)" xlink:href="#DejaVuSans-105"/>
      <use transform="translate(27.783203 0.015625)" xlink:href="#DejaVuSans-110"/>
      <use transform="translate(91.162109 0.015625)" xlink:href="#DejaVuSans-100"/>
      <use transform="translate(154.638672 0.015625)" xlink:href="#DejaVuSans-101"/>
      <use transform="translate(216.162109 0.015625)" xlink:href="#DejaVuSans-120"/>
      <use transform="translate(275.341797 0.015625)" xlink:href="#DejaVuSans-101"/>
      <use transform="translate(336.865234 0.015625)" xlink:href="#DejaVuSans-100"/>
      <use transform="translate(400.341797 0.015625)" xlink:href="#DejaVuSans-58"/>
      <use transform="translate(434.033203 0.015625)" xlink:href="#DejaVuSans-32"/>
      <use transform="translate(465.820312 0.015625)" xlink:href="#DejaVuSans-Oblique-68"/>
      <use transform="translate(562.304688 0.015625)" xlink:href="#DejaVuSans-61"/>
      <use transform="translate(665.576172 0.015625)" xlink:href="#DejaVuSans-50"/>
     </g>
    </g>
    <g id="line2d_116">
     <path d="M 491.177753 247.687441 
L 507.389753 247.687441 
" style="fill:none;stroke:#0000ff;stroke-dasharray:3,4.95;stroke-dashoffset:0;stroke-width:3;"/>
    </g>
    <g id="line2d_117"/>
    <g id="text_32">
     <!-- indexed: $D=3$ -->
     <g transform="translate(513.874553 250.524541)scale(0.08106 -0.08106)">
      <use transform="translate(0 0.015625)" xlink:href="#DejaVuSans-105"/>
      <use transform="translate(27.783203 0.015625)" xlink:href="#DejaVuSans-110"/>
      <use transform="translate(91.162109 0.015625)" xlink:href="#DejaVuSans-100"/>
      <use transform="translate(154.638672 0.015625)" xlink:href="#DejaVuSans-101"/>
      <use transform="translate(216.162109 0.015625)" xlink:href="#DejaVuSans-120"/>
      <use transform="translate(275.341797 0.015625)" xlink:href="#DejaVuSans-101"/>
      <use transform="translate(336.865234 0.015625)" xlink:href="#DejaVuSans-100"/>
      <use transform="translate(400.341797 0.015625)" xlink:href="#DejaVuSans-58"/>
      <use transform="translate(434.033203 0.015625)" xlink:href="#DejaVuSans-32"/>
      <use transform="translate(465.820312 0.015625)" xlink:href="#DejaVuSans-Oblique-68"/>
      <use transform="translate(562.304688 0.015625)" xlink:href="#DejaVuSans-61"/>
      <use transform="translate(665.576172 0.015625)" xlink:href="#DejaVuSans-51"/>
     </g>
    </g>
    <g id="line2d_118">
     <path d="M 491.177753 259.585529 
L 507.389753 259.585529 
" style="fill:none;stroke:#ff0000;stroke-dasharray:3.7,1.6;stroke-dashoffset:0;"/>
    </g>
    <g id="line2d_119"/>
    <g id="text_33">
     <!-- nested for: $D=1$ -->
     <g transform="translate(513.874553 262.422629)scale(0.08106 -0.08106)">
      <use transform="translate(0 0.015625)" xlink:href="#DejaVuSans-110"/>
      <use transform="translate(63.378906 0.015625)" xlink:href="#DejaVuSans-101"/>
      <use transform="translate(124.902344 0.015625)" xlink:href="#DejaVuSans-115"/>
      <use transform="translate(177.001953 0.015625)" xlink:href="#DejaVuSans-116"/>
      <use transform="translate(216.210938 0.015625)" xlink:href="#DejaVuSans-101"/>
      <use transform="translate(277.734375 0.015625)" xlink:href="#DejaVuSans-100"/>
      <use transform="translate(341.210938 0.015625)" xlink:href="#DejaVuSans-32"/>
      <use transform="translate(372.998047 0.015625)" xlink:href="#DejaVuSans-102"/>
      <use transform="translate(408.203125 0.015625)" xlink:href="#DejaVuSans-111"/>
      <use transform="translate(469.384766 0.015625)" xlink:href="#DejaVuSans-114"/>
      <use transform="translate(510.498047 0.015625)" xlink:href="#DejaVuSans-58"/>
      <use transform="translate(544.189453 0.015625)" xlink:href="#DejaVuSans-32"/>
      <use transform="translate(575.976562 0.015625)" xlink:href="#DejaVuSans-Oblique-68"/>
      <use transform="translate(672.460938 0.015625)" xlink:href="#DejaVuSans-61"/>
      <use transform="translate(775.732422 0.015625)" xlink:href="#DejaVuSans-49"/>
     </g>
    </g>
    <g id="line2d_120">
     <path d="M 491.177753 271.483617 
L 507.389753 271.483617 
" style="fill:none;stroke:#ff0000;stroke-dasharray:7.4,3.2;stroke-dashoffset:0;stroke-width:2;"/>
    </g>
    <g id="line2d_121"/>
    <g id="text_34">
     <!-- nested for: $D=2$ -->
     <g transform="translate(513.874553 274.320717)scale(0.08106 -0.08106)">
      <use transform="translate(0 0.015625)" xlink:href="#DejaVuSans-110"/>
      <use transform="translate(63.378906 0.015625)" xlink:href="#DejaVuSans-101"/>
      <use transform="translate(124.902344 0.015625)" xlink:href="#DejaVuSans-115"/>
      <use transform="translate(177.001953 0.015625)" xlink:href="#DejaVuSans-116"/>
      <use transform="translate(216.210938 0.015625)" xlink:href="#DejaVuSans-101"/>
      <use transform="translate(277.734375 0.015625)" xlink:href="#DejaVuSans-100"/>
      <use transform="translate(341.210938 0.015625)" xlink:href="#DejaVuSans-32"/>
      <use transform="translate(372.998047 0.015625)" xlink:href="#DejaVuSans-102"/>
      <use transform="translate(408.203125 0.015625)" xlink:href="#DejaVuSans-111"/>
      <use transform="translate(469.384766 0.015625)" xlink:href="#DejaVuSans-114"/>
      <use transform="translate(510.498047 0.015625)" xlink:href="#DejaVuSans-58"/>
      <use transform="translate(544.189453 0.015625)" xlink:href="#DejaVuSans-32"/>
      <use transform="translate(575.976562 0.015625)" xlink:href="#DejaVuSans-Oblique-68"/>
      <use transform="translate(672.460938 0.015625)" xlink:href="#DejaVuSans-61"/>
      <use transform="translate(775.732422 0.015625)" xlink:href="#DejaVuSans-50"/>
     </g>
    </g>
    <g id="line2d_122">
     <path d="M 491.177753 283.381705 
L 507.389753 283.381705 
" style="fill:none;stroke:#ff0000;stroke-dasharray:11.1,4.8;stroke-dashoffset:0;stroke-width:3;"/>
    </g>
    <g id="line2d_123"/>
    <g id="text_35">
     <!-- nested for: $D=3$ -->
     <g transform="translate(513.874553 286.218805)scale(0.08106 -0.08106)">
      <use transform="translate(0 0.015625)" xlink:href="#DejaVuSans-110"/>
      <use transform="translate(63.378906 0.015625)" xlink:href="#DejaVuSans-101"/>
      <use transform="translate(124.902344 0.015625)" xlink:href="#DejaVuSans-115"/>
      <use transform="translate(177.001953 0.015625)" xlink:href="#DejaVuSans-116"/>
      <use transform="translate(216.210938 0.015625)" xlink:href="#DejaVuSans-101"/>
      <use transform="translate(277.734375 0.015625)" xlink:href="#DejaVuSans-100"/>
      <use transform="translate(341.210938 0.015625)" xlink:href="#DejaVuSans-32"/>
      <use transform="translate(372.998047 0.015625)" xlink:href="#DejaVuSans-102"/>
      <use transform="translate(408.203125 0.015625)" xlink:href="#DejaVuSans-111"/>
      <use transform="translate(469.384766 0.015625)" xlink:href="#DejaVuSans-114"/>
      <use transform="translate(510.498047 0.015625)" xlink:href="#DejaVuSans-58"/>
      <use transform="translate(544.189453 0.015625)" xlink:href="#DejaVuSans-32"/>
      <use transform="translate(575.976562 0.015625)" xlink:href="#DejaVuSans-Oblique-68"/>
      <use transform="translate(672.460938 0.015625)" xlink:href="#DejaVuSans-61"/>
      <use transform="translate(775.732422 0.015625)" xlink:href="#DejaVuSans-51"/>
     </g>
    </g>
   </g>
  </g>
  <g id="text_36">
   <!-- number of bins -->
   <g transform="translate(307.012187 342)scale(0.14 -0.14)">
    <use xlink:href="#DejaVuSans-110"/>
    <use x="63.378906" xlink:href="#DejaVuSans-117"/>
    <use x="126.757812" xlink:href="#DejaVuSans-109"/>
    <use x="224.169922" xlink:href="#DejaVuSans-98"/>
    <use x="287.646484" xlink:href="#DejaVuSans-101"/>
    <use x="349.169922" xlink:href="#DejaVuSans-114"/>
    <use x="390.283203" xlink:href="#DejaVuSans-32"/>
    <use x="422.070312" xlink:href="#DejaVuSans-111"/>
    <use x="483.251953" xlink:href="#DejaVuSans-102"/>
    <use x="518.457031" xlink:href="#DejaVuSans-32"/>
    <use x="550.244141" xlink:href="#DejaVuSans-98"/>
    <use x="613.720703" xlink:href="#DejaVuSans-105"/>
    <use x="641.503906" xlink:href="#DejaVuSans-110"/>
    <use x="704.882812" xlink:href="#DejaVuSans-115"/>
   </g>
  </g>
 </g>
 <defs>
  <clipPath id="p00d1eafa88">
   <rect height="252" width="164.117647" x="90" y="43.2"/>
  </clipPath>
  <clipPath id="peed67f1aa5">
   <rect height="252" width="164.117647" x="286.941176" y="43.2"/>
  </clipPath>
  <clipPath id="pd29d26a899">
   <rect height="252" width="164.117647" x="483.882353" y="43.2"/>
  </clipPath>
 </defs>
</svg>
